<svg xmlns="http://www.w3.org/2000/svg" xml:space="preserve" width="525px" height="504px" version="1.1"
viewBox="0 0 543.55 522.31">
  <style type="text/css">
   <![CDATA[
    .fil0 {fill:#3A3A3A}
    .fil1 {fill:#B4B4B4}
    .fil2 {fill:#E2E2DD}
    .fil7 {fill:#F28124}
    .fil6 {fill:#F2F9FD}
    .fil3 {fill:#FDFDFD}
    .fil4 {fill:#FF8E31}
    .fil5 {fill:#FF9D4D}
    .fil8 {fill:#FFBF69}
    .fil9 {fill:white}
    .fil20 {fill:black}
   ]]>
  </style>
   <path class="fil0" d="M260.65 475.87c45.24,0 82.06,10.35 82.06,23.17 0,12.83 -36.82,23.27 -82.06,23.27 -45.34,0 -82.06,-10.44 -82.06,-23.27 0,-12.82 36.72,-23.17 82.06,-23.17z"/>
   <path class="fil1" d="M260.65 482.74c41.12,0 75.28,8.61 81.14,19.78 -5.86,11.18 -40.02,19.79 -81.14,19.79 -41.21,0 -75.28,-8.61 -81.14,-19.79 5.86,-11.17 39.93,-19.78 81.14,-19.78z"/>
   <path class="fil2" d="M277.59 484.02c-8.7,14.84 -14.56,24 -23.26,38.19l2.29 0.1 3.85 0c11.26,-14.93 54.86,-68.88 56.87,-76.2 -13.83,-5.86 -47.81,-16.85 -65.48,-23.45 4.85,-10.07 17.31,-22.99 17.31,-28.11l-22.99 -12.55c2.93,-2.47 87.46,-18.68 99.18,-20.79l-0.54 -34.62 108.16 -1.46 20.42 -299.39 -444.55 42.77 42.13 261.47c8.15,1.37 158.53,-1.74 181.06,-2.02 15.57,-0.18 12,-0.18 23.9,7.33 6.05,3.76 13.28,7.6 18.14,11.45 -3.3,3.02 -61.64,18.41 -73.82,22.16l-22.25 6.6c-1.47,0.73 -1.65,1 -2.11,1.28l49 24.63c-0.19,4.95 -10.08,22.9 -12.37,27.94 9.34,3.39 60.81,18.31 66.13,20.88l-21.07 33.79z"/>
   <path class="fil2" d="M411.58 17.58c0.28,-5.58 -1.65,-12.73 -3.11,-17.58 -21.07,2.2 -46.07,6.87 -67.41,10.17 -22.25,3.48 -45.43,7.05 -67.41,10.44 -22.25,3.48 -44.6,6.87 -67.31,10.07 -10.99,1.65 -60.81,8.15 -66.31,11.36l271.55 -24.46 0 0zm85.08 156.89c19.14,0 14.93,4.03 20.88,-11.45l17.5 -48.91c2.47,-6.86 7.51,-18.5 8.51,-25.37l-30.86 0.1c-1.92,10.16 -16.39,81.41 -16.03,85.63l0 0zm-466.07 27.38l-30.59 0.09 22.71 64.48c1.74,4.58 5.5,17.22 7.88,21.16l16.39 -0.1 -16.39 -85.63zm215.96 4.12c0.54,12 6.13,32.7 20.24,25.1 9.25,-4.95 10.16,-26.1 9.52,-39.48 -1.74,-37.73 -32.33,-42.22 -29.76,14.38zm222.18 79.13c2.56,-16.76 4.4,-37.73 7.33,-56.14 2.74,-17.67 5.31,-37.82 7.14,-56.05 3.75,-35.62 9.71,-73.72 14.56,-110.82l-10.62 -5.31c-3.67,24.18 -6.87,84.99 -9.8,114.85l-8.7 99.92c-0.37,3.75 -1.38,10.07 0.09,13.55l0 0z"/>
   <path class="fil2" d="M31.32 165.58c0.64,1.74 1.38,4.13 2.11,6.42 0.46,1.28 0.73,1.92 1.28,3.11 1.37,2.66 0.46,0.92 1.47,2.11 -0.55,-12 -7.42,-34.44 -10.08,-47.35l-9.8 -43.05c-0.64,-1.56 -1.01,-1.92 -1.28,-2.29 -8.24,9.8 -7.33,9.07 -2.84,22.72l19.14 58.33 0 0z"/>
   <polygon class="fil4" points="86.91,475.32 24.27,495.75 86.91,516.17 149.47,495.75 "/>
   <path class="fil5" d="M89.75 396.01l-5.68 0 -34.61 99.74c0,2.93 16.76,5.22 37.45,5.22 20.61,0 37.37,-2.29 37.37,-5.22l-34.53 -99.74z"/>
   <path class="fil6" d="M116.22 472.39l-0.18 -0.27 -6.78 -19.69c0,1.74 -9.98,3.11 -22.35,3.11 -12.36,0 -22.43,-1.37 -22.43,-3.11l-6.78 19.69 -0.18 0.27 0 0.09c0,2.2 13.18,4.03 29.39,4.03 16.12,0 29.31,-1.83 29.31,-4.03l0 -0.09 0 0zm-11.54 -33.33l-6.96 -19.88c0,0.83 -4.85,1.47 -10.81,1.47 -5.95,0 -10.8,-0.64 -10.89,-1.47l-6.87 19.88 0 0.09c0,1.37 7.87,2.47 17.76,2.47 9.8,0 17.77,-1.1 17.77,-2.47l0 -0.09 0 0z"/>
   <path class="fil7" d="M89.66 396.01c0,0.18 -1.19,0.37 -2.75,0.37 -1.55,0 -2.84,-0.19 -2.84,-0.37 0,-0.27 1.29,-0.37 2.84,-0.37 1.56,0 2.75,0.1 2.75,0.37zm-2.75 123.64l62.56 -20.42 0 -3.48 -62.56 20.42 0 3.48zm0 0l-62.64 -20.42 0 -3.48 62.64 20.42 0 3.48z"/>
   <path class="fil8" d="M76.84 455.27l2.11 -13.92c-3.21,-0.28 -5.96,-0.55 -7.7,-1.01l-4.03 13.64c2.2,0.55 5.59,1.01 9.62,1.29zm-15.66 19.14l-7.15 23.9c3.67,0.92 9.35,1.65 16.12,2.11l3.58 -24.36c-5.32,-0.37 -9.71,-0.92 -12.55,-1.65zm20.88 -53.95l3.57 -24.08c-0.55,-0.09 -0.91,-0.09 -1.19,-0.19l-7.05 23.63c1.01,0.28 2.65,0.55 4.67,0.64l0 0z"/>
   <polygon class="fil4" points="438.87,475.32 376.23,495.75 438.87,516.17 501.42,495.75 "/>
   <path class="fil5" d="M441.62 396.01l-5.59 0 -34.62 99.74c0,2.93 16.76,5.22 37.46,5.22 20.61,0 37.37,-2.29 37.37,-5.22l-34.62 -99.74 0 0z"/>
   <path class="fil6" d="M468.18 472.39l-0.18 -0.27 -6.78 -19.69c0,1.74 -9.98,3.11 -22.35,3.11 -12.36,0 -22.44,-1.37 -22.44,-3.11l-6.77 19.69 -0.19 0.27 0 0.09c0,2.2 13.19,4.03 29.4,4.03 16.12,0 29.31,-1.83 29.31,-4.03l0 -0.09 0 0zm-11.54 -33.33l-6.96 -19.88c0,0.83 -4.85,1.47 -10.81,1.47 -5.95,0 -10.8,-0.64 -10.9,-1.47l-6.86 19.88 -0.1 0.09c0,1.37 7.97,2.47 17.86,2.47 9.8,0 17.77,-1.1 17.77,-2.47l0 -0.09 0 0z"/>
   <path class="fil7" d="M441.62 396.01c0,0.18 -1.19,0.37 -2.75,0.37 -1.55,0 -2.84,-0.19 -2.84,-0.37 0,-0.27 1.29,-0.37 2.84,-0.37 1.56,0 2.75,0.1 2.75,0.37zm-2.75 123.64l62.55 -20.42 0 -3.48 -62.55 20.42 0 3.48zm0 0l-62.64 -20.42 0 -3.48 62.64 20.42 0 3.48z"/>
   <path class="fil8" d="M428.8 455.27l2.1 -13.92c-3.2,-0.28 -5.95,-0.55 -7.69,-1.01l-4.03 13.64c2.2,0.55 5.59,1.01 9.62,1.29zm-15.66 19.14l-7.15 23.9c3.67,0.92 9.35,1.65 16.12,2.11l3.57 -24.36c-5.31,-0.37 -9.7,-0.92 -12.54,-1.65zm20.88 -53.95l3.57 -24.08c-0.55,-0.09 -0.92,-0.09 -1.19,-0.19l-7.05 23.63c1.01,0.28 2.65,0.55 4.67,0.64l0 0z"/>
  <path class="fil9" d="M160.21 228.13l-34.93 0c-18.73,0 -28.1,-3.83 -28.1,-11.49 0,-3.2 1.64,-6.8 4.91,-10.78 2.66,-3.05 5.38,-6.1 8.14,-9.22 9.4,-13.44 23.73,-33.43 42.98,-59.95 4.58,-6.08 10.51,-9.13 17.81,-9.13 3.47,0 6.43,0.87 8.95,2.63 2.99,2.1 4.49,5.06 4.49,8.86l0 65.91c7.63,0.24 12.72,1.02 15.29,2.37 2.85,1.59 4.28,4.7 4.28,9.31 0.06,4.85 -2.15,8.2 -6.64,10 -3.14,1.22 -7.45,1.73 -12.93,1.49 0.18,8.44 0.15,17.6 -0.09,27.45 -0.06,3.23 -1.11,5.9 -3.14,7.99 -2.04,2.13 -4.82,3.17 -8.33,3.17 -8.86,0 -13.11,-5.86 -12.69,-17.6l0 -21.01zm0 -62.5c-5.62,8.92 -14.3,22.03 -26.04,39.33l26.04 0 0 -39.33z"/>
  <path class="fil9" d="M259.62 267.82c-19.37,0 -33.41,-8.35 -42.12,-25.08 -6.43,-12.36 -9.63,-28.35 -9.63,-47.92 0,-16.73 4.25,-31.4 12.72,-44.03 10.17,-15.12 24.09,-22.69 41.75,-22.69 16.7,0 29.69,6.73 38.91,20.23 7.79,11.41 11.68,25.18 11.68,41.31 0,26.04 -4.43,45.62 -13.32,58.64 -8.89,13.02 -22.24,19.54 -39.99,19.54zm2.6 -116.91c-9.46,0 -17.03,4.7 -22.75,14.13 -5.02,8.17 -7.54,17.68 -7.54,28.49 0,14.28 1.35,25.26 4.04,32.99 4.31,12.45 12.18,18.67 23.62,18.67 9.58,0 16.76,-4.37 21.55,-13.11 4.79,-8.74 7.18,-21.85 7.18,-39.33 0,-13.98 -2.18,-24.45 -6.52,-31.4 -4.34,-6.97 -10.87,-10.44 -19.58,-10.44z"/>
  <path class="fil9" d="M379.44 228.13l-34.93 0c-18.74,0 -28.11,-3.83 -28.11,-11.49 0,-3.2 1.65,-6.8 4.91,-10.78 2.66,-3.05 5.39,-6.1 8.14,-9.22 9.4,-13.44 23.74,-33.43 42.98,-59.95 4.58,-6.08 10.51,-9.13 17.81,-9.13 3.47,0 6.44,0.87 8.95,2.63 2.99,2.1 4.49,5.06 4.49,8.86l0 65.91c7.63,0.24 12.72,1.02 15.3,2.37 2.84,1.59 4.28,4.7 4.28,9.31 0.06,4.85 -2.16,8.2 -6.65,10 -3.14,1.22 -7.45,1.73 -12.93,1.49 0.18,8.44 0.15,17.6 -0.09,27.45 -0.06,3.23 -1.11,5.9 -3.14,7.99 -2.04,2.13 -4.82,3.17 -8.32,3.17 -8.86,0 -13.11,-5.86 -12.69,-17.6l0 -21.01zm0 -62.5c-5.63,8.92 -14.31,22.03 -26.04,39.33l26.04 0 0 -39.33z"/>
</svg>
