<svg xmlns="http://www.w3.org/2000/svg" xml:space="preserve" width="127px" height="30px" fill-rule="evenodd" clip-rule="evenodd" image-rendering="optimizeQuality" shape-rendering="geometricPrecision" text-rendering="geometricPrecision" viewBox="0 0 15.37 3.63">
  <defs>
    <style>
      .fil0{fill:#fff;fill-rule:nonzero}
    </style>
  </defs>
  <g id="Слой_x0020_1">
    <path d="M.8 0c.27 0 .47.08.6.24.13.16.2.38.2.65v.32h-.38V.87c0-.34-.13-.51-.41-.51C.67.36.56.41.5.5.43.59.39.71.39.87v1.88c0 .17.04.29.11.38.06.09.17.14.31.14.28 0 .41-.17.41-.52v-.46h.38v.44c0 .28-.07.5-.2.66-.13.16-.33.24-.6.24-.27 0-.47-.08-.6-.24-.13-.16-.2-.38-.2-.66V.89C0 .62.07.4.2.24.33.08.53 0 .8 0z" class="fil0"/>
    <path id="1" d="M2.36 3.59h-.4V.04h1.67v3.55h-.4V.4h-.87z" class="fil0"/>
    <path id="2" d="M4.81.04c.27 0 .47.07.6.22s.2.37.2.64v.43c0 .57-.28.86-.83.86h-.35v1.4h-.4V.04h.78zm-.03 1.79c.15 0 .26-.03.33-.11.07-.07.11-.19.11-.36V.88c0-.16-.03-.28-.1-.36C5.06.44 4.95.4 4.81.4h-.38v1.43h.35z" class="fil0"/>
    <path id="3" d="M5.89.89c0-.27.07-.49.2-.65.14-.16.34-.24.61-.24.27 0 .47.08.61.24.14.16.21.38.21.65v1.84c0 .28-.07.5-.21.66-.14.16-.34.24-.61.24-.26 0-.46-.08-.6-.24-.14-.16-.21-.38-.21-.66V.89zm.39 1.86c0 .17.03.3.11.38.07.09.17.14.31.14.28 0 .42-.17.42-.52V.87c0-.16-.03-.28-.1-.37A.388.388 0 0 0 6.7.36c-.14 0-.24.05-.31.14-.08.09-.11.21-.11.37v1.88z" class="fil0"/>
    <path id="4" d="M8.66 0c.27 0 .47.08.6.24.14.16.2.38.2.65v.32h-.37V.87c0-.34-.14-.51-.42-.51-.14 0-.24.05-.31.14-.07.09-.1.21-.1.37v1.88c0 .17.03.29.1.38.07.09.17.14.31.14.28 0 .42-.17.42-.52v-.46h.37v.44c0 .28-.06.5-.2.66-.13.16-.33.24-.6.24-.26 0-.46-.08-.6-.24-.13-.16-.2-.38-.2-.66V.89c0-.27.07-.49.2-.65.14-.16.34-.24.6-.24z" class="fil0"/>
    <path id="5" d="M10.24 3.59h-.41V.04h.35v2.65l.31-.98.57-1.67h.44v3.55h-.35V.76l-.39 1.19z" class="fil0"/>
    <path id="6" d="M12.45.4h-.66V.04h1.71V.4h-.66v3.19h-.39z" class="fil0"/>
    <path id="7" d="M14.54 1.44c.55 0 .83.28.83.86v.42c0 .28-.07.49-.2.65-.13.15-.33.22-.6.22h-.78V.04h.4v1.4h.35zm.03 1.79c.14 0 .25-.04.31-.12.06-.08.1-.2.1-.37v-.47c0-.17-.04-.29-.11-.36-.07-.08-.18-.12-.33-.12h-.35v1.44h.38z" class="fil0"/>
  </g>
</svg>
