<svg xmlns="http://www.w3.org/2000/svg" xml:space="preserve" width="345" height="71" fill="#fff"
     viewBox="0 0 263.87 54.6">
    <path d="M0 13.46c0-4.18 1.03-7.47 3.1-9.87C5.16 1.2 8.21 0 12.23 0c4.03 0 7.09 1.2 9.18 3.59 2.09 2.4 3.13 5.69 3.13 9.87v27.68c0 4.18-1.04 7.47-3.13 9.86-2.09 2.4-5.15 3.6-9.18 3.6-3.97 0-7.01-1.2-9.1-3.6C1.04 48.61 0 45.32 0 41.14V13.46zm5.89 27.98c0 2.5.53 4.41 1.6 5.74 1.07 1.32 2.65 1.99 4.74 1.99 4.23 0 6.35-2.58 6.35-7.73V13.15c0-2.44-.52-4.34-1.57-5.69-1.04-1.36-2.64-2.03-4.78-2.03-2.09 0-3.67.67-4.74 2.03-1.07 1.35-1.6 3.25-1.6 5.69v28.29z"
          class="fil0" />
    <path id="1" d="M38.38 5.96h-9.86V.54h25.69v5.42h-9.86v48.1h-5.97z" class="fil0" />
    <path id="2" d="M64.61 54.06h-5.96V.54h25.08v53.52h-5.97V5.96H64.61z" class="fil0" />
    <path id="3"
          d="M101.54.54c4.08 0 7.1 1.13 9.06 3.4 1.97 2.27 2.95 5.49 2.95 9.67v6.42c0 8.62-4.16 12.93-12.47 12.93h-5.27v21.1h-5.97V.54h11.7zm-.46 27.06c2.25 0 3.9-.56 4.97-1.68 1.07-1.12 1.61-2.95 1.61-5.5V13.3c0-2.49-.49-4.34-1.45-5.54-.97-1.2-2.53-1.8-4.67-1.8h-5.73V27.6h5.27z"
          class="fil0" />
    <path id="4"
          d="M122.19 54.06h-5.51L126.93.54h8.64l10.24 53.52h-5.96l-2.07-10.78h-13.53l-2.06 10.78zm14.75-15.9-6.04-30.9-5.88 30.9h11.92z"
          class="fil0" />
    <path id="5"
          d="M162.48.54c4.08 0 7.04.96 8.87 2.9 1.84 1.94 2.75 4.92 2.75 8.95v2.52c0 2.96-.48 5.29-1.45 7-.97 1.7-2.57 2.92-4.82 3.63 4.8 1.32 7.19 5.15 7.19 11.47v4.51c0 4.08-1 7.19-3.02 9.33-2.01 2.14-5.08 3.21-9.21 3.21h-12.31V.54h12zm-1.45 22.7c2.5 0 4.32-.5 5.47-1.52 1.14-1.02 1.72-2.88 1.72-5.59V13c0-2.4-.46-4.17-1.38-5.32-.92-1.14-2.42-1.72-4.51-1.72h-5.89v17.28h4.59zm1.76 25.39c2.19 0 3.8-.58 4.82-1.76 1.01-1.17 1.52-3.01 1.52-5.5v-4.74c0-2.91-.58-4.96-1.75-6.16-1.18-1.2-3.09-1.8-5.74-1.8h-5.2v19.96h6.35z"
          class="fil0" />
    <path id="6" d="M186.64 54.06h-6.19V.54h5.28v39.91l4.74-14.76L199.03.54h6.65v53.52h-5.35V11.47l-5.81 17.89z"
          class="fil0" />
    <path id="7" d="M219.91 5.96h-9.87V.54h25.69v5.42h-9.86v48.1h-5.96z" class="fil0" />
    <path id="8"
          d="M251.41 21.64c8.31 0 12.46 4.31 12.46 12.92v6.42c0 4.18-.98 7.41-2.94 9.68-1.96 2.27-4.99 3.4-9.06 3.4h-11.7V.54h5.96v21.1h5.28zm.46 26.99c2.14 0 3.69-.6 4.66-1.8.97-1.19 1.45-3.04 1.45-5.54v-7.11c0-2.55-.53-4.38-1.6-5.51-1.07-1.12-2.73-1.68-4.97-1.68h-5.28v21.64h5.74z"
          class="fil0" />
</svg>
