<?xml version="1.0" encoding="UTF-8"?>
<!DOCTYPE svg PUBLIC "-//W3C//DTD SVG 1.1//EN" "http://www.w3.org/Graphics/SVG/1.1/DTD/svg11.dtd">
<!-- Creator: CorelDRAW 2019 (64-Bit) -->
<svg xmlns="http://www.w3.org/2000/svg" xml:space="preserve" width="345px" height="71px" version="1.1" style="shape-rendering:geometricPrecision; text-rendering:geometricPrecision; image-rendering:optimizeQuality; fill-rule:evenodd; clip-rule:evenodd"
viewBox="0 0 263.87 54.6"
 xmlns:xlink="http://www.w3.org/1999/xlink">
 <defs>
  <style type="text/css">
   <![CDATA[
    .fil0 {fill:white;fill-rule:nonzero}
   ]]>
  </style>
 </defs>
 <g id="Слой_x0020_1">
  <metadata id="CorelCorpID_0Corel-Layer"/>
  <path class="fil0" d="M0 13.46c0,-4.18 1.03,-7.47 3.1,-9.87 2.06,-2.39 5.11,-3.59 9.13,-3.59 4.03,0 7.09,1.2 9.18,3.59 2.09,2.4 3.13,5.69 3.13,9.87l0 27.68c0,4.18 -1.04,7.47 -3.13,9.86 -2.09,2.4 -5.15,3.6 -9.18,3.6 -3.97,0 -7.01,-1.2 -9.1,-3.6 -2.09,-2.39 -3.13,-5.68 -3.13,-9.86l0 -27.68zm5.89 27.98c0,2.5 0.53,4.41 1.6,5.74 1.07,1.32 2.65,1.99 4.74,1.99 4.23,0 6.35,-2.58 6.35,-7.73l0 -28.29c0,-2.44 -0.52,-4.34 -1.57,-5.69 -1.04,-1.36 -2.64,-2.03 -4.78,-2.03 -2.09,0 -3.67,0.67 -4.74,2.03 -1.07,1.35 -1.6,3.25 -1.6,5.69l0 28.29z"/>
  <polygon id="1" class="fil0" points="38.38,5.96 28.52,5.96 28.52,0.54 54.21,0.54 54.21,5.96 44.35,5.96 44.35,54.06 38.38,54.06 "/>
  <polygon id="2" class="fil0" points="64.61,54.06 58.65,54.06 58.65,0.54 83.73,0.54 83.73,54.06 77.76,54.06 77.76,5.96 64.61,5.96 "/>
  <path id="3" class="fil0" d="M101.54 0.54c4.08,0 7.1,1.13 9.06,3.4 1.97,2.27 2.95,5.49 2.95,9.67l0 6.42c0,8.62 -4.16,12.93 -12.47,12.93l-5.27 0 0 21.1 -5.97 0 0 -53.52 11.7 0zm-0.46 27.06c2.25,0 3.9,-0.56 4.97,-1.68 1.07,-1.12 1.61,-2.95 1.61,-5.5l0 -7.12c0,-2.49 -0.49,-4.34 -1.45,-5.54 -0.97,-1.2 -2.53,-1.8 -4.67,-1.8l-5.73 0 0 21.64 5.27 0z"/>
  <path id="4" class="fil0" d="M122.19 54.06l-5.51 0 10.25 -53.52 8.64 0 10.24 53.52 -5.96 0 -2.07 -10.78 -13.53 0 -2.06 10.78zm14.75 -15.9l-6.04 -30.9 -5.88 30.9 11.92 0z"/>
  <path id="5" class="fil0" d="M162.48 0.54c4.08,0 7.04,0.96 8.87,2.9 1.84,1.94 2.75,4.92 2.75,8.95l0 2.52c0,2.96 -0.48,5.29 -1.45,7 -0.97,1.7 -2.57,2.92 -4.82,3.63 4.8,1.32 7.19,5.15 7.19,11.47l0 4.51c0,4.08 -1,7.19 -3.02,9.33 -2.01,2.14 -5.08,3.21 -9.21,3.21l-12.31 0 0 -53.52 12 0zm-1.45 22.7c2.5,0 4.32,-0.5 5.47,-1.52 1.14,-1.02 1.72,-2.88 1.72,-5.59l0 -3.13c0,-2.4 -0.46,-4.17 -1.38,-5.32 -0.92,-1.14 -2.42,-1.72 -4.51,-1.72l-5.89 0 0 17.28 4.59 0zm1.76 25.39c2.19,0 3.8,-0.58 4.82,-1.76 1.01,-1.17 1.52,-3.01 1.52,-5.5l0 -4.74c0,-2.91 -0.58,-4.96 -1.75,-6.16 -1.18,-1.2 -3.09,-1.8 -5.74,-1.8l-5.2 0 0 19.96 6.35 0z"/>
  <polygon id="6" class="fil0" points="186.64,54.06 180.45,54.06 180.45,0.54 185.73,0.54 185.73,40.45 190.47,25.69 199.03,0.54 205.68,0.54 205.68,54.06 200.33,54.06 200.33,11.47 194.52,29.36 "/>
  <polygon id="7" class="fil0" points="219.91,5.96 210.04,5.96 210.04,0.54 235.73,0.54 235.73,5.96 225.87,5.96 225.87,54.06 219.91,54.06 "/>
  <path id="8" class="fil0" d="M251.41 21.64c8.31,0 12.46,4.31 12.46,12.92l0 6.42c0,4.18 -0.98,7.41 -2.94,9.68 -1.96,2.27 -4.99,3.4 -9.06,3.4l-11.7 0 0 -53.52 5.96 0 0 21.1 5.28 0zm0.46 26.99c2.14,0 3.69,-0.6 4.66,-1.8 0.97,-1.19 1.45,-3.04 1.45,-5.54l0 -7.11c0,-2.55 -0.53,-4.38 -1.6,-5.51 -1.07,-1.12 -2.73,-1.68 -4.97,-1.68l-5.28 0 0 21.64 5.74 0z"/>
 </g>
</svg>
