<svg xmlns="http://www.w3.org/2000/svg" xml:space="preserve" width="163px" height="30px" fill-rule="evenodd" clip-rule="evenodd" image-rendering="optimizeQuality" shape-rendering="geometricPrecision" text-rendering="geometricPrecision" viewBox="0 0 28.43 5.25">
  <defs>
    <style>
      .fil0{fill:#fff;fill-rule:nonzero}
    </style>
  </defs>
  <g id="Слой_x0020_1">
    <path d="M.51 4.62H0V.05h2.14v4.57h-.51V.51H.51z" class="fil0"/>
    <path id="1" d="M2.63 1.15c0-.36.08-.64.26-.84.18-.21.44-.31.78-.31.35 0 .61.1.79.31.17.2.26.48.26.84v2.36c0 .36-.09.64-.26.85-.18.2-.44.3-.79.3-.34 0-.6-.1-.78-.3-.17-.21-.26-.49-.26-.85V1.15zm.5 2.39c0 .21.05.38.14.49.09.11.22.17.4.17.36 0 .54-.22.54-.66V1.12c0-.21-.04-.37-.13-.48-.09-.12-.23-.18-.41-.18-.18 0-.31.06-.4.18-.09.11-.14.27-.14.48v2.42z" class="fil0"/>
    <path id="2" d="M7.46 4.62H5.59v.63H5.1V4.17h.3a.76.76 0 0 0 .15-.28c.02-.1.04-.23.05-.39L5.78.05h1.83v4.12h.35v1.08h-.5v-.63zM6.1 3.5c-.01.16-.03.3-.06.4-.03.11-.08.19-.15.27h1.2V.51h-.84L6.1 3.5z" class="fil0"/>
    <path id="3" d="M8.91 4.62H8.4V.05h2.14v4.57h-.51V.51H8.91z" class="fil0"/>
    <path id="4" d="M11.6 4.62h-.53V.05h.45v3.41l.4-1.26.73-2.15h.57v4.57h-.45V.98l-.5 1.53z" class="fil0"/>
    <path id="5" d="M14.73 0c.34 0 .6.1.77.31.17.2.26.48.26.84v.41h-.49v-.44c0-.44-.17-.66-.53-.66-.18 0-.31.06-.4.18-.09.11-.14.27-.14.48v2.42c0 .21.05.37.14.49.09.11.22.17.4.17.36 0 .53-.22.53-.66v-.59h.49v.56c0 .36-.09.64-.26.85-.17.2-.43.3-.77.3s-.6-.1-.77-.3c-.17-.21-.26-.49-.26-.85V1.15c0-.36.09-.64.26-.84.17-.21.43-.31.77-.31z" class="fil0"/>
    <path id="6" d="M16.56 4.62h-.47l.88-4.57h.73l.88 4.57h-.51l-.18-.92h-1.15l-.18.92zm1.26-1.36L17.31.62l-.51 2.64h1.02z" class="fil0"/>
    <path id="7" d="M19.68.51h-.85V.05h2.2v.46h-.84v4.11h-.51z" class="fil0"/>
    <path id="8" d="M22.37 1.85c.71 0 1.06.37 1.06 1.1v.55c0 .36-.08.63-.25.83-.17.19-.42.29-.77.29h-1V.05h.51v1.8h.45zm.04 2.3c.18 0 .31-.05.4-.15.08-.1.12-.26.12-.47v-.61c0-.22-.05-.37-.14-.47-.09-.1-.23-.14-.42-.14h-.45v1.84h.49z" class="fil0"/>
    <path id="9" d="M24.88 0c.35 0 .61.1.78.31.17.2.26.48.26.84v.41h-.49v-.44c0-.44-.18-.66-.53-.66-.18 0-.32.06-.4.18-.09.11-.14.27-.14.48v2.42c0 .21.05.37.14.49.08.11.22.17.4.17.35 0 .53-.22.53-.66v-.59h.49v.56c0 .36-.09.64-.26.85-.17.2-.43.3-.78.3-.34 0-.59-.1-.76-.3-.18-.21-.26-.49-.26-.85V1.15c0-.36.08-.64.26-.84.17-.21.42-.31.76-.31z" class="fil0"/>
    <path id="10" d="M27.56 2.67c-.22 0-.39.05-.5.15-.11.1-.16.28-.16.52v.72c0 .15-.01.26-.02.34-.02.08-.04.15-.07.22h-.51c.06-.12.09-.31.09-.55v-.71c0-.26.04-.47.13-.63.09-.15.23-.26.43-.33-.37-.12-.56-.43-.56-.94v-.37c0-.35.08-.61.25-.78.16-.18.42-.26.77-.26h1.02v4.57h-.51V2.67h-.36zM27.43.51c-.19 0-.33.05-.41.16-.08.1-.12.26-.12.47v.43c0 .24.05.4.16.49.1.1.26.14.48.14h.38V.51h-.49z" class="fil0"/>
  </g>
</svg>
