<svg xmlns="http://www.w3.org/2000/svg" xml:space="preserve" fill-rule="evenodd" clip-rule="evenodd" image-rendering="optimizeQuality" shape-rendering="geometricPrecision" text-rendering="geometricPrecision" viewBox="0 0 40.03 40.06">
  <defs>
    <style>
      .fil1{fill:#6c6c57}.fil0{fill:#d0c4a0}
    </style>
  </defs>
  <g id="Слой_x0020_1">
    <g id="_2562097218336">
      <path d="M31.31 18.94v.05c0 .23-.06.38-.1.6-.01.02-.03.12-.04.15-.06.18 0 0-.05.13-.06.12-.08.14-.09.3v.04c0 .2-.09.46-.13.62-.04.14-.04.17-.1.28-.06.13-.08.15-.1.32v.05c-.01.16-.11.46-.17.63l-.25.6c-.06.21-.11.72-.4 1.19-.07.12-.16.25-.18.4-.02.11.03-.03-.02.15-.02.08-.08.19-.12.29-.06.13-.08.18-.14.29-.08.16-.19.45-.28.57-.11.14-.27.34-.32.53v.04c-.08.37-.92 1.62-1.2 1.89-.74.72-.64.94-1.9 1.95-.14.12-.3.25-.43.38-.33.33-.97.66-1.43.87-.21.1-.33.07-.52.17-.34.18-.77.31-1.16.36-.45.06-.31.17-1.24.21-.22.01-.32.11-.66.09-.67-.05-.29 0-.7 0-.34 0-.26-.1-.63-.07-.25.01-.44-.06-.64-.12-.21-.05-.41-.04-.74-.16-.1-.03-.03-.01-.15-.03l-1.3-.49c-.01 0-.02-.01-.03-.01l-.36-.16c-.1-.06-.1-.1-.22-.16l-.25-.11a.862.862 0 0 1-.24-.17c-.14-.15-.18-.08-.6-.46-.11-.09-.26-.14-.4-.29-.08-.08.02.03-.05-.05l-.37-.34c-.09-.09-.11-.15-.19-.23-.14-.15-.24-.16-.38-.37-.11-.18.01-.06-.17-.2-.15-.12-.23-.33-.35-.46l-.36-.48c-.1-.17-.25-.28-.36-.53l-.34-.52c-.01-.01-.01-.04-.02-.05-.09-.23 0-.02-.14-.2-.13-.17-.17-.43-.28-.56-.11-.13-.21-.42-.23-.5l-.2-.34c-.02-.04-.05-.1-.06-.13-.04-.11-.02-.09-.03-.15-.03-.13-.23-.38-.27-.6-.02-.09.01-.02-.03-.11-.07-.19-.18-.33-.23-.55-.05-.23-.14-.31-.21-.54l-.18-.52c-.02-.07-.07-.22-.09-.32l-.24-.86c-.05-.21-.17-.46-.19-.69-.02-.14 0-.05-.04-.15l-.14-.66c-.01-.01-.01-.02-.01-.03-.01-.02-.01-.03-.02-.04 0-.01-.01-.02-.01-.03l-.13-.48c-.02-.24.05-.03-.02-.27-.1-.34-.12-.64-.21-.96-.06-.22-.03-.47-.1-.7l-.2-1.25c-.02-.58-.16-1.19-.18-1.74 0-.2.06-.11.02-.35-.03-.25-.12-.37-.06-.67.06-.28.19-.25.41-.39.32-.18.76-.38 1.13-.47h.04c.16-.03.26-.1.39-.18.15-.09.2-.1.38-.18.24-.1.59-.28.83-.34h.05l1.19-.54c.51-.21.51-.13.86-.36.34-.22.9-.41 1.26-.5l.88-.42c.16-.07.47-.23.64-.25h.05c.15-.03.26-.09.38-.18.22-.15 1.02-.48 1.21-.52h.05c.16-.04.26-.1.38-.18.14-.08.23-.13.38-.19.24-.1.59-.28.84-.33h.04c.49-.12.46-.43.82-.26.24.11.19.15.38.19.11.02.01-.02.18.05.36.14.3.2.48.23l.41.15c.25.15-.03.08.28.14l.21.07c.11.05.12.05.22.11.09.06-.03 0 .08.06l.3.08c.11.04.13.05.22.1.41.25.34.09.66.28.24.15.07.09.31.14.31.08.36.17.49.24.17.09.23-.01.65.27.11.08.34.05.6.24.22.16.2.02.73.32.19.11.2.01.6.25.24.14.27.04.61.24.4.23.33.09.66.28.54.31-.08-.04.52.22l.27.15c.09.05.28.03.52.19.18.11-.01.04.16.11.07.03.2.01.44.14.07.04-.01-.01.09.05.28.2.1.08.27.12.32.07.28.16.65.27.42.13.29.19.65.28.12.03.16.05.26.07l-.05 1.18c-.01.18-.07.22-.07.37.02.91-.11.73-.09 1.1.03.45-.15.74-.13 1.12 0 .17-.07.58-.13.74-.12.37-.02.61-.18 1.09-.06.18-.09.13-.1.36zM13.62 1.02h-.05a.78.78 0 0 0-.34.13c-.16.09-.17.09-.36.15-.18.07-.56.26-.76.28h-.04c-.15.04-.08.03-.23.1l-.66.37c-.19.09-.79.43-.94.47h-.05c-.21.05-.55.35-.71.46l-1.4.95c-.12.08-.22.16-.34.26-.12.09-.24.22-.37.25l-.04.05-.05.05-.05.04h-.04c-.34.18-1.74 1.61-2.03 1.91-.13.14-.17.22-.31.36-.16.16-.19.16-.29.36v.05l-.05.04-.05.05-.04.05-.99 1.36c-.16.23-.29.47-.46.71-.11.17-.42.52-.48.74v.05c-.09.33-.7 1.32-.82 1.57l-.12.26c.08.05.08 0 0 .05-.01.19-.18.53-.26.72-.06.17-.06.22-.15.37s-.1.17-.15.36v.05c-.03.39-.38.99-.4 1.27-.02.38-.28 1.06-.27 1.29.01.45-.18.75-.2 1.02-.01.18.02.48-.03.73-.05.26-.09.03-.07.32L0 21.29c.03.15.06.2.05.38-.02.63.07.3.08 1.04l.13.81c.01.16 0 .05.03.16l.05.14c.02.08.02.12.04.2l.14.65c.08.26.04.38.14.61.09.21.09.45.18.67 0 .02.02.05.03.07 0 .01.01.02.01.03.01.01.01.02.02.03.09.19.09.44.17.58l.31.77c.17.3.09.36.28.65.1.15.12.31.19.47l.31.64c.1.22-.11-.16.03.05.01.01.01.02.02.03 0 .01.01.02.02.03l.31.58c0 .01.01.02.02.03l.23.43c.06.16.24.3.33.46.09.15.06.17.19.32.03.04.09.11.11.13l.13.24c.06.17.25.28.35.46l.09.18c.11.12 0-.01.06.04l.31.42c.09.15.3.26.39.45.09.17.25.23.38.4.13.16.03.11.18.24.31.3.76.81 1.08 1.03.23.16.18.26.44.41.12.08.14.09.23.19.21.25.27.19.47.38.04.04.05.06.09.1.09.1-.01.03.12.11.08.05.05.02.13.06.08.05.06.04.13.1l.22.2c.16.13.36.19.51.34l.52.33c.18.16.42.23.63.4.16.12.37.16.54.3.22.17.48.21.71.37l1.35.62c.1.05.21.05.33.1l.14.05c.19.08.06.11.34.15.22.03.42.17.58.22.17.04.42.07.61.15.2.09.48.09.71.18.01.01.03.01.04.02l1.6.33c.23.06.44 0 .71.08l1.83.14c.26.04.17-.01.35-.01.2-.01.12.04.36.02.42-.03 1.01.04 1.45-.05.36-.08.72-.01 1.07-.1.22-.06.53-.12.78-.12h.05c.22 0 .11 0 .27-.05.08-.03.19-.06.25-.08.19-.04.42-.1.6-.1h.05l1.02-.3c.39-.13.15.07.62-.18l1.04-.37h.04c.21-.04.27-.09.39-.17l1.25-.58h.05c.16-.04.78-.46 1.07-.62l1.09-.64.05-.05.04-.05h.05c.31-.08 2.45-2 2.85-2.4l.33-.33c.22-.22 2.01-2.27 2.08-2.52v-.05l.05-.05.04-.05.94-1.59c.1-.14.28-.39.33-.56v-.05c.08-.36.69-1.39.75-1.64v-.05c.06-.24.16-.45.23-.66.04-.12.06-.21.11-.32.05-.11.11-.15.15-.31.03-.18-.03-.08.03-.3.04-.12.07-.2.11-.36l.22-.73v-.04c0-.18.06-.39.09-.56.02-.09.03-.16.07-.27.06-.17.06-.08.07-.3v-.05c0-.23.05-.54.1-.74l.15-1.39c-.02-.35.05-1.51.01-1.83l-.14-1.88c-.08-.25-.03-.48-.08-.68-.08-.33-.09-.63-.2-.97-.03-.12-.05-.25-.07-.35l-.05-.28c0-.01-.01-.02-.02-.03 0-.01-.01-.02-.01-.03-.09-.21-.09-.49-.17-.68-.21-.52-.06-.35-.29-.88-.09-.22-.1-.42-.18-.56-.05-.09-.1-.22-.13-.3l-.35-.92c-.08-.2-.2-.31-.27-.55-.07-.21-.12-.12-.27-.51-.06-.15-.08-.24-.18-.38-.01 0-.02-.01-.03-.02-.09-.13-.13-.31-.21-.44-.01-.01-.02-.02-.02-.03-.01 0-.02-.01-.03-.02 0-.01-.01-.02-.02-.03-.18-.23-.18-.33-.44-.68-.05-.07-.12-.19-.15-.26l-.13-.21c-.08-.09-.13-.13-.19-.23s-.01-.01-.07-.12c-.08-.18-.17-.22-.28-.38-.23-.29-.1-.18-.38-.47l-.97-1.14c-.08-.12-.08-.14-.19-.23l-.84-.85c-.14-.14-.31-.21-.45-.4l-.45-.34c-.13-.12-.14-.17-.29-.25-.01 0-.12-.07-.13-.08-.29-.22-.06-.13-.48-.37-.1-.06-.15-.11-.23-.19-.14-.15-.26-.16-.45-.3l-.23-.18c-.1-.06.03.01-.1-.04-.02-.01-.1-.05-.13-.07-.16-.1-.32-.25-.46-.31l-.53-.3c-.01-.01-.02-.01-.02-.01l-1.25-.64c-.36-.13-.4-.21-.56-.27-.08-.04-.09 0-.27-.07l-.61-.24c-.19-.06-.38-.2-.56-.23l-.5-.17c-.08-.04.06.01-.09-.04-.14-.05-.41-.06-.61-.15-.22-.08-.41-.07-.61-.13-.14-.04-.2-.1-.3-.12l-.66-.1c-.2-.07-.46-.06-.65-.1-.13-.03-.24-.07-.33-.07-.18-.02-.44 0-.71-.07-.19-.05-.48-.01-.69-.06L19.8.02c-.3.04-.51-.05-.76-.01-.27.03-.51.07-.75.04-.15-.02-.46.07-.71.1-.33.05-.34-.02-.66.08-.5.15-.66.03-1.16.21-.29.1-.56.17-.84.18-.32.01-.9.36-1.3.4z" class="fil0"/>
      <path d="M10.99 20.02c-.07.16.06.3.13.49l.22.89c.01.12.38.92.49 1.39v.05l.45 1.01c.07.17.18.34.22.48.03.11-.01.18.18.48.12.19.11.07.28.42l.84 1.41.05.05.05.05v.04l.67.84c.09.09.16.16.26.25l.78.72c.14.11.14.17.31.21h.04l.05.05.05.05 1.76.86c.32.03.81.19 1.06.26.2.05.27-.02.55.01.19.02.39.09.62.09-.07-.14-.07-.45-.04-.66L20 26.97c-.01-.24.05-.44.03-.6-.01-.17-.05-.4-.02-.66.04-.32 0-.25-.01-.57-.01-.25.05-.48.03-.64L20 23.22c-.01-.24.05-.45.03-.6L20 21.39c-.01-.26.05-.49.03-.65-.01-.17-.03-.37-.03-.62.29 0 .36-.04.61-.05.26-.01.37.05.56.05.18-.01.3-.07.57-.05.26.02.22.07.53.02.24-.04.39-.02.61.01.23.03.33-.02.55-.03.26-.01.37.05.56.05.18-.01.3-.07.56-.05.6.04.75-.03 1.15.03.23.03.32-.02.54-.03.26-.01.38.05.56.05.18-.01.31-.07.57-.05.27.02.22.07.53.02.2-.03.38-.03.58 0 .32.05.27-.01.53-.02.01-.28.09-.27.13-.48.03-.12.02-.31.1-.56.15-.52.06-.47.19-.84.09-.27.03-.23.07-.49.02-.17.07-.26.1-.37.06-.25.02-.49.1-.75.04-.11.02.06.05-.13.02-.15-.01-.08-.01-.18 0-.06.03-.28.05-.39l.16-1.58c-.41-.1-.76-.41-1.03-.47h-.05c-.22-.05-.59-.24-.8-.33-.15-.07-.23-.09-.38-.18-.14-.08-.25-.16-.41-.2h-.05c-.27-.06-.57-.22-.81-.32-.16-.06-.23-.1-.37-.18-.14-.09-.25-.16-.42-.2h-.04c-.69-.16-1.37-.64-1.6-.7h-.05c-.16-.02-.99-.38-1.19-.51l-.39-.17c-.13-.02-.03.02-.18-.04-.08-.03-.12-.05-.2-.09l-.81-.36c-.14-.09-.2-.14-.42-.19h-.05c-.32-.08-.6-.32-.75-.24-.02.34-.03.27 0 .61.03.28-.04.42-.04.61-.01.21.07.36.04.66-.03.31-.04.25 0 .57.03.29-.04.45-.04.65-.01.19.06.33.04.61-.02.33-.05.27 0 .62.03.27-.02.42-.04.61-.02.21.06.36.04.65-.03.61.01.59-.04 1.22-.02.21.06.33.05.61-.02.32-.07.29-.02.62.04.26 0 .43-.02.61-.03.24.05.36.04.64-.01.25-.05.32-.05.61-.23 0-.38 0-.59-.02-.2-.03-.29.03-.54.03-.23 0-.4-.05-.55-.04-.15.01-.34.05-.58.03-.54-.03-.7.04-1.11-.02-.21-.03-.29.02-.53.03-.23 0-.42-.05-.56-.04-.14 0-.33.05-.57.04-.3-.02-.24-.06-.52-.02-.19.03-.4.03-.59 0-.29-.04-.23 0-.53.02-.23.01-.42-.04-.57-.04-.14-.01-.33.04-.56.04-.24-.01-.31-.06-.53-.03-.2.03-.38.02-.59.02z" class="fil0"/>
      <path d="M19.3 10.36h-.05c-.1.02-.11.02-.21.07-.2.09-.15.11-.56.29-.14.06-.25.1-.39.16-.07.04-.14.06-.2.09-.44.19-.01-.1-.76.32-.06.04-.16.07-.23.1-.19.07-.66.31-.84.33h-.05c-.24.06-.4.21-.56.28-.05.03-.13.07-.19.09-.25.11-.57.27-.85.33h-.04c-.16.04-.26.1-.39.18-.14.08-.23.13-.37.19-.27.11-.56.27-.84.33h-.05c-.15.04-.25.1-.38.18-.16.1-.2.11-.38.19-.24.1-.59.28-.83.34h-.05c-.27.06-.62.37-1.03.47 0 .76.18 1.44.21 1.9.03.62.02.17.09.66l.13.72c.03.12.03.21.04.38l.21.96c.15.44.02.38.21.87.03.08.03.11.05.19.19 0 .36.01.54-.02.31-.05.27 0 .54.02.26.01.38-.04.56-.05.19 0 .3.06.56.05.22-.01.32-.07.55-.03l1.67-.01c.2-.02.3.04.55.04.27 0 .31-.07.55-.04h1.67c.24-.03.29.04.55.04.26 0 .35-.06.56-.04.18.01.31.04.57.04 0-.29.05-.37.05-.61 0-.25-.07-.35-.05-.6.03-.22.07-.31.03-.6-.06-.35 0-.35.02-.63.01-.29-.07-.35-.05-.61.02-.24.08-.32.03-.64-.06-.33-.01-.33.01-.59.03-.3-.06-.38-.04-.65.02-.21.08-.3.03-.6-.04-.32-.01-.32.01-.62.03-.3-.05-.37-.04-.61 0-.24.08-.33.03-.65-.04-.29-.02-.29.01-.58.04-.31-.05-.4-.04-.65 0-.22.08-.31.04-.6-.04-.3-.07-.3.01-.62-.21.05-.39.18-.61.24zm.79 19.76c.15-.04.4-.09.57-.1.29-.01.28.06.53-.02l.79-.21c.18-.05.12-.01.23-.03.21-.03 1.71-.86 1.73-.86l.05-.05.05-.05h.04c.3-.08 1.8-1.6 2.02-2.02v-.04l.05-.05.05-.05c.04-.15.66-1.05.81-1.34.22-.45.11-.19.29-.46.05-.06.09-.16.12-.22.08-.17.04-.11.07-.23.04-.21.64-1.38.68-1.55v-.05c.13-.58.47-1.26.48-1.29.03-.15-.01-.11.03-.3.03-.14.07-.22.11-.37l.22-.71c-.26.02-.25.07-.58.02-.27-.04-.37-.01-.56.01-.28.04-.32-.02-.55-.03-.28-.02-.32.05-.56.05-.22-.01-.29-.07-.56-.05-.23.02-.25.07-.55.03-.24-.04-.31-.04-.55 0-.3.04-.32-.01-.55-.03-.29-.03-.36.05-.61.05-.21-.01-.28-.07-.56-.05-.22.02-.25.07-.54.03-.24-.04-.32-.04-.56 0-.29.04-.32-.01-.55-.03-.27-.02-.34.04-.56.05-.24 0-.28-.07-.56-.05-.22.01-.29.05-.56.05 0 .25.05.48.04.65 0 .2-.07.36-.04.65.05.34.02.29 0 .62-.02.28.05.41.04.61 0 .2-.07.36-.04.65.04.32.03.26 0 .57-.03.29.05.45.04.65 0 .19-.07.34-.04.61.03.34.03.28 0 .62-.03.28.04.42.04.61.01.2-.07.36-.04.65.03.31.04.25 0 .57-.03.3.04.45.04.66.01.19-.06.33-.04.6.02.33.05.28 0 .62-.03.25 0 .42.04.61z" class="fil1"/>
      <path fill="#938f74" d="M10.99 19.98v.04c.21 0 .39.01.59-.02.22-.03.29.02.53.03.23 0 .42-.05.56-.04.15 0 .34.05.57.04.3-.02.24-.06.53-.02.19.03.4.03.59 0 .28-.04.22 0 .52.02.24.01.43-.04.57-.04.14-.01.33.04.56.04.24-.01.32-.06.53-.03.41.06.57-.01 1.11.02.24.02.43-.02.58-.03.15-.01.32.04.55.04.25 0 .34-.06.54-.03.21.02.36.02.59.02 0-.29.04-.36.05-.61.01-.28-.07-.4-.04-.64.02-.18.06-.35.02-.61-.05-.33 0-.3.02-.62.01-.28-.07-.4-.05-.61.05-.63.01-.61.04-1.22.02-.29-.06-.44-.04-.65.02-.19.07-.34.04-.61-.05-.35-.02-.29 0-.62.02-.28-.05-.42-.04-.61 0-.2.07-.36.04-.65-.04-.32-.03-.26 0-.57.03-.3-.05-.45-.04-.66 0-.19.07-.33.04-.61-.03-.34-.02-.27 0-.61h-.04c-.08.32-.05.32-.01.62.04.29-.04.38-.04.6-.01.25.08.34.04.65-.03.29-.05.29-.01.58.05.32-.03.41-.03.65-.01.24.07.31.04.61-.02.3-.05.3-.01.62.05.3-.01.39-.03.6-.02.27.07.35.04.65-.02.26-.07.26-.01.59.05.32-.01.4-.03.64-.02.26.06.32.05.61-.02.28-.08.28-.02.63.04.29 0 .38-.03.6-.02.25.05.35.05.6 0 .24-.05.32-.05.61-.26 0-.39-.03-.57-.04-.21-.02-.3.04-.56.04-.26 0-.31-.07-.55-.04h-1.67c-.24-.03-.28.04-.55.04-.25 0-.35-.06-.55-.04l-1.67.01c-.23-.04-.33.02-.55.03-.26.01-.37-.05-.56-.05-.18.01-.3.06-.56.05-.27-.02-.23-.07-.54-.02-.18.03-.35.02-.54.02zm9.06 10.14h.04c-.04-.19-.07-.36-.04-.61.05-.34.02-.29 0-.62-.02-.27.05-.41.04-.6 0-.21-.07-.36-.04-.66.04-.32.03-.26 0-.57-.03-.29.05-.45.04-.65 0-.19-.07-.33-.04-.61.03-.34.03-.28 0-.62-.03-.27.04-.42.04-.61.01-.2-.07-.36-.04-.65.03-.31.04-.25 0-.57-.03-.29.04-.45.04-.65.01-.2-.06-.33-.04-.61.02-.33.05-.28 0-.62-.03-.29.04-.45.04-.65.01-.17-.04-.4-.04-.65.27 0 .34-.04.56-.05.28-.02.32.05.56.05.22-.01.29-.07.56-.05.23.02.26.07.55.03.24-.04.32-.04.56 0 .29.04.32-.01.54-.03.28-.02.35.04.56.05.25 0 .32-.08.61-.05.23.02.25.07.55.03.24-.04.31-.04.55 0 .3.04.32-.01.55-.03.27-.02.34.04.56.05.24 0 .28-.07.56-.05.23.01.27.07.55.03.19-.02.29-.05.56-.01.33.05.32 0 .58-.02v-.05c-.26.01-.21.07-.53.02-.2-.03-.38-.03-.58 0-.31.05-.26 0-.53-.02-.26-.02-.39.04-.57.05-.18 0-.3-.06-.56-.05-.22.01-.31.06-.54.03-.4-.06-.55.01-1.15-.03-.26-.02-.38.04-.56.05-.19 0-.3-.06-.56-.05-.22.01-.32.06-.55.03-.22-.03-.37-.05-.61-.01-.31.05-.27 0-.53-.02-.27-.02-.39.04-.57.05-.19 0-.3-.06-.56-.05-.25.01-.32.05-.61.05 0 .25.02.45.03.62.02.16-.04.39-.03.65l.03 1.23c.02.15-.04.36-.03.6l.03 1.28c.02.16-.04.39-.03.64.01.32.05.25.01.57-.03.26.01.49.02.66.02.16-.04.36-.03.6l.01 2.49c-.03.21-.03.52.04.66z"/>
      <path d="M36.62 31.29h-.05v.05zm-5.31 5.3h-.05v.05zM7.33 4.49v-.05l-.05.05zm-.1.09v-.04l-.04.04zM4.56 7.26v-.05l-.05.05zm-.1.09V7.3l-.04.05zM16.01 28.9v-.05h-.05z" class="fil0"/>
      <path d="M24.04 28.85h-.05v.05z" class="fil1"/>
      <path d="M4.51 7.3v-.04l-.05.04zm9.34 19.44v-.05h-.05zM7.28 4.54v-.05l-.05.05z" class="fil0"/>
      <path d="M26.2 26.69h-.05v.05z" class="fil1"/>
      <path d="M13.9 26.78v-.04h-.05z" class="fil0"/>
      <path d="M26.15 26.74h-.05v.04z" class="fil1"/>
      <path d="M15.96 28.85v-.05h-.04z" class="fil0"/>
      <path d="M24.08 28.8h-.04v.05z" class="fil1"/>
      <path d="M36.66 31.24h-.04v.05zm-5.4 5.4h-.04v.05zM9.53 12.37h-.04z" class="fil0"/>
      <path d="M14.41 12.42h-.04z" class="fil1"/>
      <path d="M25.63 12.42h-.04z" class="fil0"/>
      <path d="M12.77 13.12h-.05z" class="fil1"/>
      <path d="M.99 13.64v-.05z" class="fil0"/>
      <path d="M11.13 13.83h-.05z" class="fil1"/>
      <path d="M28.92 13.83h-.05zm2.39 5.16v-.05zm-.28 1.22v-.04zM13.62 1.02h-.05zm-1.79 21.82v-.05z" class="fil0"/>
      <path d="M28.17 22.79v.05z" class="fil1"/>
      <path d="M39.76 23.4v.05zm-.23 1.18v.04zm-10.71 1.59v-.04zm-15.02.52v-.05z" class="fil0"/>
      <path d="M26.2 26.64v.05z" class="fil1"/>
      <path d="M30.7 21.48v-.05zM12.11 1.58h-.04zm-1.87.94h-.05zM7.37 4.44h-.04zM38.68 27.3v.05zM4.42 7.4v-.05zm14.92.8h-.04zm-1.64.7h-.05zm-1.64.7h-.05zm-13.57.66v-.05zM16.06 28.9h-.05z" class="fil0"/>
      <path d="M23.99 28.9h-.05z" class="fil1"/>
      <path d="M37.93 28.99v.05z" class="fil0"/>
      <path d="M19.3 10.36h-.05z" class="fil1"/>
      <path d="M20.75 10.36h-.05zm15.91 20.83v.05zM11.18 11.67h-.05zm16.1 1.45h-.05z" class="fil0"/>
      <path d="M16.06 11.72h-.05z" class="fil1"/>
      <path d="M23.99 11.72h-.05zm7.23 24.97h-.05zm-2.21 1.26h-.05zm-1.69.75h-.04zm-2.72.85h-.05zm-1.17.23h-.05zM1.55 12.14v-.05z" class="fil0"/>
    </g>
  </g>
</svg>
