<svg xmlns="http://www.w3.org/2000/svg" xml:space="preserve" fill-rule="evenodd" clip-rule="evenodd" image-rendering="optimizeQuality" shape-rendering="geometricPrecision" text-rendering="geometricPrecision" viewBox="0 0 451.99 223.17">
  <defs>
    <style>
      .str0{stroke:#000;stroke-width:.31;stroke-linecap:round;stroke-linejoin:round;stroke-miterlimit:10}.fil1,.fil4{fill-rule:nonzero}.fil4{fill:none}.fil1{fill:#2b2a29}.fil6{fill:#c9c9c9}.fil6,.fil7,.fil8{fill-rule:nonzero}.fil7{fill:#9d9d9d}.fil8{fill:#7b7b7a}.fil10,.fil2,.fil5{fill-rule:nonzero}.fil5{fill:#656564}.fil10{fill:#c6c7c9}.fil2{fill:#575746}.fil0{fill-rule:nonzero}.fil11{fill:#6c6c57}.fil11,.fil9{fill-rule:nonzero}.fil0{fill:#8f8f72}.fil9{fill:#fff}
    </style>
  </defs>
  <g id="Слой_x0020_1">
    <path d="M340.63 36.17c-.48.26-.95.68-1.37 1.16-.05 2.79-.21 5.31-.48 7.63.21 2.15.06 4.36-.31 6.52-.26 1.95-1.05 3.79-2.26 5.52-1.37 2.42-2.84 4.32-4.37 5.63-.89.79-1.89 1.53-3.05 2.11 1.31-.95 2.26-2.11 2.63-3.27 1.74-1.42 3.21-3.47 4.52-6.26 1.11-5.05 1.74-10.2 1.79-15.57-1.16 1.32-2.36 1.79-3.52 1.26l-.69 10.79-3.68-11c-.1.21-.26.37-.37.58-.68 1.11-1.73 1.48-3.21 1.11-2.68-.69-4.84-.79-6.52-.37l-38.03 20.52c-1.63.26-2.84.79-3.69 1.68 1.27 2.37 2.37 4.1 3.48 5.37l9.52 13.94c14.62-.74 26.99-4.48 37.19-11.1 1.42-.95 2.84-1.95 4.21-3.06 2.84-3.84 5.05-7.41 6.73-10.83 1.27-2.79 2.48-6.21 3.58-10.26 1.32-4.84 3.26-8.1 5.79-9.73l16.57 7.31.1.05 4.63.79-23.04-12.31c-.63-.58-1.52-.58-2.79 0l-3.36 1.79z" class="fil0"/>
    <path d="M339.26 37.33c-.53.58-1.05 1.37-1.53 2.31-.05 5.37-.68 10.52-1.79 15.57 1.37-2.68 2.32-6.1 2.84-10.25.27-2.32.43-4.84.48-7.63z" class="fil1"/>
    <path d="M334.23 40.84h.01l.04.02v.05l-.69 10.78-.02.35-.11-.33-3.68-10.99-.02-.04.03-.03c.49-.57 1.04-.85 1.67-.87.63-.02 1.33.22 2.1.7.26.15.47.26.67.36z" class="fil2"/>
    <path d="M347.04 42.64c.48-1.37.95-2.73 1.48-4.1-2.53 1.63-4.47 4.89-5.79 9.73-1.1 4.05-2.31 7.47-3.58 10.26-1.68 3.42-3.89 6.99-6.73 10.83-1.37 1.11-2.79 2.11-4.21 3.06 2.32-.58 4.21-1.74 5.63-3.37 3.68-4.26 6.58-9.31 8.63-15.1 1.63-3.68 3.15-7.52 4.57-11.31z" class="fil1"/>
    <path d="M346.98 42.62c.47-1.37.95-2.73 1.47-4.11l.03-.06.06.03 16.57 7.31.52.23-.55-.1-18.05-3.21-.08-.02.03-.07z" class="fil2"/>
    <path d="m365.12 45.79.09.05 4.62.78.01.01h.01l29.57 15.78.06.03-.03.06-59.29 120.95-14.84 24.41v.01c-.75.93-1.45 1.7-2.11 2.3-.65.59-1.26 1-1.81 1.24l-.45.18c-1.02.41-2.38.96-3.98 1.51-1.08.21-2.22.42-3.43.61-1.19.19-2.44.36-3.74.5-6.05.57-13.15.78-21.31.63l-.13-.01.08-.1a36.87 36.87 0 0 0 3.06-4.98c.85-1.69 1.53-3.42 2.03-5.2.08-.29.13-.56.16-.83.03-.27.05-.53.05-.79v-.02l.01-.02 12.05-17.83c7.82-12.91 12.83-21.54 15.06-25.9.54-1.06.92-1.87 1.13-2.42.19-.5.25-.77.18-.82l-35.63 25.34a53.26 53.26 0 0 1-4.71 3.73 61.626 61.626 0 0 1-5.35 3.38c-2.79 1.6-5.3 3.19-7.54 4.77-2.24 1.59-4.21 3.16-5.92 4.74v.01h-.01c-2.56 1.31-5.11 2.74-7.63 4.29-2.55 1.58-5.08 3.27-7.56 5.07h-.01c-4.83 2.81-8.78 5.47-11.85 7.98-3.08 2.52-5.28 4.89-6.59 7.1h-.01v.01c-.35.4-.66.65-.94.71-.29.08-.54-.04-.74-.35-1.6-1.65-3.6-3.02-6.01-4.13-2.4-1.12-5.21-1.97-8.42-2.58-3.85-.71-7.46-1.79-10.82-3.25-3.38-1.46-6.5-3.3-9.35-5.49-.28-.17-.39-.38-.49-.6l-.07-.11.13.01c6.15.21 11.8.1 16.96-.32 5.15-.42 9.81-1.15 13.99-2.2l19.03-16.61v-.01c3.66-3.11 7.14-6.31 10.44-9.59 3.39-3.36 6.58-6.79 9.59-10.28h.01c3.22-3.57 6.18-7.37 8.87-11.37 2.75-4.09 5.22-8.38 7.42-12.87 2.29-5.7 2.33-12.16.11-19.36-2.21-7.18-6.67-15.08-13.41-23.71l-.03-.03.02-.04 3.36-6.35V80.42l.09.03c.95.32 1.91.61 2.86.86.96.25 1.92.46 2.87.61v.01c2.11.63 4.32 1.07 6.67 1.33 2.35.27 4.84.35 7.46.24.69-.05 1.37-.05 2.06-.05 7.3-.37 14.04-1.49 20.23-3.34 6.19-1.85 11.83-4.44 16.92-7.75l.01-.01h.01c1.15-.28 2.18-.71 3.11-1.27.95-.56 1.78-1.26 2.49-2.08 1.84-2.13 3.48-4.45 4.92-6.97 1.44-2.51 2.67-5.22 3.69-8.1v-.01c.82-1.84 1.61-3.72 2.37-5.61.76-1.9 1.5-3.8 2.21-5.69l.02-.06.06.01 18.04 3.21h.01l.01.01z" class="fil2"/>
    <path d="M330.41 63.13c.44-.54.76-1.11.94-1.68l.01-.02.02-.01c.86-.71 1.66-1.57 2.4-2.6.75-1.04 1.45-2.24 2.1-3.63v-.01c.69-1.33 1.26-2.86 1.73-4.56.48-1.71.84-3.6 1.11-5.67l.07-.6.06.6c.11 1.08.12 2.18.06 3.27-.06 1.09-.19 2.19-.37 3.27-.13.96-.39 1.9-.77 2.81-.38.94-.89 1.86-1.51 2.74-.68 1.21-1.39 2.29-2.12 3.23a16.5 16.5 0 0 1-2.26 2.41c-.44.4-.92.78-1.43 1.14-.51.35-1.05.69-1.63.98l-.75.37.68-.49c.66-.47 1.22-1 1.66-1.55zm-53.04 1.92c.16-.32.36-.62.6-.89l.07-.07.04.09c.63 1.18 1.23 2.2 1.8 3.09.57.89 1.12 1.63 1.67 2.26v.01l9.52 13.94.08.1h-.13c-.68 0-1.37 0-2.05.06-2.63.1-5.12.02-7.48-.24-2.36-.26-4.58-.71-6.69-1.34-.95-.16-1.91-.37-2.87-.62-.96-.25-1.92-.54-2.87-.86h-.01c-.15-.08-.33-.14-.52-.21-.18-.06-.37-.13-.53-.21l-.03-.02-.01-.02c-.19-.55-.25-1.16-.18-1.83.07-.63.27-1.31.61-2.01l.02-.05.05.01c3.82.64 6.45.99 7.89 1.07.43.02.75.02.97 0 .18-.02.27-.05.27-.09l-.01-.03.02-.02v-.01c.04-.08-.04-.2-.21-.38-.2-.19-.53-.43-.98-.71-1-.62-2.61-1.46-4.83-2.49l-.07-.03.04-.06c.1-.18.18-.37.23-.58.06-.2.1-.42.13-.65 0-.28.05-.52.15-.76.09-.23.22-.46.38-.7l.03-.05.06.03c2.09.86 3.71 1.45 4.83 1.77 1.07.3 1.68.35 1.81.16.04-.33-.15-.96-.58-1.88-.43-.94-1.1-2.17-1.99-3.69l-.02-.04.02-.03c.1-.18.18-.35.24-.5.05-.16.09-.3.12-.43.11-.4.24-.76.41-1.09z" class="fil2"/>
    <path d="M276.66 67.1c-.48.63-1.27 1.42-2.42 2.26-.79.48-1.37.9-1.74 1.48 4.21 1.73 6.47 2.37 6.73 1.89.11-.68-.79-2.58-2.57-5.63zm-6 7.21c-.74.42-1.47 1.05-2.21 2 6.26 1.05 9.31 1.31 9.21.89.26-.42-1.74-1.68-6.05-3.68-.21.32-.53.58-.95.79zm-4.95 25.88-4.78 8.95c-3.48 6.73-5.63 12.31-6.53 16.72-.52 2.69-2.21 4.53-4.99 5.63L215 143.86c-1.79.68-3.42.68-4.79 0-6.94-2.58-14.25-5-21.93-7.21-1.95-.42-3.58-.21-4.89.52l-13.1 6.9c-.42.15-.74.31-1.16.47-.47.21-1 .42-1.47.63-12.79 5.73-21.52 12.05-26.25 19.1l25.25-.42h19.04c6.79.36 11.47 2.84 14.1 7.36l12.89 16.2c.1.21.21.42.31.58v.05l10.63 16.05 19.04-16.62c7.42-6.32 14.1-13 20.05-19.89 6.52-7.21 11.94-15.36 16.3-24.25 4.58-11.42.21-25.83-13.31-43.14z" class="fil0"/>
    <path d="M213 188.04c.42 1 .32 1.69-.31 2.27l-19.57 14.94c-.53.47-.69.89-.48 1.37 12.31.42 22.62-.43 30.99-2.53L213 188.04z" class="fil1"/>
    <path d="M278.87 197.67c2.73.58 5.41.84 8.15.74 3.95-.11 6.21 1.26 6.73 4.05 0 .16.06.31.06.47l12.04-17.83c11.79-19.47 17.21-29.2 16.31-29.25l-35.67 25.36c-2.94 2.63-6.31 4.99-10.04 7.1-5.58 3.21-10.05 6.36-13.47 9.52 5.1-1.05 10.36-1.05 15.89-.16z" class="fil0"/>
    <path d="M142.3 191.78c.05-4.94 2-10.15 5.89-15.68 3.89-5.52 10.05-9.62 18.47-12.25l-25.25.42c-1.58 4.94-2.32 9.52-2.11 13.78l3 13.73z" class="fil1"/>
    <path fill-rule="nonzero" d="m324.74 208.61.52-.79c-1.47 1.85-2.78 3.06-3.89 3.53-1.05.42-2.58 1.05-4.42 1.68 1.58-.37 3.11-.73 4.47-1.15 1.21-.37 2.37-1.42 3.32-3.27z"/>
    <path d="M369.9 46.55c.07.04.1.14.06.22-.04.07-.14.1-.21.06l-23.04-12.31c-.08-.04-.11-.14-.07-.21.04-.08.14-.11.21-.07l23.05 12.31z" class="fil1"/>
    <path d="M346.89 34.27c.06.05.06.15.01.22a.17.17 0 0 1-.23.01c-.28-.26-.63-.39-1.05-.39-.43 0-.95.14-1.56.41-.08.04-.17.01-.21-.07-.04-.08 0-.17.08-.21.65-.3 1.21-.45 1.69-.45.5 0 .92.16 1.27.48z" class="fil1"/>
    <path d="M343.92 34.24c.08-.04.17-.01.21.07.04.07.01.17-.06.21l-3.37 1.79c-.08.04-.17.01-.21-.07-.04-.07-.01-.17.06-.21l3.37-1.79z" class="fil1"/>
    <path d="M340.55 36.03c.08-.04.17-.01.21.06.04.08.02.18-.06.22-.22.12-.43.28-.65.46-.23.19-.46.42-.67.66l-.01.01a7.2 7.2 0 0 0-.77 1.01c-.25.37-.5.8-.73 1.26 0 .01-.01.03-.02.04-.6.68-1.22 1.15-1.85 1.37-.62.22-1.25.21-1.86-.07l-.01-.01c-.21-.1-.42-.21-.69-.37-.74-.46-1.39-.69-1.97-.67-.56.02-1.06.28-1.5.78-.05.11-.12.2-.18.3-.07.08-.13.17-.18.26v.02c-.36.58-.83.97-1.39 1.17-.57.19-1.23.19-1.99 0-1.34-.34-2.54-.54-3.61-.59-1.07-.06-2.01.02-2.84.22a.16.16 0 0 1-.19-.11c-.02-.09.03-.17.11-.19.86-.22 1.84-.3 2.94-.24 1.09.06 2.31.26 3.66.61.71.17 1.31.17 1.81 0s.9-.52 1.23-1.03c.05-.12.12-.21.19-.31.06-.08.12-.17.17-.26 0-.01.01-.03.02-.04.51-.59 1.08-.88 1.74-.9.64-.02 1.36.22 2.15.71.25.16.46.26.66.36.54.24 1.08.26 1.63.06.57-.2 1.14-.63 1.7-1.27.24-.46.48-.89.74-1.28.26-.4.53-.75.8-1.04v-.01c.22-.25.46-.48.71-.69.23-.2.46-.37.7-.5z" class="fil1"/>
    <path d="M319.67 41.87c.07-.04.17-.01.21.07.04.07.01.17-.06.21l-38.04 20.51c-.08.05-.17.02-.21-.06a.158.158 0 0 1 .06-.21l38.04-20.52z" class="fil1"/>
    <path d="M281.68 62.37c.09-.01.17.05.18.13.01.09-.04.17-.13.18-.8.13-1.5.32-2.1.59-.59.27-1.08.61-1.49 1.04-.23.26-.42.54-.57.85-.16.31-.29.65-.39 1.03-.03.13-.07.29-.13.45-.07.17-.15.35-.26.54 0 .01-.01.02-.02.03-.25.33-.59.72-1.03 1.13-.39.36-.86.75-1.41 1.15l-.02.01c-.38.23-.72.45-1 .68-.28.23-.5.47-.68.74v.01c-.15.23-.28.44-.37.66-.08.21-.13.43-.13.67v.03c-.03.24-.07.47-.13.68-.06.22-.15.43-.26.63l-.01.02c-.11.16-.25.32-.42.46-.17.14-.36.26-.58.37-.36.21-.71.46-1.07.78-.36.32-.72.7-1.08 1.16-.32.68-.51 1.32-.57 1.93-.07.6-.02 1.16.15 1.66.13.07.29.12.45.18h.01c.18.07.37.13.53.22.08.04.11.13.07.21-.04.08-.13.11-.21.07-.15-.08-.32-.14-.5-.2h-.01c-.18-.07-.37-.14-.54-.22a.142.142 0 0 1-.08-.09c-.19-.56-.26-1.19-.19-1.86.07-.65.27-1.33.61-2.04.01-.01.02-.03.03-.04.37-.48.74-.88 1.12-1.21.37-.34.75-.61 1.12-.82l.02-.01c.2-.1.37-.21.52-.34.15-.12.27-.25.36-.39.1-.17.17-.36.23-.55.05-.2.09-.41.12-.64 0-.28.05-.53.15-.78.1-.24.24-.48.4-.72.19-.3.44-.56.74-.81.29-.24.64-.47 1.04-.7.54-.4.99-.78 1.37-1.13.43-.4.76-.77 1-1.09.1-.18.18-.34.23-.48.06-.15.09-.29.12-.41v-.01c.11-.41.25-.78.42-1.11.17-.33.37-.63.62-.91.44-.46.96-.83 1.59-1.11a8.62 8.62 0 0 1 2.18-.62zm-7.36 7.13h-.01.01zm-2.58 4.11-.01.01.01-.01zm56.56-1.06c-.07.04-.17.03-.22-.05-.05-.07-.03-.17.04-.21.71-.48 1.42-.96 2.12-1.47.7-.5 1.39-1.02 2.07-1.56 1.41-1.92 2.66-3.76 3.78-5.55 1.11-1.8 2.08-3.54 2.92-5.25.64-1.41 1.26-2.98 1.87-4.71.59-1.69 1.16-3.53 1.7-5.52.66-2.43 1.48-4.47 2.45-6.1.98-1.65 2.12-2.89 3.4-3.72a.16.16 0 0 1 .22.04c.03.05.03.11.01.15-.52 1.37-1 2.73-1.47 4.09-.03.08-.12.13-.2.1a.155.155 0 0 1-.09-.2c.42-1.21.83-2.42 1.29-3.64-1.08.8-2.04 1.91-2.89 3.34-.96 1.61-1.76 3.62-2.42 6.02-.54 2-1.11 3.85-1.71 5.54-.6 1.75-1.23 3.33-1.87 4.74l-.01.01c-.84 1.71-1.82 3.46-2.94 5.27-1.12 1.8-2.38 3.66-3.8 5.58-.01.02-.02.03-.03.04-.69.55-1.39 1.08-2.09 1.59-.71.5-1.42.99-2.13 1.47zm20.36-33.95c-.01.03-.03.05-.06.07l.06-.07zm16.51 7.46c-.09-.02-.15-.1-.13-.18.01-.09.09-.15.18-.13l4.63.79c.08.01.14.09.13.18-.02.08-.1.14-.18.13l-4.63-.79z" class="fil1"/>
    <path d="M365.11 45.69c.09.02.15.1.13.19-.01.08-.09.14-.18.12l-18.04-3.2c-.09-.02-.15-.1-.13-.19.01-.08.1-.14.18-.12l18.04 3.2zm-36.98 26.59c.07-.04.17-.02.21.05.05.07.03.17-.04.22-5.12 3.32-10.78 5.92-16.98 7.78-6.21 1.85-12.97 2.97-20.29 3.34h-.01c-.68 0-1.37 0-2.04.06h-.02c-2.63.1-5.12.02-7.48-.24-2.36-.27-4.59-.71-6.7-1.35-.95-.15-1.91-.37-2.87-.62-.96-.25-1.93-.54-2.88-.85-.08-.03-.13-.12-.1-.2.03-.08.12-.13.2-.1.94.31 1.9.6 2.86.85.95.25 1.9.46 2.84.61.01.01.02.01.03.01 2.1.63 4.31 1.07 6.65 1.34 2.35.26 4.82.34 7.44.23.7-.05 1.38-.05 2.07-.05 7.29-.37 14.03-1.48 20.21-3.34 6.18-1.85 11.81-4.43 16.9-7.74z" class="fil1"/>
    <path d="M346.9 42.59c.03-.08.12-.13.2-.1.08.03.12.12.09.21-.71 1.9-1.45 3.81-2.21 5.69-.76 1.9-1.55 3.78-2.37 5.62-1.02 2.9-2.26 5.61-3.7 8.13-1.45 2.53-3.1 4.87-4.95 7.01-.73.84-1.58 1.55-2.54 2.13-.95.56-2.01 1-3.17 1.29a.154.154 0 0 1-.19-.12.16.16 0 0 1 .11-.19c1.14-.28 2.17-.7 3.09-1.25.93-.56 1.76-1.25 2.46-2.06 1.84-2.13 3.48-4.45 4.91-6.97 1.44-2.5 2.67-5.2 3.69-8.08v-.01c.82-1.84 1.61-3.72 2.37-5.61.76-1.9 1.5-3.81 2.21-5.69zm-4.58 11.31zm-73.4 26.62c0-.09.07-.16.16-.16s.16.07.16.16v13.31c0 .03-.01.05-.02.08l-3.37 6.36v.01l-4.78 8.93c-.05.08-.14.1-.22.06a.158.158 0 0 1-.06-.21l4.78-8.93.01-.01 3.34-6.33V80.52zm.3 13.39c-.03.04-.08.07-.14.07l.14-.07z" class="fil1"/>
    <path d="M260.79 109.06c.04-.07.13-.1.21-.06.08.04.11.13.07.21-1.73 3.34-3.13 6.4-4.21 9.17-1.09 2.8-1.85 5.3-2.3 7.51-.27 1.37-.84 2.53-1.69 3.49-.85.95-1.99 1.7-3.41 2.26a.155.155 0 0 1-.11-.29c1.37-.55 2.47-1.27 3.29-2.18.81-.92 1.35-2.02 1.61-3.34.45-2.23 1.22-4.75 2.32-7.56 1.08-2.78 2.49-5.85 4.22-9.21z" class="fil1"/>
    <path d="M249.35 131.35a.155.155 0 0 1 .11.29L215.05 144a.155.155 0 0 1-.2-.09.17.17 0 0 1 .1-.2l34.4-12.36z" class="fil1"/>
    <path d="M214.95 143.71a.155.155 0 0 1 .11.29c-.91.35-1.79.53-2.61.53-.82 0-1.59-.18-2.3-.53-3.51-1.3-7.12-2.57-10.83-3.79-3.6-1.18-7.3-2.32-11.08-3.41-.94-.2-1.81-.25-2.59-.17-.81.09-1.54.32-2.19.68-.07.04-.17.02-.21-.06-.04-.07-.02-.17.06-.21.68-.39 1.45-.63 2.3-.72.82-.09 1.72-.04 2.7.17l.01.01c3.78 1.09 7.48 2.23 11.09 3.41 3.71 1.22 7.33 2.49 10.85 3.8.01 0 .02 0 .02.01.67.33 1.39.49 2.17.49s1.62-.17 2.5-.5zm-26.64-7.22z" class="fil1"/>
    <path d="M183.31 137.04c.08-.05.17-.02.21.06.04.08.02.17-.06.21l-13.1 6.9c-.08.04-.17.01-.21-.07a.158.158 0 0 1 .06-.21l13.1-6.89z" class="fil1"/>
    <path d="M170.23 143.92a.155.155 0 0 1 .11.29c-.2.08-.39.16-.57.24-.18.07-.36.15-.58.23-.23.11-.49.21-.74.32-.25.11-.5.21-.73.31-6.38 2.87-11.75 5.87-16.12 9.04-4.35 3.17-7.71 6.5-10.06 10-.05.08-.15.1-.22.05a.16.16 0 0 1-.04-.22c2.37-3.54 5.75-6.9 10.14-10.08 4.38-3.18 9.77-6.2 16.17-9.07.25-.11.49-.22.74-.32s.5-.21.74-.31v-.01c.2-.07.39-.15.58-.23.18-.08.36-.16.58-.24zM166.66 164c-.09 0-.16-.07-.16-.15 0-.09.07-.16.16-.16h19.04c.09 0 .16.07.16.16 0 .08-.07.15-.16.15h-19.04z" class="fil1"/>
    <path d="M185.69 164c-.08 0-.15-.08-.15-.16.01-.09.08-.16.17-.15 3.41.18 6.3.9 8.67 2.14 2.37 1.24 4.22 3.01 5.55 5.3.05.08.02.17-.05.22-.08.04-.17.01-.22-.06-1.3-2.24-3.1-3.97-5.42-5.18-2.33-1.22-5.18-1.92-8.55-2.11z" class="fil1"/>
    <path d="M199.68 171.31c-.06-.07-.05-.17.02-.22.07-.06.17-.04.22.02l12.89 16.21c.05.06.04.16-.03.22-.06.05-.16.04-.22-.03l-12.88-16.2z" class="fil1"/>
    <path d="M212.55 187.48c-.04-.07-.01-.17.07-.21.07-.04.17 0 .21.07.05.12.11.23.15.31.05.09.1.18.15.26.02.02.03.05.03.08v.05c0 .09-.07.16-.16.16-.08 0-.15-.07-.15-.16-.05-.08-.1-.16-.14-.24-.07-.12-.12-.22-.16-.32z" class="fil1"/>
    <path d="M212.86 188.11c-.04-.08 0-.18.08-.21s.17 0 .21.08c.22.53.3.98.25 1.38-.06.4-.26.75-.61 1.06-.06.06-.16.06-.22-.01-.06-.06-.05-.16.01-.22.29-.26.46-.55.5-.88.05-.34-.02-.73-.22-1.2z" class="fil1"/>
    <path d="m212.69 190.31-19.57 14.94m0 0c-.53.47-.69.89-.48 1.37" class="fil4 str0"/>
    <path d="M192.64 206.62c.11.21.21.42.48.57 5.68 4.37 12.41 7.32 20.15 8.74 6.41 1.21 11.25 3.42 14.46 6.73.37.58.9.42 1.58-.37 2.63-4.42 8.79-9.47 18.47-15.1 4.94-3.57 10.04-6.73 15.2-9.36 5.1-1.05 10.36-1.05 15.89-.16 2.73.58 5.41.84 8.15.74 3.95-.11 6.21 1.26 6.73 4.05 0 .16.06.31.06.47 0 .53-.06 1.05-.21 1.63-1 3.58-2.74 6.95-5.11 10.21 8.16.16 15.26-.05 21.31-.63 2.58-.27 5-.69 7.15-1.11 1.58-.37 3.11-.73 4.47-1.15 1.21-.37 2.37-1.42 3.32-3.27m0 0 .52-.79 14.84-24.4 59.29-120.95-29.57-15.78" class="fil4 str0"/>
    <path d="M141.26 164.22c.02-.08.11-.13.19-.1.09.02.13.11.1.19-.78 2.47-1.36 4.84-1.71 7.13-.36 2.28-.49 4.48-.38 6.6 0 .09-.06.16-.15.17-.09 0-.16-.07-.17-.15-.1-2.14.03-4.36.39-6.67.35-2.3.93-4.69 1.73-7.17z" class="fil1"/>
    <path d="M139.15 178.08c-.02-.08.03-.17.12-.18.08-.02.17.03.18.12l3 13.73c.02.08-.03.17-.12.18-.08.02-.17-.03-.18-.12l-3-13.73z" class="fil1"/>
    <path d="M142.46 191.78c0 .09-.08.16-.16.16-.09 0-.16-.07-.16-.16.03-2.49.53-5.05 1.52-7.68.98-2.62 2.45-5.32 4.4-8.09 1.96-2.78 4.49-5.2 7.59-7.26 3.09-2.05 6.74-3.74 10.96-5.05.08-.03.17.02.2.1.02.08-.02.17-.11.2-4.18 1.3-7.81 2.98-10.87 5.01-3.07 2.04-5.57 4.43-7.51 7.18-1.94 2.76-3.39 5.43-4.37 8.02-.97 2.6-1.47 5.12-1.49 7.57z" class="fil1"/>
    <path d="M166.65 163.69c.09 0 .16.07.16.15 0 .09-.06.16-.15.16l-25.25.42c-.09.01-.16-.06-.16-.15s.07-.16.15-.16l25.25-.42z" class="fil1"/>
    <path d="M192.64 206.62c12.31.42 22.62-.43 30.99-2.53m0 0L213 188.04" class="fil4 str0"/>
    <path d="M346.41 44.32c.53-1.15 1.32-1.63 2.37-1.42l7.31 1.32c-2.37-1.05-5.05-2-7.94-2.79.31-1 .37-2 .37-2.89-2.06 1.52-3.63 3.57-4.63 6.21l-2.21 7.15c-.69 2.84-1.74 5.47-3.16 7.89l-5.84 9.26c.05.95.21 2 .32 2.95l5.68-9.11 2.26-3.68c.37 1.05.69 2.11 1 3.16 1.11 4.05 2.05 8.31 2.68 12.73.48 2.26.42 6.05-.15 11.36-.11 9.68-3.06 18.47-8.95 26.52-1.73 1.47-3.36 2.42-4.89 2.73l-10.78 2.58c-3.74 1.05-7.42 1.05-11.1 0l-1-.26c-1.58-.48-2.9-1.58-4.05-3.48-1.21-2.05-1-3.78.63-5.15l10.26-6.47c.78-.58 1.63-.79 2.52-.69l12.21 2c.99.16 1.52.11 1.63-.37l2.52-13.41c.11-.58.26-1.21.32-1.89l-3.37 13.46-6.52-12.62 4.68 12.52c.21.68-.05.95-.84.84-11.63-1.84-19.2-3.84-22.57-5.94l-14.57-14c-1.9-2.15-3.11-4.42-3.58-6.94-.05-.53 0-1.32.26-2.37 0-.42.16-1 .53-1.68.52-1 1-1.48 1.37-1.32 1.73.63 3.26.95 4.47.95l5.73.37c1.79.1 3-.16 3.63-.9 2.63-3.21 5.11-7.15 7.42-11.83 11.05.36 16.73.36 17.1 0 .47-.42.89-1.06 1.36-1.9.64-1 .64-2 0-3.1l-4.52-9.63v3.58L319 40.69c-2.05-2.52-5.57-3.99-10.46-4.41 3.89.78 7.57 3.1 11.04 6.94 1.27 1.42 2.58 3.1 3.79 4.94.42.74.74 1.48.95 2.27.05.15.1.31.16.47.57 1.84.89 3.58.94 5.1-.05.95-.94 1.37-2.68 1.37l-3.68.11-10.05.42-6.31 11.89c-.74 1.1-1.84 1.68-3.32 1.63-3.57 0-6.31-.37-8.2-.9-.64-.26-1.16-.52-1.64-.89-.63-.42-1.05-.48-1.36-.16-1.32 1.42-2.26 2.89-2.79 4.31-.79-1.05-1.58-2.36-2.42-4.05-.68-1.15-.74-2.47-.05-3.94 3.73-6.58 11.46-11.31 23.3-14.15-10.89-.9-19.67 2.21-26.35 9.41l.36 3.79c.69 4.52 1.79 7.58 3.42 9.21 1.42 1.73 2.32 3.47 2.69 5.2.78 1.37 1.89 2.74 3.42 4.32-6.21.47-13.26-.53-21.05-2.79-.89 3.95-1.15 6.94-.73 9.15.47 2.21 1.05 4.53 1.73 7 .37 1.58.84 2.53 1.48 2.89.89.42 1.89.58 3.05.32 1.31-.32 2.21-1.05 2.78-2.05l.48 8.57c.05 1.79-.84 2.69-2.79 2.69h-2.95c-1.63.26-2.78 1.68-3.47 4.31-1.16 4.26-3.31 8.52-6.36 12.78-3.69 5-5.79 8.63-6.11 10.79 3.21 3.57 7.63 6.63 13.16 9.2 1.47.53 4.15-.73 7.99-3.84l18.52-13.2c2.89-2.11 3.84-4.68 2.79-7.79-.37-1.15-.27-2.47.42-4l1.16-2.94 6.1 7.78h4.47L344.2 163l59.24-44.4-28.67-54.5c-6.53 6-11.94 10.47-16.21 13.21-6.62 4.31-10.52 4.68-11.62 1.1l-3.11-17.67-.57-3.53c-.27-2.84-.21-4.73.21-5.63l2.05-4.99.89-2.27zm-56.65 40.41c1.15 0 1.94.36 2.31 1.05.16.37 0 .95-.58 1.68l-3.79 4.53c-.89 1.1-.68 2.05.58 2.73l12.58 6.95-19.26-7.69c-1.37-.57-2.31-.47-3 .22l-2.94 3.68c-.27.31-.53.52-.79.73-.48.27-1.05.42-1.69.42-.68 0-1.21-.21-1.57-.63-.37-.31-.58-.68-.74-1.21l-1.26-4.99c-.74-3.32-.69-6.68.05-10.1 1.16.36 2.31.63 3.52.89 1.11.26 2.21.53 3.37.68.11 0 .16 0 .21.06 4.16.73 8.52 1.05 13 1zm-10.11 11.78c.74-.32 1.9-.16 3.42.53 0 .05.11.05.11.05 1.58.74 2 1.79 1.21 3.05-.79 1.37-1 2.31-.58 2.84.84.84 3.68 2.21 8.58 4.16-.64 1.15-1.48 1.52-2.48 1.15l-9.26-4.2-1.57-.74c-1.06-.47-1.32-2.05-.9-4.68.11-.84.63-1.58 1.47-2.16zm9.89 28.2c-4.78-1.32-8.31-3-10.52-5-.73-.63-.73-1.53.06-2.68l1.21-1.48c.47-.47 1.1-.47 1.73 0 2.79 3.21 6.05 5.68 9.79 7.53 1.15.47 1.42.84.89 1.05-1 .73-2.1.89-3.16.58zm-6.52-9.74c-.58-.78-.63-1.05-.1-.84 3.05 2.74 6.47 4.95 10.25 6.53 1 .63 1.16 1.1.48 1.42-.48.26-1 .21-1.58 0-3.58-1.37-6.63-3.74-9.05-7.11zm-24.67 22.78c-.95-.73-.9-1.89.1-3.47l7.74-11.94c1.63-2.74 3.1-5.89 4.36-9.47-.42 10.73 6.37 16.15 20.31 16.1l-19.41 14.25c-1.79 1.32-3.63 1.37-5.63.16l-7.47-5.63zm76.49-16.57 19.46 25.04h-22.2l-18.41-23.09c-.26-.42.05-.69.9-.84l20.25-1.11zm-38.98-7.63c1.31-.52 1.63 0 .89 1.69-1.16 3.36-2.21 4.89-3 4.63-3.63-1.27-6.84-3.37-9.73-6.32 5 1.16 8.94 1.16 11.84 0z" class="fil1"/>
    <path d="M292.07 85.78c-.37-.69-1.16-1.05-2.31-1.05-4.48.05-8.84-.27-13-1-.05-.06-.1-.06-.21-.06-.89.53-1.47 1.27-1.68 2.27-.53 4.05-.53 8.26 0 12.67.26-.21.52-.42.79-.73l2.94-3.68c.69-.69 1.63-.79 3-.22l19.26 7.69-12.58-6.95c-1.26-.68-1.47-1.63-.58-2.73l3.79-4.53c.58-.73.74-1.31.58-1.68z" class="fil5"/>
    <path d="M273.18 82.99c-1.21-.26-2.36-.53-3.52-.89-.74 3.42-.79 6.78-.05 10.1l1.26 4.99c.16.53.37.9.74 1.21l-.11-.47c-.53-4.37-.53-8.57 0-12.68.21-1 .74-1.73 1.68-2.26z" class="fil6"/>
    <path d="M273.18 82.99c-.94.53-1.47 1.26-1.68 2.26-.53 4.11-.53 8.31 0 12.68l.11.47c.36.42.89.63 1.57.63.64 0 1.21-.15 1.69-.42-.53-4.41-.53-8.62 0-12.67.21-1 .79-1.74 1.68-2.27-1.16-.15-2.26-.42-3.37-.68z" class="fil7"/>
    <path d="M283.07 97.04c-1.52-.69-2.68-.85-3.42-.53-.84.58-1.36 1.32-1.47 2.16-.42 2.63-.16 4.21.9 4.68l1.57.74c-.1-3.42.74-5.79 2.42-7.05z" class="fil5"/>
    <path d="M283.18 97.09s-.11 0-.11-.05c-1.68 1.26-2.52 3.63-2.42 7.05l9.26 4.2c1 .37 1.84 0 2.48-1.15-4.9-1.95-7.74-3.32-8.58-4.16-.42-.53-.21-1.47.58-2.84.79-1.26.37-2.31-1.21-3.05z" class="fil7"/>
    <path d="M279.02 119.71c2.21 2 5.74 3.68 10.52 5 1.06.31 2.16.15 3.16-.58.53-.21.26-.58-.89-1.05-3.74-1.85-7-4.32-9.79-7.53-.63-.47-1.26-.47-1.73 0l-1.21 1.48c-.79 1.15-.79 2.05-.06 2.68z" class="fil5"/>
    <path d="M282.92 114.13c-.53-.21-.48.06.1.84 2.42 3.37 5.47 5.74 9.05 7.11.58.21 1.1.26 1.58 0 .68-.32.52-.79-.48-1.42-3.78-1.58-7.2-3.79-10.25-6.53zm-24.47 20.15c-1 1.58-1.05 2.74-.1 3.47l7.47 5.63c2 1.21 3.84 1.16 5.63-.16l19.41-14.25c-13.94.05-20.73-5.37-20.31-16.1-1.26 3.58-2.73 6.73-4.36 9.47l-7.74 11.94zm5.27-2.37 4.26-6.41c1-1.32 2.15-1.16 3.36.57l2.11 2.79c.94 1.58 1.15 3.37.58 5.26-1 2.42-3.27 3.9-6.9 4.42-1.31.21-2.52-.26-3.52-1.37-1-1.57-.95-3.36.11-5.26z" class="fil5"/>
    <path d="m267.98 125.5-4.26 6.41c-1.06 1.9-1.11 3.69-.11 5.26 1 1.11 2.21 1.58 3.52 1.37 3.63-.52 5.9-2 6.9-4.42.57-1.89.36-3.68-.58-5.26l-2.11-2.79c-1.21-1.73-2.36-1.89-3.36-.57z" class="fil8"/>
    <path d="m354.3 146.22-19.46-25.04-20.25 1.11c-.85.15-1.16.42-.9.84l18.41 23.09h22.2zm-31.09-21.09c1.11-.74 2.11-.74 3 0l7 7.2-3.74 3.58-6.26-7.31c-1.21-1.53-1.21-2.68 0-3.47z" class="fil5"/>
    <path d="M326.21 125.13c-.89-.74-1.89-.74-3 0-1.21.79-1.21 1.94 0 3.47l6.26 7.31 3.74-3.58-7-7.2z" class="fil8"/>
    <path d="M296.75 115.24c.74-1.69.42-2.21-.89-1.69-2.9 1.16-6.84 1.16-11.84 0 2.89 2.95 6.1 5.05 9.73 6.32.79.26 1.84-1.27 3-4.63zm-6.05.16c1.37-.58 2.63-.58 3.9 0l1.21.57c-.22.74-.64 1.27-1.21 1.53-1.53.21-2.9-.11-4.16-.84-.58-.48-.53-.9.26-1.26z" class="fil5"/>
    <path d="M294.6 115.4c-1.27-.58-2.53-.58-3.9 0-.79.36-.84.78-.26 1.26 1.26.73 2.63 1.05 4.16.84.57-.26.99-.79 1.21-1.53l-1.21-.57z" class="fil8"/>
    <path d="M348.78 42.9c-1.05-.21-1.84.27-2.37 1.42l-.89 2.27c5.94-1.06 11.94-.48 18.04 1.79-2.15-1.58-4.63-3-7.47-4.16l-7.31-1.32zm-40.03-1.78c.26 1.63.84 2.84 1.68 3.63 1.95 2.26 3.37 3.52 4.16 3.84 2.05 1.05 3.78 1.05 5.26 0 1.1-1 1.05-2.79-.27-5.37-3.47-3.84-7.15-6.16-11.04-6.94-1.32-.11-2.74-.11-4.27-.11-1.31 0-2.57.05-3.73.16 3.21.52 5.63 1.31 7.26 2.37.63.63.95 1.42.95 2.42z" class="fil9"/>
    <path d="M310.43 44.75c-.84-.79-1.42-2-1.68-3.63 0-1-.32-1.79-.95-2.42-1.63-1.06-4.05-1.85-7.26-2.37-5.68.42-9.94 1.63-12.78 3.58-.27.26-.53.63-.79.89 1.05 2.68 3.94 3.95 8.84 3.79 3.99-.11 8.04.94 12.2 3.21 4.94 1.94 8.73 3.99 11.42 6.15 1.47 1.16 2.57 1.16 3.31 0 .79-.95 1.31-2.1 1.58-3.52-.21-.79-.53-1.53-.95-2.27a42.615 42.615 0 0 0-3.79-4.94c1.32 2.58 1.37 4.37.27 5.37-1.48 1.05-3.21 1.05-5.26 0-.79-.32-2.21-1.58-4.16-3.84z" class="fil6"/>
    <path d="M326.84 44.32c-.21-.63-1.05-.89-2.47-.78v.94l4.52 9.63c.64 1.1.64 2.1 0 3.1-.47.84-.89 1.48-1.36 1.9-.37.36-6.05.36-17.1 0l2.47 3.78 13.26-.52c1.37-.21 2.42-.95 3.1-2.16l.53 10.73c.1.37.31.69.42 1 .32.79.58 1.58.74 2.42-1.37 4.16-2.63 7.37-3.84 9.68.15.79.57 1.37 1.21 1.58 1.42-2 2.52-4.47 3.36-7.36 1 3.31 1.27 6.78.84 10.31l-2.1 13.46 3.37-13.46c0-.06 0-.16.05-.16.32-2.68.26-5.95-.11-9.73-.21-2.27-.47-4.48-.73-6.68-.11-.95-.27-2-.32-2.95-.68-5.31-1.47-10.52-2.26-15.62l-3.58-9.11z" class="fil9"/>
    <path d="M324.32 50.43c-.27 1.42-.79 2.57-1.58 3.52-.74 1.16-1.84 1.16-3.31 0-2.69-2.16-6.48-4.21-11.42-6.15-4.16-2.27-8.21-3.32-12.2-3.21-4.9.16-7.79-1.11-8.84-3.79-.79.89-1.48 1.84-2.11 2.74 1 2.68 3.95 3.94 8.79 3.84 4.05-.16 8.1.89 12.26 3.15 4.89 1.95 9.25 4.26 13.15 6.95l3.68-.11c1.74 0 2.63-.42 2.68-1.37-.05-1.52-.37-3.26-.94-5.1-.06-.16-.11-.32-.16-.47zm3.84 17.73c.63.89 1.16 1.84 1.63 2.78l-.53-10.73c-.68 1.21-1.73 1.95-3.1 2.16l-13.26.52 8.52 19.89c.74-.84 1.48-1.95 2.27-3.37 1.42-2.68 2.89-6.42 4.47-11.25z" class="fil7"/>
    <path d="M329.79 70.94c-.47-.94-1-1.89-1.63-2.78-1.58 4.83-3.05 8.57-4.47 11.25.26 1.63.79 3 1.47 4.16 2.31-3.74 4-7.58 5.05-11.63-.11-.31-.32-.63-.42-1z" class="fil1"/>
    <path d="M305.91 50.53c-4.16-2.26-8.21-3.31-12.26-3.15-4.84.1-7.79-1.16-8.79-3.84-2.57 3.57-4.21 7.31-5.05 11.2-.21 1.89-.21 3.79 0 5.58l.06.73c6.68-7.2 15.46-10.31 26.35-9.41-11.84 2.84-19.57 7.57-23.3 14.15-.69 1.47-.63 2.79.05 3.94.84 1.69 1.63 3 2.42 4.05.53-1.42 1.47-2.89 2.79-4.31.31-.32.73-.26 1.36.16.48.37 1 .63 1.64.89 1.89.53 4.63.9 8.2.9 1.48.05 2.58-.53 3.32-1.63l6.31-11.89 10.05-.42c-3.9-2.69-8.26-5-13.15-6.95z" class="fil5"/>
    <path d="M310.43 59.11c-2.31 4.68-4.79 8.62-7.42 11.83-.63.74-1.84 1-3.63.9l-5.73-.37c-1.21 0-2.74-.32-4.47-.95-.37-.16-.85.32-1.37 1.32-.37.68-.53 1.26-.53 1.68.06.37.27.58.74.68l2.95 1.06c3.41.89 8.04.94 13.78.26.89-.16 3.63-4.37 8.15-12.63l-2.47-3.78z" class="fil7"/>
    <path d="m290.6 82.83 14.57 14c3.37 2.1 10.94 4.1 22.57 5.94.79.11 1.05-.16.84-.84l-4.68-12.52c-.48-.74-.48-1.21 0-1.47.94-.48 1.89-1.58 2.84-3.27.1-.21.21-.42.37-.63 1.21-2.31 2.47-5.52 3.84-9.68-.16-.84-.42-1.63-.74-2.42-1.05 4.05-2.74 7.89-5.05 11.63-.68-1.16-1.21-2.53-1.47-4.16-.79 1.42-1.53 2.53-2.27 3.37l-8.52-19.89c-4.52 8.26-7.26 12.47-8.15 12.63-5.74.68-10.37.63-13.78-.26l-2.95-1.06c-.47-.1-.68-.31-.74-.68-.26 1.05-.31 1.84-.26 2.37.47 2.52 1.68 4.79 3.58 6.94zm3.1-3c.26-1.1.79-1.68 1.58-1.68 1.58-.05 3.1.11 4.58.53 2.78.63 5.1.52 6.89-.27 2.63-.42 4.36.11 5.15 1.58l2.16 3.84c1 0 2 0 3.05-.05.74 1.1 1.26 2.31 1.47 3.63-5.05.31-9.78-.05-14.15-1.11-.37.16-.37.64 0 1.42 4 1.64 9.1 2.42 15.36 2.42h1.11c-.37 0-.74 0-1.11.06 3.11 2.84 4.48 5.05 4.16 6.78-.32.69-1.11 1.21-2.47 1.58-1.95.26-4.05.26-6.32 0-1.42-.37-2.89-.84-4.26-1.47-2.36-1.16-3.78-2.53-4.21-4.26-.42-2.05-1.84-3.47-4.2-4.26-6.53-2.53-9.47-5.42-8.79-8.74z" class="fil5"/>
    <path d="M295.28 78.15c-.79 0-1.32.58-1.58 1.68-.68 3.32 2.26 6.21 8.79 8.74 2.36.79 3.78 2.21 4.2 4.26.43 1.73 1.85 3.1 4.21 4.26 1.37.63 2.84 1.1 4.26 1.47 2.27.26 4.37.26 6.32 0 1.36-.37 2.15-.89 2.47-1.58.32-1.73-1.05-3.94-4.16-6.78-5.73.26-10.99-.32-15.67-1.79a42.87 42.87 0 0 0-4.26-6.47c4.73 1.21 9.46 1.89 14.2 1.89l-2.16-3.84c-.79-1.47-2.52-2-5.15-1.58-1.79.79-4.11.9-6.89.27-1.48-.42-3-.58-4.58-.53z" class="fil8"/>
    <path d="M304.43 87.72c-.37-.78-.37-1.26 0-1.42 4.37 1.06 9.1 1.42 14.15 1.11-.21-1.32-.73-2.53-1.47-3.63-1.05.05-2.05.05-3.05.05-4.74 0-9.47-.68-14.2-1.89 1.68 2.1 3.1 4.31 4.26 6.47 4.68 1.47 9.94 2.05 15.67 1.79v-.06c-6.26 0-11.36-.78-15.36-2.42z" class="fil1"/>
    <path d="M327.11 84.04c-.16.21-.27.42-.37.63-.95 1.69-1.9 2.79-2.84 3.27-.48.26-.48.73 0 1.47l6.52 12.62 2.1-13.46c.43-3.53.16-7-.84-10.31-.84 2.89-1.94 5.36-3.36 7.36-.64-.21-1.06-.79-1.21-1.58z" class="fil7"/>
    <path d="m374.77 64.1-1.9-3.57c-1.73-4.84-4.84-8.89-9.31-12.15-6.1-2.27-12.1-2.85-18.04-1.79l-2.05 4.99c-.42.9-.48 2.79-.21 5.63l.57 3.53 4.53-5.21c1.42-1.37 2.58-1.32 3.63.1l6.57 21.68c4.27-2.74 9.68-7.21 16.21-13.21z" class="fil6"/>
    <path d="M351.99 55.63c-1.05-1.42-2.21-1.47-3.63-.1l-4.53 5.21 3.11 17.67c1.1 3.58 5 3.21 11.62-1.1l-6.57-21.68zm-10.05 6.74c-1.1.84-2.21 1-3.26.52L333 72c.26 2.2.52 4.41.73 6.68.37 3.78.43 7.05.11 9.73-.05 0-.05.1-.05.16-.06.68-.21 1.31-.32 1.89l-2.52 13.41c-.11.48-.64.53-1.63.37l-12.21-2c-.89-.1-1.74.11-2.52.69l-10.26 6.47c-1.63 1.37-1.84 3.1-.63 5.15 1.15 1.9 2.47 3 4.05 3.48l1 .26c3.68 1.05 7.36 1.05 11.1 0l10.78-2.58c1.53-.31 3.16-1.26 4.89-2.73 5.89-8.05 8.84-16.84 8.95-26.52.57-5.31.63-9.1.15-11.36-.63-4.42-1.57-8.68-2.68-12.73zm-7.57 45.35c.73 1.57.73 3.1-.06 4.52-1.42 1.58-4.47 2.79-9.2 3.68-4.21.63-8.16.84-11.84.58-2.89-.42-4.21-1.79-3.89-4.1.21-1.42.73-2.42 1.58-3.11 2.31-1.84 5.31-2.63 8.99-2.26 2.89.37 5.89-.05 8.89-1.16 2.79-1 4.63-.36 5.53 1.85z" class="fil5"/>
    <path d="M334.31 112.24c.79-1.42.79-2.95.06-4.52-.9-2.21-2.74-2.85-5.53-1.85-3 1.11-6 1.53-8.89 1.16-3.68-.37-6.68.42-8.99 2.26-.85.69-1.37 1.69-1.58 3.11-.32 2.31 1 3.68 3.89 4.1 3.68.26 7.63.05 11.84-.58 4.73-.89 7.78-2.1 9.2-3.68z" class="fil8"/>
    <path d="M338.68 62.89c1.05.48 2.16.32 3.26-.52-.31-1.05-.63-2.11-1-3.16l-2.26 3.68z" class="fil7"/>
    <path d="M254.88 142.75c-.48.47-.48 1.05 0 1.79 1.79 1.1 4.1 2 6.89 2.74l5.42.52-10.79-6.26-1.52 1.21z" class="fil8"/>
    <path d="M254.88 144.54c-.48-.74-.48-1.32 0-1.79l1.52-1.21 10.79 6.26 1.79.21v-1.58c-5.53-2.57-9.95-5.63-13.16-9.2-5.47 1.26-8.89 2.57-10.36 3.94 0 .06-.1.11-.1.11-1.37 1.47-2.16 2.89-2.27 4.31-.21 2.21-.1 4.32.27 6.31.21.9 1.21 1.95 2.99 3.21l4.42 3.48.48.36c.16.16.63.27 1.21.27.26-.11.47-.16.52-.27.79-1.05 0-2.89-2.57-5.63a4.41 4.41 0 0 1-.74-.63c-2.16-.21-3.26-1.1-3.37-2.57-.16-3.32.58-6.16 2.32-8.58.89.37 1.47.9 1.89 1.63.11.11.11.26.21.42.69 1.32 1.42 2.26 2.21 2.79l8.84.9c-2.79-.74-5.1-1.64-6.89-2.74z" class="fil5"/>
    <path d="M250.51 143.17c-.42-.73-1-1.26-1.89-1.63-1.74 2.42-2.48 5.26-2.32 8.58.11 1.47 1.21 2.36 3.37 2.57-.26-.26-.53-.58-.63-.79-.27-.47-.32-.78-.16-1.05 1.42-1.47 2.1-3.05 2.21-4.68.05-1.05-.11-1.84-.37-2.58-.1-.16-.1-.31-.21-.42z" class="fil8"/>
    <path d="M251.09 146.17c-.11 1.63-.79 3.21-2.21 4.68-.16.27-.11.58.16 1.05 4.05-.05 6.15.79 6.42 2.42-.06-.47 0-.94.1-1.42.16-.79.58-1.26 1.32-1.47 1.52-.42 2.63-.21 3.21.58.63.74 1.15 1.63 1.52 2.73l.16-1.84c.16-.94.84-1.42 2.21-1.36.95.1 1.63.42 2 .84.42-.69 1.05-.95 2-.74 1.31.53 2.15 1.68 2.47 3.63l8.1-.84c-.32-.37-.53-.84-.68-1.32-.16-.42-.21-.94-.21-1.47 0-1 .26-1.95.78-2.73l-9.46-.9-1.79-.21-5.42-.52-8.84-.9-1.84-.21zm3.58 4.21-.63-2.11 22.72 2.16v1.58l-22.09-1.63z" class="fil5"/>
    <path d="m254.04 148.27.63 2.11 22.09 1.63v-1.58z" class="fil10"/>
    <path d="M252.93 146.38c-.79-.53-1.52-1.47-2.21-2.79.26.74.42 1.53.37 2.58l1.84.21z" class="fil1"/>
    <path d="M282.39 146.91c-1.31 0-2.47.42-3.37 1.36-.21.21-.42.43-.58.64-.52.78-.78 1.73-.78 2.73 0 .53.05 1.05.21 1.47 2.68-3.2 5.68-3.2 9.04 0 .11-.42.21-.94.21-1.47 0-1.31-.47-2.47-1.42-3.37-.89-.94-1.99-1.36-3.31-1.36z" class="fil8"/>
    <path d="M240.31 123.6h-3.16v12.26c1.05-.74 2.1-3.31 3.16-7.79v-4.47z" class="fil7"/>
    <path d="M232.15 147.49v11.1l.69 2.84v-10l.05-9.99-.74 3.2z" class="fil1"/>
    <path d="M232.15 150.33v-2.84l-213.21 1.52-11.05.9-7.73 1.99 18.25 4.21 213.74 2.48v-5.27h-209l-4.32-1.57 4.58-1.42z" class="fil10"/>
    <path d="M232.15 147.49v-2.85l-213.58 2.53-10.68 2.74 11.05-.9z" class="fil9"/>
    <path d="M240.31 128.07c-1.06 4.48-2.11 7.05-3.16 7.79V123.6l-4.26 17.84-.05 9.99h7.47v-23.36z" class="fil8"/>
    <path d="m243.09 145.59-2.78-.42v13.15l6.04-.58v-2.63c-1.78-1.26-2.78-2.31-2.99-3.21-.37-1.99-.48-4.1-.27-6.31zm3.26 11.05v1.1c.06 2.79.43 5.21 1.16 7.32.63 1.15 1.63 1.78 2.9 1.94 1.26 0 2.57-.47 3.84-1.37.52-1.89.84-3.89 1.05-5.99-.63 0-1.37-.06-2.32-.21-.05-.06-.26-.11-.52-.21-.58 0-1.05-.11-1.21-.27l-.48-.36c-1.63-.37-3.1-1.06-4.42-1.95z" class="fil5"/>
    <path d="M246.35 155.11v1.53c1.32.89 2.79 1.58 4.42 1.95l-4.42-3.48z" class="fil8"/>
    <path d="M240.31 158.32v-6.89h-7.47v10l4.57 18.46h2.9zm45.39-3.36c.53-.53.95-1.16 1.21-1.85-3.36-3.2-6.36-3.2-9.04 0 .15.48.36.95.68 1.32.11.16.26.37.47.53.9.94 2.06 1.42 3.37 1.42 1.32 0 2.42-.48 3.31-1.42z" class="fil5"/>
    <path d="M268.29 153.59c.69-.05 1.26.94 1.79 2.84.16-.21.32-.37.42-.53l-.05-.63c-.32-1.95-1.16-3.1-2.47-3.63-.95-.21-1.58.05-2 .74.26.47.42 1 .58 1.58.47-.21 1.1-.37 1.73-.37z" class="fil7"/>
    <path d="M270.08 156.43c-.53-1.9-1.1-2.89-1.79-2.84-.63 0-1.26.16-1.73.37.36 1.15.63 2.26.78 3.42.06.21.06.42.11.63 1.16-.42 2.05-1 2.63-1.58z" class="fil8"/>
    <path d="M270.5 155.9c-.1.16-.26.32-.42.53-.58.58-1.47 1.16-2.63 1.58.11 1 .11 1.94.11 2.94 1.99-.73 3.05-1.84 3.05-3.31l-.11-1.74z" class="fil5"/>
    <path d="M263.98 154.69c.63-.16 1.16.11 1.47.79.37.74.63 1.63.9 2.68.36-.26.68-.47.99-.78-.15-1.16-.42-2.27-.78-3.42-.16-.58-.32-1.11-.58-1.58-.37-.42-1.05-.74-2-.84-1.37-.06-2.05.42-2.21 1.36l-.16 1.84c.05.32.11.64.16.9.79-.47 1.52-.79 2.21-.95z" class="fil7"/>
    <path d="M265.45 155.48c-.31-.68-.84-.95-1.47-.79-.69.16-1.42.48-2.21.95.16 1.16.26 2.37.26 3.58v.42c1.74-.32 3.16-.79 4.32-1.48-.27-1.05-.53-1.94-.9-2.68z" class="fil8"/>
    <path d="M261.77 155.64c-.05-.26-.11-.58-.16-.9-.37-1.1-.89-1.99-1.52-2.73-.58-.79-1.69-1-3.21-.58-.74.21-1.16.68-1.32 1.47-.1.48-.16.95-.1 1.42v1.69c1.63-.16 3.05-.16 4.26 0 .84.31 1.36 1.47 1.63 3.47.26-.11.42-.16.68-.26 0-1.21-.1-2.42-.26-3.58z" class="fil7"/>
    <path d="M262.03 159.22c-.26.1-.42.15-.68.26-1.84.63-3.9.63-6.05.16-.21 2.1-.53 4.1-1.05 5.99.79 1 1.73 1.48 2.94 1.48 1.53-.11 2.9-.9 4.32-2.37.36-1.68.52-3.42.52-5.1v-.42z" class="fil5"/>
    <path d="M267.56 160.95c0-1 0-1.94-.11-2.94-.05-.21-.05-.42-.11-.63-.31.31-.63.52-.99.78-1.16.69-2.58 1.16-4.32 1.48 0 1.68-.16 3.42-.52 5.1 1.31.95 2.68.89 3.99-.16 1.32-1.05 2-2.26 2.06-3.63z" class="fil5"/>
    <path d="M261.35 159.48c-.27-2-.79-3.16-1.63-3.47-1.21-.16-2.63-.16-4.26 0 0 1.26-.06 2.42-.16 3.63 2.15.47 4.21.47 6.05-.16z" class="fil8"/>
    <path d="M253.14 156.01h2.32v-1.69c-.27-1.63-2.37-2.47-6.42-2.42 1.58 1.32 2.63 2.27 3.15 2.9.53.63.79 1.05.95 1.21z" class="fil7"/>
    <path d="M255.46 156.01h-2.32c.47.79.63 1.52.47 2.21-.1.63-.31 1.1-.63 1.21.95.15 1.69.21 2.32.21.1-1.21.16-2.37.16-3.63z" class="fil8"/>
    <path d="M252.19 154.8c-.52-.63-1.57-1.58-3.15-2.9.1.21.37.53.63.79.21.21.42.42.74.63 2.57 2.74 3.36 4.58 2.57 5.63-.05.11-.26.16-.52.27.26.1.47.15.52.21.32-.11.53-.58.63-1.21.16-.69 0-1.42-.47-2.21-.16-.16-.42-.58-.95-1.21z" class="fil1"/>
    <path d="M232.15 153.32v-2.99H23.41l-4.58 1.42 4.32 1.57z" class="fil7"/>
    <path d="M308.55 36.12c.08.01.15.08.14.17 0 .08-.08.15-.17.14-.66-.05-1.34-.08-2.04-.09-.68-.01-1.43-.01-2.21-.01-.66 0-1.3.01-1.92.04-.62.02-1.22.06-1.8.11-2.82.21-5.29.62-7.4 1.21-2.12.59-3.88 1.37-5.29 2.34-.13.13-.25.27-.38.42-.13.16-.27.32-.4.46-.39.44-.75.89-1.1 1.35-.35.46-.68.92-.99 1.37h-.01a31.82 31.82 0 0 0-3.15 5.45 28.89 28.89 0 0 0-1.86 5.69c-.11.93-.16 1.87-.16 2.8 0 .93.05 1.84.16 2.73.01.09-.05.16-.14.17-.09.01-.16-.05-.17-.14-.11-.9-.16-1.82-.16-2.76 0-.94.05-1.89.16-2.84v-.02c.42-1.96 1.04-3.88 1.88-5.75.84-1.88 1.9-3.71 3.19-5.51v-.01c.32-.45.65-.91 1-1.37.35-.46.72-.92 1.12-1.37l.01-.01c.12-.13.25-.28.38-.44.14-.16.27-.33.4-.46h.01s.01-.01.02-.01c1.44-.99 3.24-1.79 5.39-2.39 2.14-.6 4.63-1.01 7.47-1.22.58-.05 1.18-.09 1.81-.12.63-.02 1.28-.04 1.93-.04.75 0 1.48 0 2.22.02.71.01 1.4.04 2.06.09zm-23.57 7.51c-.05.07-.14.08-.21.03l.21-.03z" class="fil1"/>
    <path d="M279.66 60.33c-.01-.09.05-.16.14-.17.09-.01.16.06.17.15l.05.73c.01.09-.06.16-.14.17a.153.153 0 0 1-.17-.15l-.05-.73zm36.41 41.9c-.08-.01-.14-.09-.13-.18.02-.08.1-.14.18-.13l13.22 2.17c.09.01.14.09.13.18-.01.08-.09.14-.18.13l-13.22-2.17z" class="fil1"/>
    <path d="M329.29 104.4c-.08-.02-.14-.1-.13-.18.01-.09.09-.15.18-.13.48.07.85.1 1.1.05.2-.04.32-.13.35-.3.02-.08.11-.14.19-.12.08.02.14.1.12.19-.07.3-.27.47-.6.54-.29.06-.69.03-1.21-.05z" class="fil1"/>
    <path d="M331.1 103.9c-.02.09-.1.15-.18.13a.163.163 0 0 1-.13-.18l2.53-13.42c.01-.08.09-.14.18-.12.09.01.14.09.13.18l-2.53 13.41z" class="fil1"/>
    <path d="M333.63 90.49a.16.16 0 0 1-.19.12.146.146 0 0 1-.12-.18c.02-.15.06-.31.09-.47.09-.44.18-.9.22-1.4 0-.07 0-.18.06-.25.15-1.32.22-2.77.2-4.35-.02-1.62-.13-3.38-.31-5.27-.21-2.24-.47-4.45-.74-6.66v-.02c-.03-.27-.07-.57-.1-.87-.09-.7-.18-1.41-.21-2.08-.34-2.63-.71-5.26-1.1-7.88-.38-2.66-.78-5.22-1.16-7.73-.02-.09.04-.17.13-.18.08-.01.16.05.18.13.4 2.59.79 5.19 1.17 7.74.38 2.58.74 5.21 1.09 7.88v.02c.04.65.12 1.37.21 2.06.03.29.07.57.1.87v.01l.01.01V72c.26 2.19.52 4.38.73 6.65v.01c.18 1.9.29 3.67.31 5.29.02 1.63-.05 3.12-.2 4.47-.01.04-.03.08-.06.11v.05c-.04.51-.13.99-.22 1.44-.03.16-.07.31-.09.47zm-.79-18.48c-.01-.09.05-.16.14-.17l-.14.17zm0-2.99v.01-.01z" class="fil1"/>
    <path d="M330.57 53.37c.03.08-.01.17-.09.2a.17.17 0 0 1-.21-.09l-3.57-9.1c-.04-.08 0-.17.09-.2.08-.03.17.01.2.09l3.58 9.1z" class="fil1"/>
    <path d="M326.99 44.28c.03.08-.02.17-.1.19a.153.153 0 0 1-.2-.1c-.08-.26-.31-.45-.67-.57-.4-.12-.95-.16-1.64-.11-.09.01-.16-.06-.17-.14 0-.09.06-.17.15-.17.73-.06 1.32-.01 1.75.13.46.14.76.4.88.77z" class="fil1"/>
    <path d="M324.21 43.54c0-.09.07-.16.16-.16s.16.07.16.16v.94c0 .09-.07.16-.16.16s-.16-.07-.16-.16v-.94z" class="fil1"/>
    <path d="M324.21 44.48c0-.08.07-.16.16-.16s.16.08.16.16v3.58c0 .09-.07.16-.16.16-.06 0-.11-.03-.13-.08l-5.36-7.35c-.05-.07-.04-.17.03-.22.07-.05.17-.04.22.03l5.08 6.98v-3.1z" class="fil1"/>
    <path d="M319.13 40.6c.05.06.04.16-.03.22-.06.05-.16.04-.22-.03-1-1.24-2.37-2.22-4.09-2.94-1.74-.74-3.83-1.21-6.27-1.42-.08 0-.15-.08-.14-.17.01-.08.08-.15.17-.14 2.47.21 4.59.69 6.36 1.44 1.77.74 3.18 1.76 4.22 3.04zm11.23 31.29c.03.09-.02.17-.1.2s-.17-.02-.2-.1c-.04-.13-.11-.27-.18-.41-.09-.18-.18-.37-.24-.58-.23-.47-.48-.93-.74-1.39l-.01-.01c-.21-.37-.44-.74-.68-1.1-.76 2.3-1.49 4.35-2.2 6.15-.75 1.88-1.47 3.49-2.18 4.84-.04.07-.14.1-.22.06a.158.158 0 0 1-.06-.21c.71-1.34 1.43-2.94 2.17-4.81.74-1.86 1.5-4 2.29-6.42.01-.03.03-.06.06-.08.07-.05.17-.04.22.03.31.45.6.91.87 1.38l.01.01c.27.46.52.94.75 1.41.01.01.02.03.02.04.06.19.14.37.23.55.07.15.14.29.19.44zm-20.07-12.85c.04-.08.13-.11.21-.07.08.03.11.13.07.21-1.16 2.34-2.36 4.5-3.6 6.48a52.009 52.009 0 0 1-3.84 5.38v.01c-.34.39-.82.66-1.46.81-.62.15-1.39.19-2.3.13-.08 0-.15-.07-.14-.16 0-.09.07-.15.16-.15.88.05 1.62.01 2.2-.13.58-.13 1.01-.37 1.3-.71 1.31-1.6 2.59-3.38 3.82-5.35 1.23-1.96 2.42-4.11 3.58-6.45z" class="fil1"/>
    <path d="M299.39 71.68c.09.01.15.08.15.17-.01.08-.08.15-.17.14l-5.73-.36a.165.165 0 0 1-.15-.17c.01-.09.08-.15.17-.15l5.73.37z" class="fil1"/>
    <path d="M293.65 71.31c.09 0 .16.07.16.16s-.07.16-.16.16c-1.23 0-2.77-.32-4.53-.96-.12-.05-.27.01-.45.18-.22.21-.46.57-.72 1.06v.01c-.18.31-.3.61-.38.87-.09.28-.13.53-.13.73 0 .09-.07.16-.16.16-.08 0-.15-.07-.15-.16 0-.23.04-.51.14-.82.09-.29.22-.6.4-.93v-.01c.27-.51.54-.9.78-1.13.28-.27.54-.36.79-.25 1.71.62 3.22.93 4.41.93zm36.41.69c-.03-.08.01-.17.09-.2.08-.04.17 0 .21.08.16.4.3.8.43 1.21.12.4.23.82.31 1.24.01.03 0 .06 0 .08-.69 2.08-1.35 3.93-1.99 5.54-.64 1.61-1.26 3-1.87 4.16 0 .01 0 .02-.01.03-.07.09-.13.19-.19.29-.06.11-.11.21-.16.31l-.01.01c-.47.85-.95 1.56-1.43 2.11-.49.56-.98.97-1.47 1.21-.18.1-.27.24-.27.42 0 .22.11.49.33.83.05.08.02.17-.05.22-.07.05-.17.03-.22-.05-.25-.39-.38-.72-.38-1 0-.3.15-.53.44-.69l.01-.01c.45-.22.91-.6 1.37-1.13.46-.54.93-1.23 1.4-2.06.05-.11.11-.22.16-.32.06-.1.13-.21.21-.32.6-1.15 1.22-2.52 1.85-4.13.63-1.59 1.29-3.42 1.96-5.48-.07-.4-.17-.79-.29-1.17-.13-.4-.27-.79-.43-1.18zm-6.24 15.8z" class="fil1"/>
    <path d="M323.75 89.46a.155.155 0 0 1 .29-.11l4.69 12.52c.03.08-.02.18-.1.21s-.17-.02-.2-.1l-4.68-12.52z" class="fil1"/>
    <path d="M328.43 101.97c-.03-.08.02-.17.1-.19.09-.03.17.02.2.1.12.4.1.69-.09.88-.18.17-.48.22-.92.17l-.01-.01c-5.82-.92-10.62-1.88-14.39-2.87-3.78-1-6.54-2.03-8.23-3.09a.152.152 0 0 1-.05-.22c.04-.07.14-.09.21-.05 1.67 1.05 4.4 2.07 8.15 3.06 3.77.99 8.56 1.95 14.36 2.86.34.05.56.02.66-.08.09-.09.1-.27.01-.56zm-.72.95a.155.155 0 0 1-.13-.17l.13.17zm0 .01v-.01.01z" class="fil1"/>
    <path d="M305.28 96.71c.06.06.06.16 0 .22-.06.07-.16.07-.22.01l-14.57-13.99a.17.17 0 0 1-.01-.23c.06-.06.16-.06.23 0l14.57 13.99z" class="fil1"/>
    <path d="M290.72 82.73c.05.06.05.16-.02.22-.06.06-.16.05-.22-.01-.96-1.09-1.74-2.21-2.34-3.37-.61-1.16-1.04-2.37-1.27-3.65-.01-.01-.01-.02-.01-.03-.03-.29-.02-.65.03-1.09.04-.38.12-.82.24-1.32a.16.16 0 0 1 .19-.11c.06.01.11.07.12.13.02.15.07.26.16.35.1.09.25.16.45.2.09.02.14.1.12.19-.02.08-.1.14-.18.12-.27-.06-.47-.15-.6-.28l-.06-.06c-.06.3-.1.57-.13.82-.05.41-.05.76-.02 1.02.23 1.25.64 2.43 1.24 3.57.59 1.14 1.36 2.23 2.3 3.3z" class="fil1"/>
    <path d="M287.97 74.35a.153.153 0 0 1-.1-.2c.03-.08.12-.12.2-.09l2.95 1.05c.08.03.12.12.09.2a.17.17 0 0 1-.2.1l-2.94-1.06z" class="fil1"/>
    <path d="M290.93 75.41a.158.158 0 0 1-.12-.19c.03-.09.11-.14.19-.12 1.7.45 3.7.68 5.99.72 2.29.04 4.87-.11 7.73-.46.41-.07 1.29-1.15 2.63-3.23 1.36-2.11 3.17-5.21 5.41-9.31.05-.08.14-.1.22-.06.07.04.1.13.06.21-2.25 4.11-4.06 7.22-5.42 9.33-1.39 2.15-2.34 3.27-2.84 3.37l-.01.01c-2.88.34-5.47.5-7.78.46-2.32-.04-4.34-.28-6.06-.73zm13.85.26zm25.28-3.77a.16.16 0 0 1 .19-.11c.08.02.13.11.11.19-.53 2.04-1.21 4.02-2.06 5.96-.84 1.94-1.85 3.84-3.01 5.71-.04.07-.14.1-.21.05-.03-.01-.04-.03-.06-.05-.34-.59-.65-1.23-.9-1.93-.26-.7-.46-1.46-.59-2.28-.01-.09.05-.17.13-.18.09-.02.17.04.18.13.13.8.33 1.54.57 2.22.22.6.47 1.14.75 1.65 1.1-1.79 2.05-3.6 2.85-5.45.84-1.92 1.52-3.89 2.05-5.91z" class="fil1"/>
    <path d="M323.55 79.34c.04-.08.14-.11.21-.06.08.04.11.13.06.21-.39.71-.78 1.35-1.15 1.91-.38.57-.76 1.06-1.13 1.48-.05.07-.15.07-.22.02-.06-.06-.07-.16-.01-.22.36-.42.72-.9 1.1-1.45.37-.56.75-1.19 1.14-1.89z" class="fil1"/>
    <path d="M321.57 82.72c.03.08 0 .17-.08.2-.08.04-.18 0-.21-.08l-8.52-19.88c-.04-.08 0-.18.08-.21s.17 0 .21.08l8.52 19.89z" class="fil1"/>
    <path d="M313.03 62.81c.05.07.03.17-.04.22a.17.17 0 0 1-.22-.05l-2.47-3.79c-.05-.07-.03-.17.04-.21.08-.05.17-.03.22.04l2.47 3.79zm61.88 1.22c.04.08.01.17-.07.21-.08.04-.17.01-.21-.06l-1.9-3.58a.153.153 0 0 1 .07-.21c.08-.04.17-.01.21.06l1.9 3.58z" class="fil1"/>
    <path d="M373.02 60.47c.03.09-.01.18-.09.2-.09.03-.18-.01-.2-.09a24.81 24.81 0 0 0-3.61-6.63c-1.54-2.01-3.43-3.83-5.65-5.45-1.07-.78-2.23-1.53-3.46-2.22-1.24-.7-2.56-1.34-3.98-1.92-.08-.03-.12-.12-.08-.2.03-.08.12-.12.2-.09 1.43.58 2.76 1.23 4.01 1.93s2.41 1.46 3.49 2.25c2.25 1.64 4.16 3.48 5.72 5.51a24.69 24.69 0 0 1 3.65 6.71zm-93.31.6c-.01-.09.05-.16.14-.17.09-.01.16.05.17.14l.37 3.79c.01.08-.06.16-.14.17-.09.01-.16-.06-.17-.14l-.37-3.79z" class="fil1"/>
    <path d="M280.08 64.86c-.01-.08.04-.16.13-.17.09-.02.17.04.18.13.34 2.25.78 4.13 1.35 5.65.55 1.52 1.23 2.67 2.02 3.47l.01.01c1.43 1.74 2.34 3.5 2.71 5.25.39.67.86 1.34 1.41 2.04.56.7 1.22 1.43 1.98 2.22.06.06.06.16-.01.22-.02.03-.06.04-.09.05-3.12.23-6.44.1-9.97-.37-3.47-.47-7.13-1.27-10.97-2.38-.42 1.89-.7 3.57-.82 5.04-.13 1.5-.09 2.79.12 3.88.24 1.11.5 2.24.79 3.4.29 1.16.6 2.35.94 3.59h.01c.18.78.38 1.4.62 1.87.23.45.48.76.77.93.43.2.89.34 1.37.39.49.06 1.01.03 1.57-.09h.01c.61-.15 1.13-.39 1.56-.71.46-.34.83-.77 1.12-1.27.04-.08.14-.1.21-.06.08.05.1.14.06.22-.31.53-.71.99-1.2 1.36-.47.34-1.02.6-1.68.76h-.01c-.6.14-1.15.17-1.68.1-.52-.06-1-.2-1.46-.42-.01 0-.02-.01-.02-.01-.35-.2-.64-.55-.9-1.06-.25-.49-.46-1.13-.65-1.93-.34-1.24-.66-2.43-.95-3.6-.29-1.17-.55-2.3-.79-3.4v-.01c-.21-1.12-.25-2.43-.13-3.96.13-1.53.42-3.27.87-5.25v-.01c.03-.09.11-.13.2-.11 3.88 1.13 7.58 1.94 11.09 2.41 3.37.46 6.56.6 9.56.4a31.99 31.99 0 0 1-1.76-2.01c-.57-.71-1.05-1.4-1.44-2.09-.02-.01-.02-.03-.03-.05-.36-1.71-1.24-3.42-2.65-5.14-.82-.83-1.52-2.02-2.09-3.57-.57-1.54-1.02-3.44-1.36-5.72zM268.13 89.9zm-.31.07z" class="fil1"/>
    <path d="M276.87 98.1c-.01-.09.06-.16.15-.17.08 0 .16.06.16.15l.47 8.57c.01.09-.06.17-.14.17-.09 0-.16-.06-.17-.15l-.47-8.57z" class="fil1"/>
    <path d="M277.34 106.67c0-.09.07-.16.15-.16.09-.01.16.06.16.15.03.94-.19 1.65-.69 2.13-.49.47-1.23.71-2.25.71-.09 0-.16-.07-.16-.15 0-.09.07-.16.16-.16.93 0 1.6-.21 2.03-.63.43-.41.63-1.04.6-1.89z" class="fil1"/>
    <path d="M274.71 109.19c.09 0 .16.07.16.16 0 .08-.07.15-.16.15h-2.95c-.08 0-.15-.07-.15-.15 0-.09.07-.16.15-.16h2.95z" class="fil1"/>
    <path d="M271.74 109.19c.08-.01.17.05.18.13.01.09-.05.17-.13.18-.78.13-1.44.53-1.99 1.21-.57.7-1.02 1.7-1.36 2.99-.58 2.14-1.41 4.28-2.48 6.42-1.07 2.14-2.38 4.28-3.91 6.41v.01c-1.84 2.49-3.28 4.64-4.3 6.44-1.02 1.78-1.62 3.21-1.77 4.27-.01.09-.09.15-.18.13-.08-.01-.14-.09-.13-.18.16-1.09.77-2.56 1.81-4.38 1.02-1.8 2.47-3.96 4.31-6.46l.01-.01c1.52-2.12 2.82-4.25 3.88-6.37s1.88-4.24 2.46-6.36c.35-1.34.82-2.37 1.41-3.1.6-.75 1.33-1.19 2.19-1.33zm-20.89 34.32c.05.07.03.16-.04.21a.16.16 0 0 1-.22-.04c-.06-.09-.09-.17-.12-.25v-.01c-.02-.05-.04-.11-.07-.14a.138.138 0 0 1-.03-.04c-.2-.35-.44-.65-.73-.9-.3-.26-.65-.48-1.08-.65a.17.17 0 0 1-.09-.21c.03-.08.13-.12.21-.08.46.19.84.42 1.16.7.32.28.58.6.8.97.06.08.1.16.13.25v.01c.02.06.04.12.08.18zm-1.68 8.32c.05.07.02.17-.06.21-.07.04-.17.02-.21-.06a2.03 2.03 0 0 1-.25-.66c-.04-.21 0-.38.1-.55 0-.01.01-.02.02-.03.68-.7 1.19-1.44 1.54-2.19.37-.78.57-1.58.62-2.39.01-.09.08-.15.17-.15.09.01.15.08.15.17a7.12 7.12 0 0 1-.65 2.51c-.37.77-.89 1.53-1.59 2.26-.06.09-.07.2-.05.33.02.15.09.33.21.55z" class="fil1"/>
    <path d="M253.02 146.25a.158.158 0 1 1-.18.26c-.4-.27-.79-.64-1.17-1.12v-.01c-.38-.47-.74-1.05-1.09-1.71a.164.164 0 0 1 .07-.22c.08-.04.17-.01.21.07.34.65.69 1.21 1.05 1.67l.01.01c.35.45.72.8 1.1 1.05z" class="fil1"/>
    <path d="M251.25 146.18c-.01.08-.08.15-.17.15a.173.173 0 0 1-.15-.17c.03-.51 0-.96-.06-1.37-.06-.41-.17-.78-.3-1.14-.03-.09.02-.18.1-.21.08-.02.17.02.2.1.13.37.24.77.31 1.2.07.43.09.9.07 1.44z" class="fil1"/>
    <path d="M252.95 146.22c.08.01.15.09.14.18-.01.08-.09.15-.18.14l-1.84-.21a.167.167 0 0 1-.14-.18c.01-.08.09-.15.18-.14l1.84.21z" class="fil1"/>
    <path d="M268.99 147.86c.09.01.15.08.14.17-.01.09-.09.15-.17.14l-1.79-.21h-.01l-5.41-.53-8.83-.89a.172.172 0 0 1-.15-.17c.01-.09.09-.15.18-.15l8.83.9 5.41.52h.01l1.79.22z" class="fil1"/>
    <path d="M269.13 148.01c0 .09-.07.16-.15.16-.09 0-.16-.07-.16-.16v-1.58c0-.08.07-.15.16-.15.08 0 .15.07.15.15v1.58z" class="fil1"/>
    <path d="M278.46 148.75c.09.01.15.08.14.17-.01.09-.08.15-.17.14l-9.47-.89a.156.156 0 0 1-.14-.17c.01-.09.08-.15.17-.14l9.47.89zm-46.31-4.26c.09 0 .16.07.16.15 0 .09-.07.16-.16.16l-213.56 2.53-10.66 2.73-7.11 1.84 17.61 4.06 213.72 2.47c.09 0 .16.07.16.16 0 .08-.07.15-.16.15l-213.73-2.47h-.04L.12 152.06c-.05-.02-.1-.06-.11-.12-.03-.08.02-.17.11-.19l7.73-2 10.67-2.73c.02 0 .03-.01.05-.01l213.58-2.52zm8.31.68c0 .09-.07.16-.15.16-.09 0-.16-.07-.16-.16v-21.41h-2.88l-4.23 17.71c-.02.09-.1.14-.19.12a.16.16 0 0 1-.11-.19l4.25-17.82c.01-.08.08-.14.16-.14h3.16c.08 0 .15.08.15.16v21.57z" class="fil1"/>
    <path d="M232.31 150.33c0 .08-.07.15-.16.15s-.16-.07-.16-.15v-5.69c0-.08.07-.15.16-.15s.16.07.16.15v5.69zm23.48-13.26c.08-.02.17.04.19.12a.16.16 0 0 1-.12.19c-2.73.63-4.94 1.27-6.66 1.93-1.68.64-2.88 1.29-3.61 1.95-.03.07-.1.12-.13.14-.67.72-1.2 1.43-1.57 2.13-.37.7-.59 1.39-.64 2.07-.01.09-.08.15-.17.15-.08-.01-.15-.08-.14-.17.05-.73.28-1.46.67-2.2.39-.73.94-1.46 1.63-2.21.01-.01.03-.02.05-.03 0 0 .01.08.01.03l-.01-.03.01.03c0-.04.02-.08.05-.11.76-.7 2-1.38 3.74-2.05 1.73-.66 3.96-1.3 6.7-1.94z" class="fil1"/>
    <path d="M243.12 145.44c.08.01.14.09.13.17a.16.16 0 0 1-.18.14l-2.79-.42c-.08-.02-.14-.1-.13-.18.01-.09.09-.15.18-.13l2.79.42zm-10.39-4.04c.02-.08.11-.14.19-.12.09.02.14.11.12.19l-.74 3.21c-.01.08-.1.14-.18.12a.158.158 0 0 1-.12-.19l.73-3.21zm13.78 16.34c0 .09-.07.16-.16.16-.08 0-.15-.07-.15-.16v-1.1c0-.09.07-.16.15-.16.09 0 .16.07.16.16v1.1z" class="fil1"/>
    <path d="M240.32 158.48c-.09.01-.16-.06-.17-.14-.01-.09.05-.17.14-.17l6.05-.58c.09-.01.16.05.17.14.01.09-.05.16-.14.17l-6.05.58zm6.19-1.84c0 .09-.07.16-.16.16-.08 0-.15-.07-.15-.16v-1.53c0-.08.07-.15.15-.15.09 0 .16.07.16.15v1.53z" class="fil1"/>
    <path d="M246.45 154.98c.07.05.08.15.03.22s-.14.09-.22.04c-.9-.64-1.6-1.22-2.11-1.76-.52-.55-.84-1.07-.95-1.54v-.02c-.19-1.02-.31-2.06-.35-3.13-.04-1.05-.02-2.12.09-3.21.01-.09.08-.15.17-.14.08 0 .15.08.14.17-.1 1.08-.13 2.13-.09 3.16.05 1.06.16 2.09.35 3.1.1.42.39.88.87 1.39.49.53 1.18 1.1 2.07 1.72zm-6.3-9.81c0-.09.07-.16.16-.16.08 0 .15.07.15.16v13.15c0 .09-.07.16-.15.16-.09 0-.16-.07-.16-.16v-13.15zM232 158.62a.16.16 0 0 1 .11-.19c.09-.02.17.03.19.12l.69 2.84c.02.08-.03.17-.12.19a.158.158 0 0 1-.19-.12l-.68-2.84z" class="fil1"/>
    <path d="M232.31 158.59c0 .08-.07.15-.16.15s-.16-.07-.16-.15v-5.27c0-.08.07-.15.16-.15s.16.07.16.15v5.27zm.68 2.84c0 .08-.07.15-.15.15-.09 0-.16-.07-.16-.15v-10.01l.05-9.98c0-.09.07-.16.16-.16.08 0 .15.07.15.16l-.05 9.98v10.01z" class="fil1"/>
    <path d="M232.68 161.46c-.02-.08.03-.17.12-.19.08-.02.17.03.19.12l4.54 18.34h2.62v-21.41c0-.08.07-.16.16-.16.08 0 .15.08.15.16v21.57c0 .09-.07.16-.15.16h-2.9a.16.16 0 0 1-.15-.12l-4.58-18.47zm37.69-5.64c.05-.08.15-.1.22-.05s.09.15.04.22c-.06.09-.14.18-.22.28-.06.08-.14.16-.2.25l-.02.02c-.31.31-.71.62-1.18.9-.44.27-.94.51-1.51.71a.155.155 0 0 1-.2-.09c-.03-.08.02-.17.1-.2.54-.2 1.03-.43 1.45-.68.45-.27.82-.57 1.11-.86.08-.09.15-.18.21-.25.08-.09.15-.18.2-.25zm.09-.39c-.08.01-.16-.06-.17-.14-.01-.09.06-.17.14-.18l8.1-.84c.09-.01.17.06.18.14 0 .09-.06.17-.14.18l-8.11.84z" class="fil1"/>
    <path d="M270.66 155.89c.01.09-.06.16-.15.17-.08.01-.16-.06-.17-.14l-.05-.64c0-.08.06-.16.15-.17.08 0 .16.06.17.15l.05.63zm-3.05 5.21a.155.155 0 0 1-.2-.09c-.03-.08.01-.18.09-.2.98-.37 1.73-.82 2.23-1.36.47-.52.72-1.12.72-1.81 0-.09.07-.16.16-.16.08 0 .15.07.15.16 0 .77-.27 1.45-.8 2.03-.53.57-1.32 1.05-2.35 1.43z" class="fil1"/>
    <path d="M270.76 157.63c.01.09-.06.16-.14.17-.09 0-.17-.07-.17-.15l-.11-1.74c0-.08.07-.16.15-.16.09-.01.16.06.17.14l.1 1.74zm-3.26-.28c.01.09-.05.17-.13.18-.09.01-.17-.05-.18-.13-.08-.58-.18-1.14-.31-1.7l-.01-.01c-.13-.56-.28-1.12-.46-1.69h-.01c-.07-.29-.15-.56-.24-.82-.09-.26-.19-.5-.32-.73-.04-.07-.01-.17.06-.21.08-.04.17-.01.21.06.14.25.25.51.34.78.1.26.18.54.26.83.18.58.34 1.15.47 1.71v.01c.13.57.24 1.14.32 1.72zm-.63-1.66c-.01-.08.04-.16.12-.18l-.12.18z" class="fil1"/>
    <path d="M266.1 152.27c.05.07.05.17-.02.23-.06.05-.16.05-.22-.02-.17-.2-.43-.37-.75-.51-.32-.13-.7-.23-1.14-.28-.65-.02-1.13.08-1.47.29-.32.2-.51.52-.58.95-.01.09-.09.14-.18.13-.08-.02-.14-.1-.13-.18.09-.52.32-.91.73-1.17.38-.24.92-.36 1.64-.33h.02c.47.05.89.16 1.23.3.37.16.66.36.87.59zm-2.12-.89z" class="fil1"/>
    <path d="M261.61 152.89c.01-.09.08-.15.17-.14.09 0 .15.08.15.17l-.16 1.84c-.01.08-.09.15-.17.14a.165.165 0 0 1-.15-.17l.16-1.84zm8.99 2.36c.02.08-.04.16-.13.18-.08.01-.16-.05-.18-.13-.15-.95-.43-1.71-.83-2.29-.4-.57-.91-.97-1.53-1.22-.44-.09-.8-.08-1.1.03-.29.11-.53.33-.72.64-.04.07-.14.1-.22.05-.07-.04-.09-.14-.05-.21.23-.38.52-.63.88-.77s.78-.15 1.28-.04c.01 0 .02 0 .03.01.69.27 1.25.71 1.69 1.33.42.62.72 1.42.88 2.42z" class="fil1"/>
    <path d="M262.19 159.22c0 .08-.07.15-.16.15s-.16-.07-.16-.15c0-.61-.02-1.21-.07-1.8-.04-.6-.11-1.18-.19-1.75-.02-.13-.05-.28-.08-.43v-.01c-.02-.13-.05-.3-.07-.46-.02-.08.04-.17.12-.18.09-.01.17.04.19.13.02.15.04.29.07.46.03.15.06.29.08.43v.01c.08.58.15 1.18.2 1.78.04.6.07 1.21.07 1.82z" class="fil1"/>
    <path d="M261.76 154.7c.03.08-.02.17-.1.19a.153.153 0 0 1-.2-.1c-.18-.54-.4-1.03-.65-1.47-.25-.45-.53-.85-.84-1.21l-.01-.01c-.27-.36-.66-.59-1.16-.68-.51-.09-1.14-.04-1.88.16-.34.1-.6.25-.8.47-.2.23-.33.52-.4.88l-.01.02c-.05.22-.08.45-.1.68-.02.22-.02.45 0 .68a.156.156 0 1 1-.31.03c-.03-.25-.03-.49-.01-.74.02-.24.06-.47.11-.72l.01-.01c.08-.42.24-.76.47-1.02.24-.27.56-.46.95-.57.79-.22 1.47-.27 2.03-.17.58.11 1.03.38 1.35.8.32.38.61.79.87 1.25.26.46.49.97.68 1.54zm.21 4.37c.08-.03.18.01.21.09s-.01.17-.09.2c-.13.05-.24.09-.35.14-.1.03-.2.07-.33.13h-.01c-.91.31-1.88.47-2.88.5-1.05.03-2.14-.09-3.26-.34-.08-.02-.13-.1-.12-.19.02-.08.11-.13.19-.12 1.09.24 2.16.36 3.18.33.97-.02 1.9-.18 2.79-.48.11-.05.22-.09.33-.13.11-.04.21-.08.34-.13z" class="fil1"/>
    <path d="M262.19 159.64c0 .08-.07.15-.16.15s-.16-.07-.16-.15v-.42c0-.09.07-.16.16-.16s.16.07.16.16v.42zm5.52 1.31c0 .09-.07.16-.15.16-.09 0-.16-.07-.16-.16 0-.99 0-1.94-.11-2.93 0-.08.06-.16.14-.17.09-.01.17.05.18.14.1 1.01.1 1.96.1 2.96z" class="fil1"/>
    <path d="M267.23 157.26c.06-.06.16-.06.23 0 .06.06.06.16 0 .23-.29.28-.57.48-.88.7l-.14.1-.01.01c-.59.35-1.25.64-1.97.89-.73.24-1.52.44-2.4.6a.146.146 0 0 1-.18-.12.16.16 0 0 1 .12-.19c.86-.15 1.64-.35 2.36-.59.7-.24 1.33-.52 1.9-.86l.14-.09c.3-.22.57-.41.83-.68z" class="fil1"/>
    <path d="M267.6 157.97a.16.16 0 0 1-.11.19.154.154 0 0 1-.19-.12 1.91 1.91 0 0 1-.06-.33c-.01-.1-.02-.2-.05-.3-.02-.08.03-.17.12-.19.08-.02.17.03.19.12.03.11.04.22.05.33.02.1.03.2.05.3zm-12.3-3.65c0-.08.07-.15.16-.15.08 0 .15.07.15.15v1.69c0 .63-.01 1.23-.04 1.84-.02.61-.06 1.2-.11 1.8a.16.16 0 0 1-.18.14c-.08 0-.15-.08-.14-.17.05-.61.09-1.2.12-1.78.03-.59.04-1.2.04-1.83v-1.69zm-2.78 5.04c-.08.03-.18 0-.21-.09-.03-.08.01-.17.09-.2.05-.02.11-.04.17-.07.15-.05.26-.09.27-.12.01-.01.02-.02.02-.03.36-.48.35-1.14-.05-2.02-.41-.91-1.24-2.04-2.51-3.38a4.45 4.45 0 0 1-.74-.65c-.14-.13-.28-.29-.4-.44-.11-.14-.21-.27-.26-.39-.04-.07-.01-.17.07-.21.08-.03.17 0 .21.07.04.09.12.21.22.33.11.14.24.29.38.42.21.21.41.41.71.61l.03.03c1.3 1.38 2.15 2.54 2.58 3.49.44.98.44 1.75.02 2.32-.07.13-.23.19-.44.27-.05.02-.09.03-.16.06z" class="fil1"/>
    <path d="M252.46 159.06c.08 0 .15.07.15.16 0 .08-.07.15-.15.15-.3 0-.58-.02-.8-.07-.24-.05-.42-.13-.52-.24a.141.141 0 0 1 0-.22c.06-.06.16-.06.22 0s.19.11.37.15c.2.04.45.07.73.07z" class="fil1"/>
    <path d="M251.34 158.83c.07.05.08.15.03.22s-.15.08-.22.03l-.47-.37c-.07-.05-.08-.15-.03-.22s.15-.08.22-.03l.47.37zm3.96.65c.09 0 .16.07.16.16 0 .08-.07.15-.16.15-.32 0-.67-.01-1.05-.04h-.01c-.38-.04-.8-.09-1.28-.17-.04 0-.07-.02-.09-.04a.748.748 0 0 0-.19-.07c-.08-.03-.18-.07-.28-.11a.155.155 0 0 1-.09-.2c.03-.08.13-.12.21-.09.1.04.19.07.26.1.12.04.2.07.27.11.45.07.85.12 1.22.15.38.04.72.05 1.03.05zm.31-5.18c.01.09-.04.17-.13.18-.08.01-.17-.05-.18-.13-.12-.76-.69-1.34-1.71-1.73-1.05-.39-2.56-.58-4.55-.56-.09 0-.16-.07-.16-.15 0-.09.07-.16.16-.16 2.03-.03 3.58.17 4.66.58 1.14.43 1.77 1.09 1.91 1.97zm-9.41 3.45c0-.09.07-.16.15-.16.09 0 .16.06.16.15.03 1.39.13 2.68.32 3.89.19 1.2.46 2.32.83 3.36.29.54.68.96 1.13 1.27.47.31 1.01.51 1.63.58.6 0 1.23-.11 1.85-.33.63-.23 1.27-.56 1.89-1 .07-.05.16-.04.21.03.05.07.04.17-.03.22-.65.46-1.31.81-1.97 1.04-.66.24-1.32.36-1.96.36h-.02c-.67-.08-1.26-.29-1.78-.64-.49-.33-.91-.8-1.23-1.39l-.02-.02c-.37-1.06-.65-2.2-.84-3.43-.19-1.22-.3-2.53-.32-3.93z" class="fil1"/>
    <path d="M254.12 165.73a.16.16 0 0 1 .03-.22c.07-.05.17-.04.22.03.38.48.8.83 1.26 1.07.46.23.98.34 1.56.34.74-.05 1.44-.27 2.12-.65.7-.39 1.38-.94 2.08-1.67.06-.06.16-.06.22 0 .07.06.07.16.01.22-.72.75-1.43 1.32-2.16 1.72-.72.41-1.47.64-2.25.69h-.02c-.63 0-1.19-.12-1.7-.37-.51-.26-.96-.64-1.37-1.16zm3.09 1.53h-.01.01z" class="fil1"/>
    <path d="M261.41 164.87c-.07-.05-.08-.15-.03-.22a.16.16 0 0 1 .22-.04c.63.46 1.26.67 1.9.64.64-.02 1.28-.29 1.91-.79 1.27-1.02 1.94-2.19 1.99-3.51 0-.09.07-.16.16-.15.09 0 .16.07.15.16-.05 1.41-.76 2.66-2.11 3.74-.68.55-1.38.84-2.09.87-.7.03-1.41-.21-2.1-.7zm-7.01.81a.17.17 0 0 1-.2.11.17.17 0 0 1-.11-.2c.27-.94.48-1.91.65-2.9.17-1 .3-2.02.4-3.07.01-.08.09-.15.17-.14.09.01.15.09.14.17-.1 1.06-.23 2.09-.4 3.09-.18 1-.39 1.98-.65 2.94z" class="fil1"/>
    <path d="M261.66 164.77c-.02.09-.1.14-.19.12-.08-.01-.14-.1-.12-.18.18-.82.31-1.64.39-2.46.09-.87.13-1.75.13-2.61 0-.09.07-.16.16-.16s.16.07.16.16c0 .87-.04 1.75-.13 2.64-.09.84-.22 1.67-.4 2.49zm-10.85-6.34c.08.02.14.11.12.19-.02.08-.11.14-.19.12-.81-.18-1.57-.44-2.3-.76-.76-.34-1.49-.75-2.17-1.21a.16.16 0 0 1-.04-.22c.04-.07.14-.09.21-.04.67.45 1.38.85 2.13 1.18.71.31 1.46.57 2.24.74z" class="fil1"/>
    <path d="M246.26 155.24c-.07-.06-.08-.16-.03-.22.05-.07.15-.08.22-.03l4.42 3.47c.07.06.08.15.03.22a.16.16 0 0 1-.22.03l-4.42-3.47zm-13.95-1.92c0 .09-.07.16-.16.16s-.16-.07-.16-.16v-2.99c0-.09.07-.16.16-.16s.16.07.16.16v2.99zm102.52-32.29c.09-.01.16.06.17.14 0 .09-.07.16-.15.17l-20.26 1.1c-.08.01-.16-.06-.16-.15-.01-.08.06-.16.15-.16l20.25-1.1z" class="fil1"/>
    <path d="M314.56 122.13c.08-.01.16.04.18.13a.15.15 0 0 1-.13.18c-.39.07-.65.17-.78.28v.01c-.09.07-.09.18-.01.32.05.07.03.17-.05.21-.07.05-.17.03-.21-.05-.18-.28-.16-.52.06-.72.17-.16.49-.27.94-.36z" class="fil1"/>
    <path d="M313.57 123.23a.157.157 0 0 1 .02-.22c.07-.06.17-.05.22.02l18.37 23.04h21.8l-19.27-24.79c-.05-.07-.04-.17.03-.22a.15.15 0 0 1 .22.03l19.46 25.03c.03.03.04.06.04.1 0 .09-.07.16-.16.16h-22.2c-.04 0-.09-.02-.12-.06l-18.41-23.09zm-81.42 29.94c.09 0 .16.07.16.15 0 .09-.07.16-.16.16h-209c-.03 0-.05 0-.07-.01l-4.3-1.58a.17.17 0 0 1-.1-.2c.02-.05.06-.08.11-.09l4.57-1.42c.02-.01.03-.01.05-.01h208.74c.09 0 .16.07.16.16 0 .08-.07.15-.16.15H23.43l-4.11 1.28 3.85 1.41h208.98zm46.72-5.05v-.01c.46-.48.98-.83 1.56-1.07.6-.24 1.26-.36 1.96-.36.69 0 1.32.11 1.9.35.58.23 1.1.59 1.57 1.09.49.46.86.99 1.11 1.58a5.008 5.008 0 0 1 .31 2.75c-.04.26-.1.51-.15.72l-.01.02c-.13.36-.31.7-.52 1.02-.21.32-.46.63-.74.9-.46.5-.99.87-1.57 1.12-.58.24-1.21.37-1.9.37s-1.34-.13-1.94-.38c-.58-.25-1.11-.61-1.58-1.1a2.6 2.6 0 0 1-.29-.28c-.08-.1-.15-.19-.21-.28-.16-.19-.3-.4-.41-.63l-.01-.02c-.12-.23-.21-.48-.29-.73a3.25 3.25 0 0 1-.18-.73c-.03-.27-.05-.54-.05-.81 0-.52.07-1.03.21-1.51v-.01c.14-.48.35-.93.62-1.34l.01-.01c.16-.22.37-.43.58-.64l.01-.01h.01zm.33.29-.02.02v.01l-.01.01c-.2.2-.4.39-.54.58-.25.37-.44.78-.56 1.21v.01c-.13.44-.19.91-.19 1.39 0 .26.01.51.04.75.03.23.08.45.15.65h.01c.07.23.16.46.27.67l.01.02c.1.2.22.39.36.55.01.01.01.02.02.03.05.07.11.16.18.24.07.08.15.16.24.23.01.01.02.01.03.02.42.45.9.79 1.43 1.01.54.23 1.14.34 1.77.34.63 0 1.2-.11 1.73-.33.52-.23 1-.57 1.42-1.02h.01v-.01c.25-.25.48-.53.68-.83.19-.28.35-.59.47-.91.05-.2.1-.43.14-.67.04-.23.06-.48.06-.74 0-.63-.11-1.23-.34-1.76-.22-.54-.56-1.02-1.01-1.44l-.01-.01c-.42-.45-.9-.78-1.42-.99-.52-.21-1.1-.31-1.73-.31-.64 0-1.25.1-1.79.33-.52.21-.99.52-1.4.95zm6.34.02z" class="fil1"/>
    <path d="M419.32 43.8c-.31-1.11-.89-1.69-1.73-1.9-1-.21-2-.21-3-.05-9.73 2-19.83 2-30.51 0v-2.63l-19.04-6.31c-1.11-.26-2.64-.21-4.53.1-1.52.06-2.58 1.21-3.26 3.42l-3.84 13.15c-.16.74-.16 1.48 0 2.16.16.37.16.74 0 1.21l-28.57 86.75c-1.15 3.05-1.15 6 0 9.05a552.212 552.212 0 0 0 16.42 42.56c.47.73.47 1.36 0 1.94-.53.69-.53 1.42 0 2.05 5.1 6.9 10.57 13.05 16.41 18.57 1.1.53 2.42.53 4 0l18.99-6.99v-2.05l24.83-12.47c1.26-.69 2.26-1.68 3.1-3.05l17.26-34.57c.05-.15.16-.26.21-.42 1.68-3.78 3.21-7.94 4.63-12.36l12.52-46.08h1.42l7.36-22.2c-5.2-2.32-9.78-5.05-13.52-8.31h-3.31c-8.05-8.63-13.31-15.79-15.84-21.57zm-36.14-3.95v3.69l-14.57.78-9.47 7.95 4.53-15.47.73-2.68 18.78 5.73zm.9 4.53V42.9c4.1.64 8.36 1.21 12.78 1.58 1.63.27 3.21.37 4.63.16 4.95-.42 9.58-1.1 13.84-1.95 1.52-.31 2.57.11 3.15 1.37 1.69 3.47 3.69 6.84 6.16 10.05 3.21 4.05 6.68 8 10.41 11.94.27.42.27.95 0 1.47l-.78 1.21c-.48.74-.48 1.42 0 2.11l4.73 6.1c.53.53.79 1.16.89 2 .37 5 .42 9.99.11 14.99-.11.79.31 1.32 1.21 1.48.58.05.68.47.42 1.31l-3.89 15.26-5.11 18.2a99.894 99.894 0 0 1-8.31 24.14l-9.57 20.15-6.26 12.63c-1.11 2.52-3.32 4.57-6.63 6.31l-19.2 9.52c-1.26.69-2.05.58-2.37-.21-.47-1.16-.74-2.21-.79-3.15 0-.37.16-.69.58-.9 6.58-3.58 12.89-7.15 18.94-10.68 4.26-2.47 7.21-5.89 8.78-10.2 4.11-8.32 7.79-16.68 11.05-25.1 2.53-5.89 4.53-11.73 5.95-17.57l12.67-46.55c.48-1.37.79-2.58.95-3.58l.32-1.58c.05-.42-.06-.89-.48-1.31l-1.15-.69c-3.06-1.58-7.68-6.42-14.1-14.57-6.37-8.1-9.58-12.15-9.63-12.2-.16-.22-.42-.48-.58-.69-14.78.58-29.56.21-44.35-1.1-8.68 20.57-17.04 42.08-25.19 64.44l-6.53 20.78c-.68 2.58-.68 5.26 0 8.15l6.32 19.2c1.94 6.69 4.15 13.26 6.62 19.73.42.74.42 1.37-.05 1.9l-2.68 1.99c-.53.43-1 .43-1.47 0l-2.58-3.89 1.73 3.74c.42.68.42 1.31-.05 1.84-.68.73-1.42.47-2.21-.79a495.725 495.725 0 0 1-16.25-41.88c-1-2.99-1-5.57 0-7.83l6.47-21.15 14.04-42.56 7.89-21.88c.27-.64.79-.9 1.53-.79.79.15 1 .68.68 1.57l-4.52 13-17.62 54.02-6.11 19.31c-.47 1.53-.47 3.1 0 4.63 2.48 7.84 4.95 14.63 7.32 20.36-.06-.16-.11-.32-.16-.47-2.32-7.11-4.26-14.21-5.95-21.36-.36-.79-.36-1.69 0-2.74l3.74-11.15 14.36-47.24 9.21-25.94c.26-1.26.84-2.26 1.68-2.99l8.68-7.63c.68-.53 1.63-.9 2.68-1.26 2.32-.58 6.95-1.11 14.05-1.58zm25.57 10.41c.89-.05 1.73-.05 2.68-.05l14.04 17.83c3.11 4.05 6.58 7.26 10.31 9.74.53.31.69.79.43 1.36-.27.64-.48 1.48-.74 2.63l-10.31 40.72-2.89 10.42-4 11.41-10.42 24.41c-1.84 4.47-3.79 8-6 10.52-2.36 2.37-5.41 4.58-9.31 6.63-4.42 2.42-8.89 4.58-13.46 6.63-.11 0-.22.05-.27.05-.63.27-1.15.27-1.63-.05-.47-.26-1.37-.26-2.68.11l-10.36 2.57c-1.32.53-2.16.53-2.53.06l-8.84-12.37c-.68-.94-1.26-1.36-1.89-1.26-.63.11-1-.26-1.21-1.05-2.26-5.47-4.16-11-5.68-16.52L338 146.96c-.9-2.95-1.11-5.68-.53-8.15l6.52-20.78c8.16-22.36 16.52-43.83 25.2-64.45 12.63 1.16 25.3 1.53 37.93 1.27.84 0 1.68 0 2.53-.06zm29.24 11.79c.11.05.16.1.27.21 3 2.52 6.68 4.78 11.04 6.73.58.26.79.68.64 1.21l-5.95 18.1-.31.94c-.27.64-.48 1-.69 1.11-.63.1-1.21.1-1.79 0-.42-.11-.68-.32-.73-.74.21-4.89.21-9.83 0-14.78-.06-1.1-.37-2-.84-2.63l-4.69-5.94c-.52-.53-.52-1.11 0-1.74l2-2.47c.37-.37.69-.37 1.05 0zM376.71 198.2c.85-.27 1.48 0 1.79.73.16.43.27.79.37 1.16.74 2.47 1.16 4.58 1.11 6.31l-18.68 6.69c-.74.26-1.47.26-2.1.1-.16 0-.21-.05-.37-.1-2.53-2.11-5.26-4.74-8.21-7.95l-8.1-9.89c-.37-.52-.37-1 0-1.31l2.31-1.48 6.11-3.94.94-.63c.37-.37.79-.27 1.11.1l8.73 12.58c.63.84 1.26 1.26 2 1.21l12.99-3.58zM358.99 36.43c.84-1.84 2.2-2.63 4.31-2.36l-5.16 17.62c-1.05-.05-2.21-.26-3.26-.74l4.11-14.52z" class="fil1"/>
    <path d="M380.24 40.8c1.16-.16 2.16-.53 2.94-.95l-18.78-5.73-.73 2.68c3.47 2.26 6.57 3.47 9.36 3.84 2.63.32 5 .42 7.21.16z" class="fil9"/>
    <path d="M383.18 39.85c-.78.42-1.78.79-2.94.95-2.21.26-4.58.16-7.21-.16-2.79-.37-5.89-1.58-9.36-3.84l-4.53 15.47 9.47-7.95 14.57-.78v-3.69z" class="fil7"/>
    <path d="M384.08 42.9v1.48c-7.1.47-11.73 1-14.05 1.58-1.05.36-2 .73-2.68 1.26l-8.68 7.63c-.84.73-1.42 1.73-1.68 2.99l-9.21 25.94-14.36 47.24-3.74 11.15c-.36 1.05-.36 1.95 0 2.74 1.69 7.15 3.63 14.25 5.95 21.36.05.15.1.31.16.47.05.05.05.1.05.21 2.1 6.42 4.47 12.52 7.05 18.2l2.58 3.89c.47.43.94.43 1.47 0l2.68-1.99c.47-.53.47-1.16.05-1.9-2.47-6.47-4.68-13.04-6.62-19.73l-6.32-19.2c-.68-2.89-.68-5.57 0-8.15l6.53-20.78c8.15-22.36 16.51-43.87 25.19-64.44a347.62 347.62 0 0 0 44.35 1.1c.16.21.42.47.58.69.05.05 3.26 4.1 9.63 12.2 6.42 8.15 11.04 12.99 14.1 14.57l1.15.69c.42.42.53.89.48 1.31l-.32 1.58c-.16 1-.47 2.21-.95 3.58l-12.67 46.55c-1.42 5.84-3.42 11.68-5.95 17.57-3.26 8.42-6.94 16.78-11.05 25.1-1.57 4.31-4.52 7.73-8.78 10.2-6.05 3.53-12.36 7.1-18.94 10.68-.42.21-.58.53-.58.9.05.94.32 1.99.79 3.15.32.79 1.11.9 2.37.21l19.2-9.52c3.31-1.74 5.52-3.79 6.63-6.31l6.26-12.63 9.57-20.15a99.894 99.894 0 0 0 8.31-24.14l5.11-18.2 3.89-15.26c.26-.84.16-1.26-.42-1.31-.9-.16-1.32-.69-1.21-1.48.31-5 .26-9.99-.11-14.99-.1-.84-.36-1.47-.89-2l-4.73-6.1c-.48-.69-.48-1.37 0-2.11l.78-1.21c.27-.52.27-1.05 0-1.47-3.73-3.94-7.2-7.89-10.41-11.94-2.47-3.21-4.47-6.58-6.16-10.05-.58-1.26-1.63-1.68-3.15-1.37-4.26.85-8.89 1.53-13.84 1.95-1.42.21-3 .11-4.63-.16-4.42-.37-8.68-.94-12.78-1.58zm0 3.79c0-.47.21-.89.52-1.31.43-.32.85-.53 1.32-.53.53 0 1 .21 1.31.53.37.42.53.84.53 1.31 0 .53-.16.95-.53 1.32-.31.42-.78.58-1.31.58-.47 0-.89-.16-1.32-.58-.31-.37-.52-.79-.52-1.32zm29.67-.31c.42-.32.84-.53 1.31-.53.53 0 1 .21 1.32.53.37.36.53.84.53 1.31 0 .47-.16.95-.53 1.26-.32.42-.79.63-1.32.63-.47 0-.89-.21-1.31-.63-.32-.31-.53-.79-.53-1.26s.21-.95.53-1.31zm-13.78-.53c.47 0 .89.21 1.26.53.37.36.58.84.58 1.31 0 .47-.21.95-.58 1.26-.37.42-.79.63-1.26.63-.53 0-.95-.21-1.32-.63-.42-.31-.58-.79-.58-1.26s.16-.95.58-1.31c.37-.32.79-.53 1.32-.53zm20.46 9.84c0-.48.16-.95.58-1.32.37-.31.79-.52 1.31-.52.48 0 .9.21 1.27.52.36.37.57.84.57 1.32 0 .52-.21 1-.57 1.31-.37.37-.79.58-1.27.58-.52 0-.94-.21-1.31-.58-.42-.31-.58-.79-.58-1.31zm8.57 8.2c.32-.36.79-.52 1.32-.52.47 0 .95.16 1.26.52.37.37.58.85.58 1.32 0 .47-.21.95-.58 1.26-.31.42-.79.63-1.26.63-.53 0-1-.21-1.32-.63-.36-.31-.57-.79-.57-1.26s.21-.95.57-1.32zm6.11 40.83c.31-.32.68-.42 1.1-.42.42 0 .79.1 1.11.42.26.31.42.68.42 1.1 0 .42-.16.74-.42 1.05-.32.37-.69.48-1.11.48-.42 0-.79-.11-1.1-.48-.32-.31-.42-.63-.42-1.05 0-.42.1-.79.42-1.1zm-6.42 23.35c.31-.26.74-.42 1.16-.42.47 0 .84.16 1.15.42.32.37.48.74.48 1.21 0 .42-.16.85-.48 1.11-.31.37-.68.52-1.15.52-.42 0-.85-.15-1.16-.52-.32-.26-.47-.69-.47-1.11 0-.47.15-.84.47-1.21zm-2.11 12.94c.43 0 .79.16 1.06.43.31.31.47.68.47 1.1 0 .42-.16.79-.47 1.05-.27.32-.63.48-1.06.48-.42 0-.78-.16-1.1-.48-.26-.26-.42-.63-.42-1.05 0-.42.16-.79.42-1.1.32-.27.68-.43 1.1-.43zm-10.04 20.05c0-.42.1-.84.47-1.21.32-.27.68-.42 1.16-.42.47 0 .84.15 1.15.42.32.37.48.79.48 1.21 0 .42-.16.79-.48 1.16-.31.31-.68.52-1.15.52-.48 0-.84-.21-1.16-.52-.37-.37-.47-.74-.47-1.16zm-28.57 34.56c.26-.26.69-.42 1.11-.42.47 0 .79.16 1.1.42.32.37.47.68.47 1.16 0 .42-.15.84-.47 1.1-.31.32-.63.53-1.1.53-.42 0-.85-.21-1.11-.53a1.48 1.48 0 0 1-.52-1.1c0-.48.21-.79.52-1.16zm21.78-17.78c.47 0 .84.16 1.16.47.37.37.52.74.52 1.21 0 .48-.15.84-.52 1.16-.32.37-.69.53-1.16.53s-.84-.16-1.21-.53c-.31-.32-.53-.68-.53-1.16 0-.47.22-.84.53-1.21.37-.31.74-.47 1.21-.47zm-10.1 14.05c0 .47-.16.78-.47 1.1-.37.37-.74.53-1.21.53-.42 0-.79-.16-1.11-.53-.37-.32-.52-.63-.52-1.1 0-.48.15-.85.52-1.16.32-.32.69-.48 1.11-.48.47 0 .84.16 1.21.48.31.31.47.68.47 1.16zM362.46 58.05c.37.37.52.85.52 1.32 0 .53-.15 1-.52 1.31-.32.37-.79.58-1.32.58-.47 0-.89-.21-1.31-.58-.32-.31-.53-.78-.53-1.31 0-.47.21-.95.53-1.32.42-.31.84-.52 1.31-.52.53 0 1 .21 1.32.52zm-9.84 18.89c0-.53.16-1 .58-1.31.31-.37.79-.53 1.31-.53.48 0 .9.16 1.27.53a1.713 1.713 0 0 1 0 2.57c-.37.37-.79.58-1.27.58-.52 0-1-.21-1.31-.58-.42-.31-.58-.79-.58-1.26zm-6.31 23.83c.37.42.58.84.58 1.32 0 .52-.21.94-.58 1.31-.37.42-.79.58-1.27.58-.52 0-.99-.16-1.31-.58-.42-.37-.58-.79-.58-1.31 0-.48.16-.9.58-1.32.32-.31.79-.53 1.31-.53.48 0 .9.22 1.27.53zm-11 41.3c0 .47-.21.94-.58 1.26-.36.42-.79.58-1.26.58-.52 0-1-.16-1.31-.58-.42-.32-.58-.79-.58-1.26 0-.53.16-.95.58-1.32.31-.37.79-.52 1.31-.52.47 0 .9.15 1.26.52.37.37.58.79.58 1.32zm5.05 23.99c.37.36.53.78.53 1.31 0 .47-.16.95-.53 1.26-.31.42-.79.58-1.31.58-.48 0-.9-.16-1.32-.58-.31-.31-.52-.79-.52-1.26 0-.53.21-.95.52-1.31.42-.37.84-.53 1.32-.53.52 0 1 .16 1.31.53zm4.05 16.2c.37-.32.85-.53 1.32-.53.47 0 .95.21 1.26.53.42.37.58.79.58 1.31 0 .48-.16.95-.58 1.27-.31.42-.79.57-1.26.57s-.95-.15-1.32-.57c-.36-.32-.58-.79-.58-1.27 0-.52.22-.94.58-1.31z" class="fil7"/>
    <path d="M384.6 45.38c-.31.42-.52.84-.52 1.31 0 .53.21.95.52 1.32.43.42.85.58 1.32.58.53 0 1-.16 1.31-.58.37-.37.53-.79.53-1.32 0-.47-.16-.89-.53-1.31-.31-.32-.78-.53-1.31-.53-.47 0-.89.21-1.32.53zm30.46.47c-.47 0-.89.21-1.31.53-.32.36-.53.84-.53 1.31 0 .47.21.95.53 1.26.42.42.84.63 1.31.63.53 0 1-.21 1.32-.63.37-.31.53-.79.53-1.26s-.16-.95-.53-1.31c-.32-.32-.79-.53-1.32-.53zm-13.83.53c-.37-.32-.79-.53-1.26-.53-.53 0-.95.21-1.32.53-.42.36-.58.84-.58 1.31 0 .47.16.95.58 1.26.37.42.79.63 1.32.63.47 0 .89-.21 1.26-.63.37-.31.58-.79.58-1.26s-.21-.95-.58-1.31zm19.78 7.99c-.42.37-.58.84-.58 1.32 0 .52.16 1 .58 1.31.37.37.79.58 1.31.58.48 0 .9-.21 1.27-.58.36-.31.57-.79.57-1.31 0-.48-.21-.95-.57-1.32-.37-.31-.79-.52-1.27-.52-.52 0-.94.21-1.31.52zm9.31 9c-.53 0-1 .16-1.32.52-.36.37-.57.85-.57 1.32 0 .47.21.95.57 1.26.32.42.79.63 1.32.63.47 0 .95-.21 1.26-.63.37-.31.58-.79.58-1.26s-.21-.95-.58-1.32c-.31-.36-.79-.52-1.26-.52zm5.89 40.93c-.42 0-.79.1-1.1.42-.32.31-.42.68-.42 1.1 0 .42.1.74.42 1.05.31.37.68.48 1.1.48.42 0 .79-.11 1.11-.48.26-.31.42-.63.42-1.05 0-.42-.16-.79-.42-1.1-.32-.32-.69-.42-1.11-.42zm-6.36 23.35c-.42 0-.85.16-1.16.42-.32.37-.47.74-.47 1.21 0 .42.15.85.47 1.11.31.37.74.52 1.16.52.47 0 .84-.15 1.15-.52.32-.26.48-.69.48-1.11 0-.47-.16-.84-.48-1.21-.31-.26-.68-.42-1.15-.42zm-2.21 13.79c-.27-.27-.63-.43-1.06-.43-.42 0-.78.16-1.1.43-.26.31-.42.68-.42 1.1 0 .42.16.79.42 1.05.32.32.68.48 1.1.48.43 0 .79-.16 1.06-.48.31-.26.47-.63.47-1.05 0-.42-.16-.79-.47-1.1zm-10.63 18.41c-.37.37-.47.79-.47 1.21 0 .42.1.79.47 1.16.32.31.68.52 1.16.52.47 0 .84-.21 1.15-.52.32-.37.48-.74.48-1.16 0-.42-.16-.84-.48-1.21-.31-.27-.68-.42-1.15-.42-.48 0-.84.15-1.16.42zm-27.93 35.35c-.42 0-.85.16-1.11.42-.31.37-.52.68-.52 1.16 0 .42.21.84.52 1.1.26.32.69.53 1.11.53.47 0 .79-.21 1.1-.53.32-.26.47-.68.47-1.1 0-.48-.15-.79-.47-1.16-.31-.26-.63-.42-1.1-.42zm21.83-16.89c-.32-.31-.69-.47-1.16-.47s-.84.16-1.21.47c-.31.37-.53.74-.53 1.21 0 .48.22.84.53 1.16.37.37.74.53 1.21.53s.84-.16 1.16-.53c.37-.32.52-.68.52-1.16 0-.47-.15-.84-.52-1.21zm-11.73 14.68c.31-.32.47-.63.47-1.1 0-.48-.16-.85-.47-1.16-.37-.32-.74-.48-1.21-.48-.42 0-.79.16-1.11.48-.37.31-.52.68-.52 1.16 0 .47.15.78.52 1.1.32.37.69.53 1.11.53.47 0 .84-.16 1.21-.53zm-36.2-133.62c0-.47-.15-.95-.52-1.32-.32-.31-.79-.52-1.32-.52-.47 0-.89.21-1.31.52-.32.37-.53.85-.53 1.32 0 .53.21 1 .53 1.31.42.37.84.58 1.31.58.53 0 1-.21 1.32-.58.37-.31.52-.78.52-1.31zm-9.78 16.26c-.42.31-.58.78-.58 1.31 0 .47.16.95.58 1.26.31.37.79.58 1.31.58.48 0 .9-.21 1.27-.58a1.713 1.713 0 0 0 0-2.57c-.37-.37-.79-.53-1.27-.53-.52 0-1 .16-1.31.53zm-6.31 26.46c0-.48-.21-.9-.58-1.32-.37-.31-.79-.53-1.27-.53-.52 0-.99.22-1.31.53-.42.42-.58.84-.58 1.32 0 .52.16.94.58 1.31.32.42.79.58 1.31.58.48 0 .9-.16 1.27-.58.37-.37.58-.79.58-1.31zm-12.16 41.24c.37-.32.58-.79.58-1.26 0-.53-.21-.95-.58-1.32-.36-.37-.79-.52-1.26-.52-.52 0-1 .15-1.31.52-.42.37-.58.79-.58 1.32 0 .47.16.94.58 1.26.31.42.79.58 1.31.58.47 0 .9-.16 1.26-.58zm6.16 24.04c0-.53-.16-.95-.53-1.31-.31-.37-.79-.53-1.31-.53-.48 0-.9.16-1.32.53-.31.36-.52.78-.52 1.31 0 .47.21.95.52 1.26.42.42.84.58 1.32.58.52 0 1-.16 1.31-.58.37-.31.53-.79.53-1.26zm4.84 14.36c-.47 0-.95.21-1.32.53-.36.37-.58.79-.58 1.31 0 .48.22.95.58 1.27.37.42.85.57 1.32.57.47 0 .95-.15 1.26-.57.42-.32.58-.79.58-1.27 0-.52-.16-.94-.58-1.31-.31-.32-.79-.53-1.26-.53z" class="fil10"/>
    <path d="M356.72 55.42c.32-.89.11-1.42-.68-1.57-.74-.11-1.26.15-1.53.79l-7.89 21.88-14.04 42.56-6.47 21.15c-1 2.26-1 4.84 0 7.83 4.78 14.21 10.2 28.15 16.25 41.88.79 1.26 1.53 1.52 2.21.79.47-.53.47-1.16.05-1.84l-1.73-3.74c-2.58-5.68-4.95-11.78-7.05-18.2 0-.11 0-.16-.05-.21-2.37-5.73-4.84-12.52-7.32-20.36-.47-1.53-.47-3.1 0-4.63l6.11-19.31 17.62-54.02 4.52-13zm55.61-.68c-.95 0-1.79 0-2.68.05l8.25 11.1c3.79 5.16 7.68 9.52 11.58 13.15 1.89 1.74 3.68 2.95 5.36 3.79.79.42.95 1.21.48 2.53l-3.37 11.89-7 28.19c-2.42 10-5.73 19.63-9.99 28.88-4.26 9.21-7.05 15.58-8.37 19.1-1.84 6.05-5.73 10.89-11.46 14.31-4.74 3.26-9.79 6.31-15.15 9.31 4.57-2.05 9.04-4.21 13.46-6.63 3.9-2.05 6.95-4.26 9.31-6.63 2.21-2.52 4.16-6.05 6-10.52l10.42-24.41 4-11.41 2.89-10.42 10.31-40.72c.26-1.15.47-1.99.74-2.63.26-.57.1-1.05-.43-1.36-3.73-2.48-7.2-5.69-10.31-9.74l-14.04-17.83z" class="fil5"/>
    <path d="M407.12 54.78c.84 0 1.68 0 2.52-.05l.04-.01.02.03 8.26 11.1c1.86 2.53 3.74 4.87 5.64 7.03 1.97 2.24 3.95 4.27 5.92 6.11.95.87 1.87 1.61 2.76 2.23.89.62 1.76 1.13 2.59 1.55h.01c.41.22.66.54.74.98.08.42 0 .96-.24 1.63l-3.36 11.88-7 28.2c-1.21 5-2.64 9.91-4.31 14.72-1.66 4.82-3.56 9.54-5.69 14.17-2.13 4.61-3.89 8.5-5.29 11.68-1.39 3.18-2.42 5.65-3.07 7.41a24.24 24.24 0 0 1-4.28 8.16c-1.93 2.4-4.34 4.47-7.22 6.19-2.36 1.63-4.81 3.21-7.34 4.75a220.13 220.13 0 0 1-7.81 4.56l-.02.01h-.01c-.06 0-.11.02-.16.03-.03.01-.07.02-.09.02-.32.13-.62.2-.89.19-.29 0-.55-.09-.79-.25-.24-.13-.58-.19-1.03-.17-.44.01-.97.1-1.6.28h-.01l-10.36 2.58-.03-.13c5.83-1.74 11.09-3.68 15.75-5.83 4.67-2.15 8.74-4.5 12.21-7.05 2.7-2.18 5.05-4.63 7.06-7.36 2.01-2.72 3.68-5.72 5.02-8.97 1.66-3.89 3.18-7.77 4.59-11.64 1.46-3.99 2.78-7.97 3.98-11.92v-.01c2.24-5.55 4.17-11.11 5.83-16.68 1.65-5.57 3.03-11.14 4.16-16.71l.01-.01 6.89-24.67v-.01c.36-.88.55-1.68.55-2.38 0-.69-.18-1.3-.54-1.81l-1.47-1.68c-4.14-4.77-8.03-9.47-11.66-14.1-3.7-4.73-7.15-9.38-10.34-13.95l-.07-.1h.13zm-.46 118.66zm25.36-76.18z" class="fil2"/>
    <path d="m430.58 84.57-1.47-1.69c-8.36-9.62-15.68-18.99-21.99-28.03-12.63.26-25.3-.11-37.93-1.27-8.68 20.62-17.04 42.09-25.2 64.45l-6.52 20.78c-.58 2.47-.37 5.2.53 8.15l6.89 21.62c1.52 5.52 3.42 11.05 5.68 16.52.21.79.58 1.16 1.21 1.05.63-.1 1.21.32 1.89 1.26l8.84 12.37c.37.47 1.21.47 2.53-.06 11.67-3.47 21.04-7.78 27.98-12.88 5.42-4.37 9.42-9.84 12.1-16.37 3.37-7.89 6.21-15.78 8.58-23.56 4.47-11.1 7.73-22.26 9.99-33.41l6.89-24.67c.74-1.79.74-3.21 0-4.26z" class="fil0"/>
    <path d="M439.16 66.79c-.11-.11-.16-.16-.27-.21-.36-.37-.68-.37-1.05 0l-2 2.47c-.52.63-.52 1.21 0 1.74l4.69 5.94c.47.63.78 1.53.84 2.63.21 4.95.21 9.89 0 14.78.05.42.31.63.73.74.58.1 1.16.1 1.79 0 .21-.11.42-.47.69-1.11l.31-.94c-.05-4.26.32-8.63 1-13.05.63-3.1 0-5.31-1.79-6.57-1.79-1.27-3.47-3.48-4.94-6.42z" class="fil7"/>
    <path d="M450.84 74.73c.15-.53-.06-.95-.64-1.21-4.36-1.95-8.04-4.21-11.04-6.73 1.47 2.94 3.15 5.15 4.94 6.42 1.79 1.26 2.42 3.47 1.79 6.57-.68 4.42-1.05 8.79-1 13.05l5.95-18.1zm-72.34 124.2c-.31-.73-.94-1-1.79-.73l-12.99 3.58c-.74.05-1.37-.37-2-1.21l-8.73-12.58c-.32-.37-.74-.47-1.11-.1l-.94.63c2.84 7.26 5.73 12.2 8.73 14.73.58.63 1.26 1.05 2.1 1.42 1.16.52 2.58.52 4.37.05 4.1-1.16 8.31-2.68 12.73-4.63-.1-.37-.21-.73-.37-1.16z" class="fil9"/>
    <path d="M379.98 206.4c.05-1.73-.37-3.84-1.11-6.31-4.42 1.95-8.63 3.47-12.73 4.63-1.79.47-3.21.47-4.37-.05-.84-.37-1.52-.79-2.1-1.42-3-2.53-5.89-7.47-8.73-14.73l-6.11 3.94c4.53 7.05 9.32 13.94 14.37 20.73.63.16 1.36.16 2.1-.1l18.68-6.69z" class="fil7"/>
    <path d="M342.52 193.94c-.37.31-.37.79 0 1.31l8.1 9.89c2.95 3.21 5.68 5.84 8.21 7.95.16.05.21.1.37.1-5.05-6.79-9.84-13.68-14.37-20.73l-2.31 1.48zM363.3 34.07c-2.11-.27-3.47.52-4.31 2.36l-4.11 14.52c1.05.48 2.21.69 3.26.74l5.16-17.62z" class="fil5"/>
    <path d="M383.92 46.69c0-.26.06-.5.15-.73l.01-.01c.1-.22.23-.45.4-.66v-.01l.03-.03c.22-.16.44-.3.67-.4.24-.1.48-.16.74-.16.28 0 .54.06.78.15.25.1.47.25.65.43.2.23.34.45.43.69.1.23.14.48.14.73 0 .28-.04.54-.14.78-.09.23-.23.44-.43.64-.16.22-.37.37-.6.47-.25.12-.53.16-.83.16-.26 0-.5-.04-.74-.14a2.4 2.4 0 0 1-.69-.48v-.01c-.17-.2-.31-.41-.41-.64-.1-.24-.16-.49-.16-.77v-.01zm.32 0v.01c0 .24.04.45.13.65.08.2.2.38.35.55.19.19.39.33.58.41.2.08.4.12.62.12.26 0 .5-.04.71-.13.18-.09.35-.21.48-.39l.01-.01c.17-.17.29-.35.37-.55.08-.2.11-.41.11-.66 0-.22-.03-.42-.11-.62s-.2-.39-.37-.58c-.14-.15-.33-.27-.54-.36-.2-.08-.42-.12-.66-.12-.22 0-.42.05-.62.13-.19.08-.39.2-.58.35-.15.19-.27.39-.35.59h-.01c-.08.2-.12.4-.12.61zm29.39-.42c.01-.01.02-.02.03-.02.22-.16.43-.3.66-.4.24-.1.49-.16.74-.16.28 0 .54.06.78.15.25.1.47.25.65.42.19.2.33.42.43.65.1.25.14.52.14.78 0 .27-.04.54-.15.78-.09.22-.23.43-.42.59-.17.22-.37.39-.61.5-.25.12-.53.18-.82.18-.26 0-.5-.06-.74-.17-.23-.11-.46-.28-.68-.5v-.01c-.18-.17-.32-.39-.42-.63-.1-.23-.16-.49-.16-.74s.06-.5.15-.73c.1-.25.25-.48.42-.69zm.03-.02c.06-.04.14-.04.19.01l-.19-.01zm.2.24c-.15.17-.27.37-.35.58-.08.2-.13.41-.13.62 0 .21.05.42.13.62s.2.39.35.53v.01c.2.19.4.34.59.44a1.51 1.51 0 0 0 1.29-.01c.2-.09.37-.23.51-.42l.03-.03c.15-.13.27-.3.34-.48.09-.2.13-.43.13-.66 0-.23-.04-.45-.13-.66-.07-.2-.19-.38-.35-.54-.15-.15-.34-.27-.55-.36-.2-.08-.42-.12-.66-.12-.21 0-.41.05-.61.13h-.01c-.2.09-.39.21-.58.35zm-13.89-.8c.26 0 .5.06.73.16.22.1.43.23.62.4.01 0 .01.01.02.01.2.2.35.43.46.67.11.25.16.5.16.76a1.82 1.82 0 0 1-.62 1.38c-.19.21-.4.38-.62.49l-.01.01c-.24.11-.48.17-.74.17-.29 0-.55-.06-.79-.17-.23-.11-.44-.28-.64-.5-.21-.16-.36-.36-.46-.58-.12-.25-.17-.53-.17-.8s.05-.54.16-.8c.11-.23.26-.44.48-.63.19-.17.4-.31.63-.41h.01c.23-.1.49-.16.77-.16h.01zm0 .32h-.01c-.24 0-.45.05-.65.13h-.01c-.2.09-.38.21-.55.35-.18.16-.3.34-.39.53-.09.21-.13.44-.13.67 0 .23.04.46.13.66.08.18.21.35.38.48.01.01.02.01.03.02.17.19.35.34.55.44.19.09.41.14.65.14.21 0 .41-.05.6-.14l.01-.01c.19-.09.36-.24.53-.43l.02-.02a1.523 1.523 0 0 0 .52-1.14c0-.21-.05-.43-.14-.63-.09-.21-.22-.4-.39-.57-.17-.15-.35-.27-.55-.35a1.54 1.54 0 0 0-.6-.13zm.61 3.27c.07-.03.16 0 .2.08l-.2-.08zm.55-.45c.05-.05.14-.05.2.01l-.2-.01zm0 0zm19.14 6.86v-.01c0-.26.05-.53.16-.79.1-.23.26-.45.47-.64h.01c.19-.16.4-.31.64-.4a1.855 1.855 0 0 1 1.51 0c.22.1.43.24.63.4l.01.01c.2.2.35.43.46.67.11.24.16.5.16.76 0 .28-.05.55-.16.8-.11.24-.26.45-.46.62-.2.2-.42.36-.65.47-.23.1-.47.16-.73.16-.28 0-.54-.06-.77-.16l-.01-.01c-.23-.1-.44-.26-.64-.45a1.59 1.59 0 0 1-.47-.6c-.11-.25-.16-.53-.16-.83zm.32-.01v.01c0 .26.04.49.13.7.08.19.21.35.38.49.01 0 .01.01.02.01.17.17.35.31.55.4h.01c.19.09.41.13.64.13.21 0 .41-.04.6-.13s.38-.22.55-.4c.01 0 .02-.01.02-.01.16-.15.29-.32.38-.52.09-.2.14-.43.14-.67 0-.22-.05-.43-.14-.63-.09-.21-.22-.4-.39-.57-.17-.15-.36-.27-.55-.36a1.55 1.55 0 0 0-1.26.01c-.2.08-.39.2-.56.35-.18.16-.31.34-.39.53-.09.21-.13.44-.13.66zm3.1-1.43zm5.2 9.53c.17-.19.37-.33.6-.42h.01a2.213 2.213 0 0 1 1.6 0c.22.09.43.23.59.42.2.2.36.43.46.67.11.24.17.5.17.76s-.06.52-.17.76c-.11.23-.26.44-.45.61-.17.22-.38.38-.6.5-.25.12-.51.18-.78.18-.29 0-.57-.06-.82-.18-.23-.11-.44-.28-.61-.5-.19-.17-.35-.38-.45-.61-.11-.24-.17-.5-.17-.76s.06-.52.16-.76c.11-.24.27-.47.46-.67zm.23.23c-.18.17-.31.36-.4.57-.09.2-.14.41-.14.63 0 .22.05.43.14.63.09.19.22.37.39.51.01.01.02.02.02.03.14.19.32.33.51.42.2.1.43.15.68.15.22 0 .44-.05.64-.15.19-.1.36-.24.5-.42 0-.01.01-.02.02-.03.17-.14.3-.32.38-.51.09-.2.14-.41.14-.63 0-.22-.04-.43-.13-.63-.09-.21-.23-.4-.4-.57-.01-.01-.01-.02-.02-.02a1.21 1.21 0 0 0-.47-.34c-.21-.09-.43-.12-.66-.12-.25 0-.49.03-.7.12h-.01c-.18.08-.35.19-.48.34l-.01.02zm5.88 40.6v-.01c.17-.17.36-.29.57-.36.2-.07.41-.1.64-.1.23 0 .44.03.64.1h.01c.2.07.39.19.57.37l.01.01c.14.17.25.35.33.55.08.2.12.42.12.65 0 .23-.04.44-.12.63-.08.18-.19.35-.33.52v.01c-.18.2-.37.33-.58.41-.2.08-.42.11-.65.11-.23 0-.44-.03-.65-.11-.2-.08-.39-.21-.56-.4v-.01a1.47 1.47 0 0 1-.36-.53l-.01-.01c-.07-.19-.1-.39-.1-.62 0-.23.03-.44.1-.64.07-.21.19-.4.36-.57h.01zm.22.21v.01c-.14.14-.24.29-.29.45-.06.17-.09.35-.09.54 0 .19.03.36.08.51l.01.01c.05.14.15.28.29.42 0 .01.01.01.01.02.14.16.29.26.45.32.16.07.34.09.53.09s.37-.02.54-.09c.16-.06.31-.17.45-.33.12-.15.22-.29.28-.44a1.404 1.404 0 0 0 0-1.04c-.07-.17-.16-.32-.28-.46-.14-.14-.29-.24-.45-.29l-.01-.01c-.16-.05-.34-.08-.53-.08s-.37.03-.54.09c-.16.05-.31.15-.45.28zm-8.64 36.04h.01c.22 0 .44.04.63.12.2.08.37.19.52.34h.01c.34.35.52.76.52 1.22 0 .23-.05.45-.13.65l-.01.01c-.08.19-.21.36-.38.5-.14.17-.31.3-.5.39h-.01c-.2.09-.42.13-.66.13a1.65 1.65 0 0 1-1.2-.51l-.01-.01c-.15-.14-.27-.32-.35-.52-.08-.2-.12-.41-.12-.64 0-.22.04-.43.12-.63.08-.21.19-.4.34-.57.01-.01.01-.02.02-.02.17-.15.36-.26.56-.34.2-.08.41-.12.64-.12zm.01.31h-.01c-.19 0-.37.04-.53.1-.16.07-.32.16-.46.28-.12.14-.21.3-.28.47-.06.16-.09.34-.09.52 0 .19.03.36.09.52.07.16.16.3.28.42l.01.01c.14.14.29.24.45.31.17.07.35.11.53.11.2 0 .37-.04.53-.11h.01c.15-.07.28-.17.4-.31 0-.01.01-.01.02-.02.13-.11.24-.25.31-.4v-.01c.07-.16.1-.33.1-.52 0-.38-.14-.71-.42-.99l-.01-.01c-.12-.12-.26-.21-.42-.27-.15-.06-.33-.1-.51-.1zm-8.42 18.23c.23 0 .44.04.63.12.2.08.38.2.52.34l.01.01c.35.34.52.75.52 1.21 0 .23-.04.45-.13.65v.01c-.09.19-.22.36-.39.51-.14.16-.31.29-.5.38h-.01c-.2.09-.42.14-.65.14-.23 0-.45-.05-.66-.13-.19-.09-.38-.22-.55-.38l-.01-.01c-.15-.15-.26-.33-.35-.53-.07-.19-.12-.41-.12-.64 0-.22.05-.43.12-.63.08-.2.2-.39.34-.57.01-.01.02-.01.02-.02.17-.14.36-.26.56-.34.2-.07.41-.12.64-.12h.01zm0 .32h-.01c-.19 0-.36.03-.53.1-.16.06-.31.15-.46.27-.12.15-.21.3-.28.47-.06.17-.09.34-.09.52 0 .19.03.37.1.52.06.16.16.31.27.42l.01.01c.14.14.29.25.46.32.16.07.34.1.53.1s.37-.03.52-.1l.01-.01c.15-.07.29-.17.4-.3.01-.01.01-.02.02-.02.14-.12.24-.26.31-.41v-.01c.07-.15.11-.33.11-.52 0-.37-.15-.7-.43-.99l-.01-.01c-.12-.11-.26-.2-.41-.27-.16-.06-.33-.09-.52-.09zm11.68-32.12c.23 0 .44.04.63.12.2.08.37.19.52.34l.01.01c.35.34.52.75.52 1.21 0 .23-.04.45-.13.65l-.01.01c-.08.19-.21.36-.38.51-.14.16-.31.29-.5.38h-.01c-.2.09-.42.14-.65.14-.24 0-.45-.05-.66-.13-.2-.09-.38-.22-.55-.38l-.01-.01a1.58 1.58 0 0 1-.35-.53c-.07-.2-.12-.41-.12-.64 0-.22.04-.43.12-.63.08-.2.19-.4.34-.57.01-.01.01-.02.02-.02.17-.14.36-.26.56-.34.2-.08.41-.12.64-.12h.01zm0 .32h-.01c-.19 0-.36.03-.53.1-.16.06-.32.15-.46.27-.12.15-.21.3-.28.47-.06.17-.09.34-.09.52 0 .19.03.37.09.52.07.16.16.31.28.42l.01.01c.14.14.29.25.46.32.16.07.34.1.53.1s.36-.03.52-.1l.01-.01c.15-.07.29-.17.4-.3 0-.01.01-.02.02-.02.13-.12.24-.26.31-.41v-.01c.07-.15.1-.33.1-.52 0-.37-.14-.7-.42-.99l-.01-.01c-.12-.11-.26-.2-.42-.27-.15-.06-.32-.09-.51-.09zm-20.1 49.76c.26 0 .49.05.7.13.21.09.4.22.57.39.2.2.34.4.43.62.1.21.14.45.14.7 0 .26-.04.49-.14.7-.09.21-.23.4-.43.57-.17.2-.36.34-.57.43-.21.1-.44.14-.7.14-.26 0-.49-.04-.71-.13-.21-.1-.41-.24-.61-.44a2.02 2.02 0 0 1-.41-.56 1.646 1.646 0 0 1 0-1.42c.1-.21.23-.4.4-.6l.02-.02c.4-.34.79-.51 1.31-.51zm0 .32c-.43 0-.76.14-1.1.42-.14.18-.27.35-.35.52a1.327 1.327 0 0 0 0 1.15c.08.17.21.33.35.48.17.17.34.29.52.37.17.07.36.11.58.11.22 0 .41-.04.57-.11.17-.08.33-.2.47-.36 0-.01.01-.01.02-.02.16-.14.28-.3.36-.46a1.575 1.575 0 0 0 0-1.16c-.08-.18-.2-.34-.37-.52-.15-.14-.3-.25-.47-.32-.17-.07-.36-.1-.58-.1zm-9.94 13.89c0 .26-.05.47-.13.67h-.01c-.08.2-.21.37-.38.54-.2.2-.4.34-.62.43-.22.1-.45.14-.7.14-.24 0-.46-.04-.66-.14-.2-.09-.39-.23-.56-.43-.2-.17-.34-.34-.43-.54-.1-.2-.14-.41-.14-.67 0-.26.04-.49.14-.71.09-.21.23-.39.43-.56.35-.35.75-.52 1.22-.52.25 0 .48.04.7.13.21.08.4.2.6.37l.02.02c.17.17.3.36.39.57.08.21.13.44.13.69v.01zm-.32 0v-.01c0-.21-.03-.4-.1-.57-.07-.17-.18-.33-.32-.47-.17-.14-.34-.25-.52-.32-.17-.07-.37-.11-.58-.11-.38 0-.71.14-1 .43 0 .01-.01.01-.02.02-.16.14-.27.29-.35.45a1.5 1.5 0 0 0-.11.58c0 .21.04.38.11.54.08.16.2.3.36.44.01.01.02.01.02.02.15.17.3.28.46.36.16.07.34.11.53.11.21 0 .4-.04.58-.11.18-.08.35-.2.52-.37.14-.15.25-.29.32-.45.07-.15.1-.33.1-.54zm-8.63 4.91v.01c0 .25-.04.47-.13.67-.09.2-.22.37-.39.54-.19.2-.39.34-.61.43-.22.1-.45.14-.71.14-.23 0-.45-.04-.65-.14-.21-.09-.39-.23-.56-.43a1.478 1.478 0 0 1-.57-1.22c0-.25.04-.49.13-.7.1-.21.24-.39.44-.56.34-.35.75-.52 1.21-.52a1.875 1.875 0 0 1 1.3.5c.01 0 .02.01.02.02.18.17.31.35.39.57.09.21.13.43.13.69zm-.31.01v-.01c0-.22-.04-.4-.11-.57-.07-.17-.17-.33-.32-.47a1.88 1.88 0 0 0-.51-.32 1.59 1.59 0 0 0-.59-.11c-.37 0-.71.14-.99.43-.01 0-.01.01-.02.01-.16.14-.27.29-.35.46-.07.17-.11.36-.11.57 0 .22.03.39.11.55.07.15.19.3.36.44.01 0 .01.01.02.02.14.16.3.28.46.36.16.07.34.11.52.11.22 0 .41-.04.59-.11.17-.08.34-.2.51-.37.15-.15.26-.29.33-.45.06-.15.1-.33.1-.54zM362.34 58.16c-.15-.15-.33-.27-.54-.35-.2-.08-.42-.12-.66-.12-.21 0-.42.04-.61.13h-.01c-.2.09-.39.21-.58.35-.15.17-.27.37-.36.58a1.762 1.762 0 0 0 0 1.28c.09.21.21.4.36.54.19.17.39.31.59.4h.01c.19.09.39.14.6.14.24 0 .47-.05.67-.14.21-.09.39-.22.53-.39 0 0 .01-.01.02-.01.15-.14.27-.31.34-.5.09-.21.13-.45.13-.7 0-.23-.04-.45-.13-.66-.08-.2-.19-.38-.35-.54l-.01-.01zm-.42-.64c.25.1.46.24.64.41l.01.01c.19.2.33.41.42.65.1.25.15.52.15.78 0 .29-.05.57-.14.82-.1.23-.24.44-.43.61-.17.19-.39.35-.63.46-.24.1-.51.16-.8.16-.25 0-.5-.06-.73-.16h-.01c-.23-.11-.45-.26-.67-.45l-.01-.01c-.18-.18-.33-.4-.43-.65-.09-.24-.15-.5-.15-.78 0-.25.06-.5.15-.74.1-.24.24-.48.42-.68l.02-.02c.22-.16.44-.3.66-.4h.01c.24-.1.48-.16.74-.16.28 0 .54.06.78.15zm-9.46 19.42c0-.3.05-.58.16-.83.1-.23.25-.43.47-.6.17-.19.37-.33.6-.42h.01c.25-.1.52-.15.81-.15.26 0 .5.04.73.14.23.09.44.23.64.43.2.17.36.39.47.63.11.25.16.52.16.8 0 .26-.06.52-.17.76-.1.23-.26.44-.45.61-.2.2-.42.36-.65.47-.23.1-.47.16-.73.16-.28 0-.55-.06-.79-.17-.24-.1-.46-.26-.63-.45-.21-.17-.36-.37-.46-.59-.12-.24-.17-.52-.17-.79zm.32 0c0 .23.04.46.13.66.08.18.21.35.38.48.01 0 .02.01.03.02.14.17.32.3.52.39.21.09.43.13.67.13.21 0 .41-.04.6-.13s.38-.22.56-.4l.01-.01a1.523 1.523 0 0 0 .52-1.14c0-.24-.05-.47-.14-.67-.09-.2-.22-.38-.39-.53-.17-.17-.35-.29-.54-.37-.2-.08-.4-.11-.62-.11-.25 0-.49.04-.7.12h-.01c-.18.08-.35.19-.48.35-.01.01-.02.02-.03.02-.18.14-.3.3-.38.48-.09.21-.13.45-.13.71zm-6.36 23.72.01.01c.19.22.34.44.45.67.11.24.16.49.16.75 0 .28-.05.54-.16.78-.11.23-.26.44-.46.64a1.767 1.767 0 0 1-1.38.63c-.29 0-.57-.05-.83-.16-.23-.1-.43-.25-.6-.47-.22-.2-.37-.41-.47-.65-.1-.23-.15-.49-.15-.77 0-.26.05-.5.15-.74.1-.24.25-.47.48-.69.18-.18.4-.32.65-.42.23-.1.5-.15.77-.15.26 0 .51.06.74.16.22.09.43.23.63.4l.01.01zm-.22.22c-.17-.14-.36-.26-.55-.35a1.55 1.55 0 0 0-.61-.13c-.23 0-.46.05-.66.13-.21.08-.39.21-.54.35-.19.2-.33.39-.41.59-.09.2-.12.4-.12.62 0 .24.03.46.12.65.08.2.21.38.4.54l.03.03c.13.18.29.3.48.38.21.09.45.13.7.13.22 0 .42-.03.61-.12.19-.08.37-.21.54-.4l.01-.01c.17-.17.3-.35.39-.55.09-.2.14-.41.14-.65 0-.22-.05-.42-.14-.62-.09-.2-.22-.39-.39-.59zm-10.73 41.19c0 .26-.06.52-.17.76-.1.23-.26.44-.46.61-.19.23-.41.38-.64.48-.23.1-.47.15-.73.15-.29 0-.58-.05-.83-.16-.23-.1-.43-.25-.6-.47-.21-.16-.36-.36-.46-.58-.11-.25-.16-.52-.16-.79 0-.29.04-.54.14-.78s.26-.45.48-.65c.17-.19.37-.33.61-.42v-.01c.25-.1.53-.14.82-.14.26 0 .5.04.73.13.23.1.45.24.65.44h-.01.01c.19.2.34.41.45.64v.01c.11.23.17.49.17.77v.01zm-.31 0v-.01c-.01-.24-.05-.45-.14-.64l-.01-.01c-.09-.2-.22-.38-.39-.55-.17-.17-.35-.29-.54-.36-.19-.08-.39-.12-.61-.12-.25 0-.49.04-.7.13h-.01c-.19.08-.35.19-.48.34-.01.01-.01.02-.02.02-.19.17-.32.35-.41.54-.08.2-.12.41-.12.66 0 .23.04.46.14.66.08.18.2.34.38.47a1.208 1.208 0 0 0 .52.42c.21.09.45.13.7.13.22 0 .42-.03.61-.12.19-.08.37-.21.54-.4 0-.01.01-.02.01-.02.17-.14.3-.32.39-.51.09-.2.13-.41.14-.63zm-.53 1.14c.06-.05.15-.05.21 0h-.21zm0 0zm5.61 22.94c-.14-.15-.3-.27-.49-.34-.21-.08-.45-.12-.7-.12-.22 0-.43.03-.62.11-.2.08-.39.2-.59.37-.14.17-.26.35-.34.55h-.01c-.08.2-.13.41-.13.65a1.68 1.68 0 0 0 .48 1.15l.01.01c.19.19.38.32.58.41.2.08.4.11.62.11.25 0 .49-.04.7-.13.19-.08.35-.2.49-.38 0-.01.01-.02.02-.03.16-.13.27-.3.35-.48.08-.2.12-.43.12-.66 0-.24-.03-.46-.11-.66-.08-.19-.2-.37-.37-.54 0-.01-.01-.02-.01-.02zm-.37-.63c.23.09.43.23.6.42.2.2.35.42.44.66.09.23.14.49.14.77 0 .27-.05.54-.15.78-.1.22-.23.43-.42.59-.17.22-.37.37-.6.47-.25.11-.54.16-.83.16-.26 0-.5-.04-.74-.15-.24-.09-.46-.25-.69-.47v-.01c-.17-.17-.32-.39-.42-.63-.1-.23-.15-.49-.15-.74 0-.28.05-.53.15-.77l.01-.01c.09-.23.24-.44.4-.64.01 0 .01-.01.02-.01a2.069 2.069 0 0 1 1.42-.57c.29 0 .57.05.82.15zm-2.26.43zm6.69 16.2v-.01h.01c.2-.17.43-.32.68-.41v-.01c.24-.09.49-.15.74-.15s.51.06.74.16c.24.1.46.24.63.42.23.2.38.41.48.65.1.23.15.49.15.77 0 .27-.05.55-.17.8-.1.22-.25.42-.46.58-.16.21-.36.36-.58.46-.25.11-.52.16-.79.16s-.54-.04-.79-.15l-.01-.01c-.22-.1-.44-.25-.63-.46-.19-.17-.35-.38-.45-.62-.11-.24-.17-.5-.17-.76 0-.28.05-.54.16-.77v-.01c.11-.23.26-.45.46-.64zm.22.22c-.17.17-.3.35-.39.55v.01a1.5 1.5 0 0 0 0 1.27c.09.2.22.38.39.52l.01.01c.16.18.34.31.53.39l.01.01c.21.09.43.13.66.13.23 0 .46-.04.66-.14.18-.08.34-.2.48-.38 0-.01.02-.02.03-.03.17-.13.3-.29.38-.47.09-.21.13-.44.13-.67 0-.24-.03-.46-.12-.65-.08-.2-.21-.38-.4-.54l-.01-.01a1.58 1.58 0 0 0-.53-.35c-.2-.08-.41-.13-.62-.13-.21 0-.42.05-.62.12l-.01.01c-.21.08-.41.21-.58.35zM297.17 12.02c1.37.9 2.16 1.69 2.37 2.48-.05 3.47.11 6.94.53 10.41 1.26 3.9 2.31 7.74 3.21 11.63l2.26 8.21-3.26-17.26c-.58-2.21-1-4.37-1.32-6.58-.16-2.42-.32-5.1-.47-7.89-.42-1.15-1.79-2.31-4.16-3.42l-16.36-7.62-5-1.42c-1.89-.69-3.89-.74-6.1-.16-3.79.94-6.42 3-7.94 6.05l-2.84 5.68 3.57-2.63c-2.1 7.94-2.26 15.68-.47 23.15l.58 1.94c-1.63-.73-3.42-.73-5.31 0-1.06-1.94-2.74-3.68-5.16-5.26-1.84-.79-4.26-1.31-7.21-1.58 2.48 1.63 3.84 3.16 4.05 4.63.21.63.27 1.21.11 1.79-.05.42-.42.42-1-.1-1.21-1.21-2.37-2.16-3.47-2.9-1.63-.79-3.74-1-6.42-.63-2.53-3.1-4.84-5-7.05-5.68-2.21-.74-3.63-.89-4.1-.58 2.15 1.79 3.63 4.42 4.42 7.89-2-.31-4.06-.31-6.21 0-1.05.32-2 .84-2.9 1.48-.68.47-1.26.47-1.73 0l-9.58-10.74c-1.63-2.47-2.73-5.26-3.2-8.57-1 3.58-1.64 7.26-1.69 11.2v4.69c.32 4.36 2.26 8.36 5.68 11.99 3.69 3.63 7.37 6.89 11.05 9.89 2.63 1.42 5.31 1.84 8 1.32l6.36-.9c.74 1.37-1.37 3.63-6.36 6.68 9.62-.42 16.41-2.52 20.25-6.31-.37 1.84-.37 3.63 0 5.26.58 1.68 1.32 2.89 2.21 3.79 1.26 1.26.63 3.21-2.05 5.89 5.57-.37 9.57-2.32 11.99-5.63 2.26-2.74 3.58-6.05 3.95-10.1.26-4.31 1.05-7.36 2.21-9.26 1-1.16 2.21-1.89 3.52-2l12.47-1.52c3.1-.27 6.21 0 9.42.68 2.21.53 4.15 2.16 5.63 4.84-.43-1.58-1.32-3.26-2.69-5.1.63.26 1.53 1.05 2.69 2.36 1.31 1.53 2.1 3.21 2.36 5 .21.11.48.11.74 0h.26c-.26-2.47-1.47-4.68-3.47-6.68-.37-.26-.68-.52-1-.79-1.63-1.21-3.16-1.89-4.47-2.05-3.53-.37-7.16-.37-10.89 0l-11.47 1c-1.63.21-3.05 1-4.15 2.37-5.11 3.63-7.9 7.47-8.42 11.52 2-4.32 4.05-7 6.21-8.1-1.06 2.84-1.58 5.73-1.58 8.52.21 2.95-.58 5.68-2.32 8.26-1.42 2.63-4.52 4.52-9.15 5.79.68-.74 1.16-1.43 1.42-1.95.42-1.26.42-2.26-.11-2.95-1.31-1.15-2.2-2.58-2.73-4.15-.42-3.42.37-7 2.31-10.68-2.57 2.1-5.47 3.84-8.73 5.15l4.53-1.15c-3.42 4.26-8.68 6.52-15.79 6.94 2.27-1.47 3.69-3.05 4.26-4.58.27-.68.21-1.31-.1-1.79l-7 .9c-1.37.26-2.73.21-4.05-.05-2.68-.64-4.89-1.79-6.63-3.42-1.57-1.48-3.1-2.9-4.63-4.32-.73-.68-1.42-1.36-2.1-2-1.53-1.57-2.89-3.15-3.95-4.78-1.52-2.48-2.36-4.84-2.57-7.32-.42-4.15-.27-8.41.63-12.83.94 3.26 2.21 5.63 3.68 7l8.58 9.1c.36.47.73.68 1.05.68.94 0 2.15-.53 3.63-1.68.26-.21 1.21-.32 2.79-.42 1.57 0 3.15.21 4.73.68-.37-3.31-1.79-6.26-4.16-8.73 3.9.73 7.05 2.94 9.53 6.73 2.26-.26 4.1-.21 5.57.26 2.21.85 3.89 2.11 5 3.79.47.53.84.53 1.21 0 .58-1.1.53-2.47-.16-4.05.95.42 1.63 1.05 2.11 1.84-.85-2-2.16-3.37-3.95-4.1 2.21 0 4.05.68 5.58 2.05 1.58 1.37 2.73 2.95 3.47 4.68 2.58-1.21 5.21-.94 7.89.9-1.32-4.16-2.1-7.89-2.31-11.05-.32-3.05-.32-6.05.05-8.94.16-4.05 1.31-7.89 3.31-11.68l-4.47 4.63c1.05-2.48 2.58-4.53 4.58-6.05 1.94-1.58 3.73-2.42 5.36-2.53 1.69-.1 3.95.21 6.74.9 2.78.73 5.89 2 9.31 3.94l10.99 6.1z" class="fil1"/>
    <path d="M298.84 13.25c.4.42.66.82.77 1.23v.02c-.03 1.73 0 3.47.08 5.2.09 1.73.23 3.47.44 5.2.63 1.94 1.21 3.87 1.74 5.81.54 1.93 1.02 3.87 1.47 5.81l2.26 8.21.01.01-.01.02c-.08.32-.19.6-.34.87-.16.27-.35.52-.57.74-.22.19-.46.35-.73.49-.28.13-.59.24-.93.32l-.08.02-.01-.08a9.572 9.572 0 0 0-1.07-3.49c-.58-1.11-1.38-2.15-2.37-3.15-.19-.13-.36-.26-.52-.39-.17-.14-.33-.27-.48-.4l-.18-.14.23.02 3.14.35a41.898 41.898 0 0 1-2.86-3.76 37.64 37.64 0 0 1-2.45-4.17c-.48-.97-1.12-1.96-1.91-3-.8-1.04-1.74-2.11-2.82-3.24-1.68-1.73-3.34-3.11-5-4.14-1.66-1.03-3.31-1.71-4.96-2.05-1.5-.32-2.91-.65-4.22-1-1.24-.33-2.4-.69-3.48-1.08a8.626 8.626 0 0 0 2.75 2.49c1.15.66 2.51 1.09 4.08 1.3h.01c1.24.26 2.62.99 4.13 2.18 1.51 1.19 3.16 2.84 4.95 4.94v.01c.2.24.29.48.29.7 0 .23-.1.43-.3.6v.01h-.02c-.29.11-.56.16-.82.16-.26 0-.5-.05-.75-.16-.81-.29-1.84-.52-3.11-.71-1.27-.18-2.76-.31-4.5-.39-1.52-.05-2.92.03-4.21.26-1.29.24-2.46.63-3.53 1.2-.49.34-.88.71-1.16 1.11-.29.41-.47.85-.55 1.31 0 .74-.12 1.44-.34 2.09-.24.68-.58 1.31-1.04 1.89-.45.59-.92 1.05-1.4 1.39-.49.33-1 .53-1.53.59-.81.2-1.55.61-2.22 1.22-.68.61-1.29 1.43-1.84 2.48l-2.84 4.32c-.36.49-.69.74-1.02.74-.33 0-.64-.25-.94-.75l-.01-.01a9.88 9.88 0 0 1-.41-2.65c-.01-.83.07-1.73.26-2.69-2.18 2.07-4.56 3.75-7.13 5.02-2.63 1.3-5.45 2.18-8.48 2.63-2.31.31-4.67.47-7.07.47-2.39 0-4.83-.16-7.31-.47-2.75-.34-5.38-1-7.88-1.96-2.51-.97-4.89-2.25-7.14-3.84l-.01-.01c-.76-.79-1.49-1.58-2.15-2.38a23.3 23.3 0 0 1-1.8-2.42c-.77-1.24-1.36-2.45-1.79-3.67-.43-1.21-.7-2.43-.8-3.67-.21-2.08-.28-4.19-.18-6.33.1-2.14.36-4.31.81-6.52l.06-.27.07.26c.47 1.62 1.02 3.01 1.63 4.18.62 1.17 1.3 2.1 2.04 2.79l8.57 9.1h.01c.17.23.35.39.51.5.17.11.34.16.49.16.47 0 1.01-.13 1.62-.42.59-.27 1.25-.68 1.97-1.25.14-.11.45-.19.93-.26.47-.07 1.1-.12 1.89-.17h.01c.79 0 1.58.05 2.37.16.76.11 1.52.27 2.28.5-.19-1.61-.63-3.13-1.3-4.55-.7-1.46-1.64-2.81-2.82-4.05l-.15-.15.21.04c1.95.37 3.72 1.11 5.32 2.23 1.58 1.12 2.98 2.61 4.22 4.5 1.12-.13 2.13-.18 3.05-.14.94.04 1.77.17 2.51.41h.01c1.11.42 2.09.96 2.94 1.6.83.63 1.53 1.37 2.08 2.21.23.24.42.37.59.37.18 0 .34-.12.51-.36.28-.54.41-1.15.39-1.81-.03-.67-.21-1.4-.55-2.18l-.07-.16.16.07c.48.21.89.48 1.25.79.16.15.31.31.45.47a7.76 7.76 0 0 0-1.29-1.84 6.835 6.835 0 0 0-2.31-1.56l-.31-.13h.34c1.11 0 2.13.17 3.07.52.93.34 1.78.86 2.55 1.55.79.68 1.47 1.42 2.05 2.2.57.77 1.05 1.59 1.41 2.44 1.29-.59 2.59-.82 3.91-.67 1.26.14 2.54.64 3.83 1.49-.64-2.02-1.15-3.94-1.52-5.74-.39-1.84-.64-3.56-.74-5.14-.16-1.54-.24-3.08-.23-4.59.01-1.47.1-2.93.28-4.36.08-2.03.41-4.01.97-5.95.52-1.8 1.24-3.58 2.14-5.34l-4.15 4.29-.26.27.15-.34c.53-1.25 1.18-2.4 1.96-3.42.76-1.01 1.64-1.9 2.63-2.66.98-.79 1.92-1.4 2.82-1.82.9-.42 1.77-.66 2.59-.72.84-.05 1.84 0 2.96.16 1.13.15 2.4.4 3.79.74 1.44.38 2.96.9 4.56 1.58 1.52.64 3.11 1.43 4.77 2.37l11 6.1v.01c.69.45 1.23.87 1.63 1.28z" class="fil0"/>
    <path d="M290.07 29.1c0-.19-.09-.4-.26-.62-1.79-2.1-3.43-3.74-4.93-4.92-1.5-1.18-2.85-1.9-4.08-2.16-1.59-.21-2.96-.65-4.13-1.31a8.765 8.765 0 0 1-2.91-2.71l-.12-.18.2.07c1.13.42 2.35.8 3.66 1.16 1.32.35 2.72.68 4.22 1 1.66.34 3.33 1.03 5 2.06 1.67 1.04 3.34 2.42 5.03 4.16 1.08 1.14 2.03 2.22 2.83 3.26.79 1.04 1.44 2.04 1.92 3.02a39.43 39.43 0 0 0 2.45 4.16c.9 1.33 1.88 2.62 2.96 3.88l.11.13-.17-.02-3.32-.37h-.02l-.01-.01c-.8-.6-1.58-1.07-2.32-1.41-.75-.34-1.46-.55-2.12-.63-1.76-.19-3.54-.28-5.36-.28-1.81 0-3.65.09-5.51.28l-11.47 1c-.81.1-1.57.35-2.26.75-.69.39-1.31.92-1.85 1.59l-.01.01h-.01c-2.54 1.81-4.51 3.68-5.9 5.59-1.29 1.76-2.09 3.57-2.41 5.43.93-1.97 1.88-3.58 2.85-4.85 1.04-1.35 2.1-2.31 3.18-2.86l.16-.08-.06.16c-.52 1.41-.92 2.83-1.18 4.25-.26 1.43-.39 2.85-.39 4.25.1 1.48-.04 2.9-.43 4.29-.39 1.38-1.03 2.71-1.9 4-.72 1.33-1.85 2.47-3.39 3.43-1.54.97-3.48 1.76-5.8 2.39l-.23.06.16-.17c.32-.35.6-.69.83-1 .25-.34.44-.66.58-.93.2-.62.31-1.18.29-1.66-.01-.48-.13-.88-.38-1.21a9.18 9.18 0 0 1-1.65-1.89c-.47-.71-.84-1.48-1.11-2.29v-.02c-.21-1.71-.12-3.46.27-5.24.37-1.7 1-3.43 1.9-5.19-1.21.98-2.5 1.87-3.86 2.68-1.2.71-2.46 1.35-3.78 1.93l3.63-.93.2-.05-.13.16c-1.72 2.14-3.9 3.77-6.54 4.93-2.64 1.15-5.73 1.83-9.29 2.04l-.26.01.22-.14c1.11-.72 2.01-1.47 2.72-2.22.72-.78 1.22-1.56 1.51-2.32.13-.33.18-.64.16-.93-.01-.28-.1-.54-.23-.76l-6.95.89c-.67.12-1.34.18-2 .17-.7-.01-1.4-.09-2.08-.23-1.34-.31-2.56-.76-3.67-1.33-1.12-.57-2.11-1.28-2.99-2.1-1.51-1.41-2.98-2.78-4.44-4.14l-.19-.18c-.36-.33-.71-.67-1.05-.99-.36-.35-.71-.68-1.06-1.01l-.76-.7.85.6c2.24 1.58 4.61 2.85 7.11 3.82 2.49.96 5.1 1.61 7.85 1.95 2.47.32 4.9.48 7.29.48 2.39 0 4.74-.16 7.05-.48 3.01-.44 5.83-1.32 8.44-2.61 2.62-1.3 5.05-3.02 7.26-5.15l.16-.16-.05.22c-.23 1.03-.32 1.99-.3 2.88.01.95.16 1.82.4 2.6.28.45.54.67.82.67.28 0 .58-.23.91-.68l2.83-4.31c.56-1.06 1.18-1.89 1.87-2.51a5.38 5.38 0 0 1 2.28-1.26h.01c.51-.05 1-.24 1.47-.56.48-.33.93-.79 1.37-1.36.45-.58.79-1.19 1.02-1.85.22-.65.34-1.33.34-2.05v-.01c.08-.49.27-.95.57-1.37.29-.42.69-.81 1.19-1.15h.01c1.08-.59 2.27-.98 3.58-1.22 1.3-.24 2.71-.32 4.24-.27 1.74.08 3.24.22 4.51.4 1.27.18 2.32.42 3.14.71v.01c.23.1.46.15.7.15.24 0 .49-.05.77-.15.16-.14.24-.31.24-.49zm-59.69 23.66z" class="fil2"/>
    <path d="M296.96 39.75c1.37 1.84 2.26 3.52 2.69 5.1.89 1.32 1.68 2.05 2.36 2.26-.26-1.79-1.05-3.47-2.36-5-1.16-1.31-2.06-2.1-2.69-2.36z" class="fil2"/>
    <path d="M305.54 44.75c-.16.63-.48 1.15-.9 1.57l.32.27 1.21-1.32c-.21-.21-.37-.37-.63-.52z" class="fil7"/>
    <path d="m306.17 45.27-1.21 1.32-1.26 1.31c-.95.63-1.37 1.21-1.21 1.84.26.84 1.1 1.69 2.52 2.63.9-.31 1.47-1 1.84-2.1-.68.31-1.47.26-2.26-.16-.42-.37-.37-.79.05-1.26l2-2.68c-.16-.37-.26-.64-.47-.9z" class="fil1"/>
    <path d="m304.96 46.59-.32-.27c-.42.37-.94.63-1.63.79h-.26c-.26.11-.53.11-.74 0-.68-.21-1.47-.94-2.36-2.26 0 1.21.21 2.32.57 3.31.85 2.32 1.79 3.74 2.95 4.27.68.05 1.32.05 1.84-.06-1.42-.94-2.26-1.79-2.52-2.63-.16-.63.26-1.21 1.21-1.84l1.26-1.31z" class="fil8"/>
    <path d="M304.64 48.85c-.42.47-.47.89-.05 1.26.79.42 1.58.47 2.26.16.16-1.47.11-2.89-.21-4.1l-2 2.68z" class="fil6"/>
    <path d="M304.74 46.45c-.22.19-.47.35-.74.49-.28.13-.6.24-.95.33h-.27c-.14.05-.28.08-.42.08-.14 0-.28-.03-.41-.09-.36-.12-.75-.37-1.16-.76-.31-.3-.64-.67-.97-1.14.02.4.06.79.13 1.16.09.56.24 1.09.42 1.59v.01c.42 1.14.86 2.06 1.34 2.76.46.67.96 1.14 1.5 1.39.33.03.64.04.94.03.29 0 .57-.03.82-.08.42-.15.76-.38 1.04-.71.29-.32.51-.75.69-1.27.08-.74.1-1.47.07-2.16-.04-.66-.13-1.28-.28-1.86l-.02-.07c-.14-.31-.24-.55-.42-.77-.1-.1-.19-.19-.28-.27a.755.755 0 0 0-.14-.11c-.08.24-.18.46-.29.67-.17.29-.36.54-.59.76 0 .01-.01.02-.01.02zm-.88.21c.25-.13.47-.28.67-.45.21-.2.39-.44.53-.69.14-.25.25-.52.32-.81.01-.02.01-.03.02-.05a.17.17 0 0 1 .22-.05c.14.08.25.17.36.26.1.09.19.18.3.29l.01.01c.21.27.32.52.46.86l.04.07v.03c.16.6.25 1.25.29 1.94.04.71.01 1.45-.07 2.21v.01c0 .01 0 .02-.01.03-.19.57-.44 1.04-.75 1.4-.32.37-.71.63-1.18.8-.01 0-.02.01-.03.01-.27.05-.57.08-.89.09-.31 0-.65-.01-.99-.04-.02 0-.04 0-.05-.01-.61-.28-1.16-.78-1.66-1.52-.49-.72-.95-1.66-1.37-2.83a9.64 9.64 0 0 1-.44-1.64c-.1-.55-.15-1.13-.15-1.73 0-.05.02-.1.07-.13a.16.16 0 0 1 .22.04c.43.64.84 1.14 1.22 1.51.38.36.73.59 1.05.69.01 0 .02.01.03.01.09.04.18.06.28.06.1 0 .21-.02.32-.06.02-.01.04-.02.07-.02h.25c.32-.07.6-.17.86-.29zm.88-.21c-.07.05-.15.04-.21-.02l.21.02z" class="fil1"/>
    <path d="M12.3 91.34c1.54 0 2.87.24 4 .72s2.07 1.16 2.82 2.04c.75.89 1.3 1.95 1.67 3.2.36 1.24.54 2.63.54 4.17v20.82c0 3.06-.73 5.52-2.21 7.36-1.48 1.84-3.75 2.76-6.82 2.76-3.06 0-5.34-.92-6.81-2.76-1.48-1.84-2.22-4.3-2.22-7.36v-4.38h4.2v4.61c0 1.84.39 3.26 1.15 4.28.77 1.02 1.96 1.52 3.57 1.52 1.61 0 2.8-.5 3.56-1.52.77-1.02 1.16-2.44 1.16-4.28v-9.32H9.89v-4.03h7.02v-7.93c0-1.85-.39-3.27-1.16-4.29-.76-1.02-1.95-1.52-3.56-1.52s-2.8.5-3.57 1.52c-.76 1.02-1.15 2.44-1.15 4.29v3.22H3.33v-2.99c0-1.54.18-2.93.55-4.17.36-1.25.91-2.31 1.64-3.2.73-.88 1.66-1.56 2.79-2.04 1.13-.48 2.46-.72 3.99-.72z" class="fil11"/>
    <path id="1" d="m32.49 114.52-2.36 3.97V132h-4.48V91.75h4.48v19.44l10.7-19.44h4.54l-10.18 18.34L45.72 132h-4.6z" class="fil11"/>
    <path id="2" d="M59.81 113.31 53.83 132h-4.66V91.75h3.97v30.02l4.14-12.71 5.87-17.31h5V132h-4.03V99.97z" class="fil11"/>
    <path id="3" d="M77.18 95.83V132h-4.49V91.75h18.87V132h-4.49V95.83z" class="fil11"/>
    <path id="4" d="M106.8 113.31 100.82 132h-4.66V91.75h3.97v30.02l4.14-12.71 5.86-17.31h5.01V132h-4.03V99.97z" class="fil11"/>
    <path id="5" d="M128.48 91.75c3.18 0 5.48.87 6.9 2.61 1.42 1.75 2.13 4.15 2.13 7.22v4.83c0 3.22-.76 5.65-2.27 7.28-1.52 1.63-3.88 2.44-7.1 2.44h-3.97V132h-4.49V91.75h8.8zm-.34 20.36c1.68 0 2.93-.42 3.73-1.24.81-.83 1.21-2.22 1.21-4.17v-5.35c0-1.84-.35-3.22-1.06-4.14-.71-.92-1.89-1.38-3.54-1.38h-4.31v16.28h3.97z" class="fil11"/>
    <path id="6" d="M140.67 101.47c0-3.11.76-5.57 2.28-7.4 1.51-1.82 3.82-2.73 6.93-2.73 3.1 0 5.42.91 6.96 2.73 1.53 1.83 2.3 4.29 2.3 7.4v20.82c0 3.06-.77 5.52-2.3 7.36-1.54 1.84-3.86 2.76-6.96 2.76-3.11 0-5.42-.92-6.93-2.76-1.52-1.84-2.28-4.3-2.28-7.36v-20.82zm4.43 21.05c0 1.84.4 3.26 1.18 4.28.79 1.02 1.99 1.52 3.6 1.52 1.65 0 2.85-.5 3.62-1.52s1.15-2.44 1.15-4.28v-21.28c0-1.85-.38-3.27-1.15-4.29-.77-1.02-1.97-1.52-3.62-1.52-1.61 0-2.81.5-3.6 1.52-.78 1.02-1.18 2.44-1.18 4.29v21.28z" class="fil11"/>
    <path id="7" d="M172.42 91.75c3.15 0 5.39.73 6.73 2.21 1.34 1.48 2.01 3.71 2.01 6.7v1.9c0 2.15-.34 3.88-1.03 5.2-.69 1.33-1.92 2.26-3.68 2.79 1.95.54 3.34 1.56 4.17 3.05.82 1.5 1.23 3.36 1.23 5.58v3.39c0 3.03-.74 5.36-2.24 6.99-1.49 1.63-3.81 2.44-6.96 2.44h-9.26V91.75h9.03zm-1.09 17.08c1.8 0 3.15-.37 4.05-1.1.9-.72 1.36-2.14 1.36-4.25v-2.36c0-1.8-.34-3.13-1.01-4-.67-.86-1.81-1.29-3.42-1.29h-4.43v13h3.45zm1.32 19.09c3.18 0 4.78-1.82 4.78-5.46v-3.57c0-2.26-.46-3.82-1.36-4.69-.9-.86-2.33-1.29-4.28-1.29h-3.91v15.01h4.77z" class="fil11"/>
    <path id="8" d="m192.78 114.52-2.36 3.97V132h-4.48V91.75h4.48v19.44l10.7-19.44h4.54l-10.18 18.34L206.01 132h-4.6z" class="fil11"/>
    <path id="9" d="m214 123.9-1.55 8.1h-4.14l7.71-40.25h6.5l7.7 40.25h-4.48l-1.56-8.1H214zm.58-3.86h8.97l-4.54-23.23-4.43 23.23z" class="fil11"/>
  </g>
</svg>
